<?xml version="1.0" standalone="no"?>
  <!DOCTYPE svg PUBLIC "-//W3C//DTD SVG 1.1//EN" "http://www.w3.org/Graphics/SVG/1.1/DTD/svg11.dtd" >
  <svg>
  <metadata>
  Created by font-carrier
  </metadata>
  <defs>
  <font id="Rubik-Bold" horiz-adv-x="1276" vert-adv-y="1276" >
    <font-face
      
      font-family="Rubik"
      
      font-weight="400"
      
      font-stretch="normal"
      
      units-per-em="1000"
      
      ascent="935"
      
      descent="-250"
      
    />
      <missing-glyph />

      

      
      <glyph glyph-name="unib8" unicode="&#xb8;" d="M163 27L124-54Q130-50 140-47Q150-44 161-44Q199-44 218-70Q237-96 237-132Q237-168 210-194Q183-220 138-220Q122-220 104.50-215Q87-210 74.50-202Q62-194 57-185.50Q52-177 61-169L79-153Q87-146 92.50-146Q98-146 103.50-149Q109-152 117-155.50Q125-159 138-159Q152-159 161.50-153Q171-147 171-132Q171-118 162-111.50Q153-105 138-105Q131-105 123.50-107Q116-109 109-110.50Q102-112 95.50-111.50Q89-111 84-106L66-85Q60-77 58.50-71.50Q57-66 64-52L102 27L163 27Z"  horiz-adv-x="292" vert-adv-y="1000"  />

      
      <glyph glyph-name="uni02C6" unicode="&#x02C6;" d="M287 755Q298 755 306 751Q314 747 324 736L426 624Q431 619 431 611Q431 595 415 595L348 595Q338 595 332 598Q326 601 317 606L243 649L169 606Q160 601 154 598Q148 595 138 595L71 595Q55 595 55 611Q55 619 60 624L162 736Q172 747 180 751Q188 755 199 755L287 755Z"  horiz-adv-x="486" vert-adv-y="1000"  />

      
      <glyph glyph-name="uniF6C3" unicode="&#xF6C3;" d="M81-89Q83-75 93.50-62.50Q104-50 124-50L239-50Q248-50 254.50-56.50Q261-63 261-72Q261-76 260-79L205-218Q201-228 191.50-239Q182-250 162-250L81-250Q72-250 65.50-243.50Q59-237 59-228L59-226L81-89Z"  horiz-adv-x="320" vert-adv-y="1000"  />

      
      <glyph glyph-name="unia8" unicode="&#xa8;" d="M210 622Q210 611 202 603Q194 595 183 595L82 595Q71 595 63 603Q55 611 55 622L55 723Q55 734 63 742Q71 750 82 750L183 750Q194 750 202 742Q210 734 210 723L210 622M435 622Q435 611 427 603Q419 595 408 595L307 595Q296 595 288 603Q280 611 280 622L280 723Q280 734 288 742Q296 750 307 750L408 750Q419 750 427 742Q435 734 435 723L435 622Z"  horiz-adv-x="490" vert-adv-y="1000"  />

      
      <glyph glyph-name="uni02D9" unicode="&#x02D9;" d="M220 622Q220 611 212 603Q204 595 193 595L82 595Q71 595 63 603Q55 611 55 622L55 733Q55 744 63 752Q71 760 82 760L193 760Q204 760 212 752Q220 744 220 733L220 622Z"  horiz-adv-x="295" vert-adv-y="1000"  />

      
      <glyph glyph-name="uni02DD" unicode="&#x02DD;" d="M110 736Q115 746 123 750.50Q131 755 147 755L259 755Q279 755 279 736Q279 729 273 723L168 609Q156 595 134 595L71 595Q55 595 55 611Q55 615 56.50 619Q58 623 60 626L110 736M330 736Q335 746 343 750.50Q351 755 367 755L479 755Q499 755 499 736Q499 729 493 723L388 609Q376 595 354 595L291 595Q275 595 275 611Q275 615 276.50 619Q278 623 280 626L330 736Z"  horiz-adv-x="554" vert-adv-y="1000"  />

      
      <glyph glyph-name="uni60" unicode="&#x60;" d="M336 624Q341 619 341 611Q341 595 325 595L237 595Q221 595 212 600Q203 605 195 612L60 723Q55 728 55 735Q55 755 74 755L207 755Q218 755 225.50 752Q233 749 244 736L336 624Z"  horiz-adv-x="396" vert-adv-y="1000"  />

      
      <glyph glyph-name="uniaf" unicode="&#xaf;" d="M82 595Q71 595 63 603Q55 611 55 622L55 708Q55 719 63 727Q71 735 82 735L371 735Q382 735 390 727Q398 719 398 708L398 622Q398 611 390 603Q382 595 371 595L82 595Z"  horiz-adv-x="453" vert-adv-y="1000"  />

      
      <glyph glyph-name="uni02DB" unicode="&#x02DB;" d="M217-220Q179-220 149-207.50Q119-195 98-173.50Q77-152 66-122Q55-92 55-56Q55-20 66 10Q77 40 98 61.50Q119 83 149 95.50Q179 108 217 108L236 108Q258 108 258 86L258 22Q258 0 236 0L221 0Q195 0 181-16.50Q167-33 167-56Q167-79 181-95.50Q195-112 221-112L236-112Q258-112 258-134L258-198Q258-220 236-220L217-220Z"  horiz-adv-x="313" vert-adv-y="1000"  />

      
      <glyph glyph-name="uni02DA" unicode="&#x02DA;" d="M120 680Q120 667 128.50 658.50Q137 650 150 650Q163 650 171.50 658.50Q180 667 180 680Q180 693 171.50 701.50Q163 710 150 710Q137 710 128.50 701.50Q120 693 120 680M55 680Q55 719 83 744.50Q111 770 150 770Q189 770 217 744.50Q245 719 245 680Q245 641 217 615.50Q189 590 150 590Q111 590 83 615.50Q55 641 55 680Z"  horiz-adv-x="300" vert-adv-y="1000"  />

      
      <glyph glyph-name="uni02DC" unicode="&#x02DC;" d="M331 590Q301 590 283 597Q265 604 251.50 612.50Q238 621 226.50 628Q215 635 199 635Q187 635 181 628.50Q175 622 170.50 614.50Q166 607 162 601Q158 595 150 595L74 595Q65 595 60 600.50Q55 606 55 614Q55 636 61.50 660.50Q68 685 82 704.50Q96 724 117 737Q138 750 167 750Q197 750 215 743Q233 736 246.50 727.50Q260 719 271.50 712Q283 705 299 705Q311 705 317 711Q323 717 327.50 724.50Q332 732 336 738.50Q340 745 348 745L424 745Q433 745 438 739.50Q443 734 443 726Q443 703 435 679Q427 655 412 635.50Q397 616 376.50 603Q356 590 331 590Z"  horiz-adv-x="498" vert-adv-y="1000"  />

      
      <glyph glyph-name="uniF6C9" unicode="&#xF6C9;" d="M152 891Q163 904 170.50 907Q178 910 189 910L332 910Q351 910 351 890Q351 883 346 878L211 767Q203 760 194 755Q185 750 169 750L71 750Q55 750 55 766Q55 774 60 779L152 891Z"  horiz-adv-x="406" vert-adv-y="1000"  />

      
      <glyph glyph-name="uniF6CA" unicode="&#xF6CA;" d="M199 750Q188 750 180 754Q172 758 162 769L60 881Q55 886 55 894Q55 910 71 910L143 910Q153 910 159 907Q165 904 174 899L248 856L322 899Q331 904 337 907Q343 910 353 910L425 910Q441 910 441 894Q441 886 436 881L334 769Q324 758 316 754Q308 750 297 750L199 750Z"  horiz-adv-x="496" vert-adv-y="1000"  />

      
      <glyph glyph-name="uniF6CB" unicode="&#xF6CB;" d="M210 777Q210 766 202 758Q194 750 183 750L82 750Q71 750 63 758Q55 766 55 777L55 878Q55 889 63 897Q71 905 82 905L183 905Q194 905 202 897Q210 889 210 878L210 777M465 777Q465 766 457 758Q449 750 438 750L337 750Q326 750 318 758Q310 766 310 777L310 878Q310 889 318 897Q326 905 337 905L438 905Q449 905 457 897Q465 889 465 878L465 777Z"  horiz-adv-x="520" vert-adv-y="1000"  />

      
      <glyph glyph-name="uniF6CF" unicode="&#xF6CF;" d="M110 891Q115 901 123 905.50Q131 910 147 910L269 910Q289 910 289 891Q289 884 283 878L178 764Q166 750 144 750L71 750Q55 750 55 766Q55 770 56.50 774Q58 778 60 781L110 891M341 891Q346 901 354 905.50Q362 910 378 910L500 910Q520 910 520 891Q520 884 514 878L409 764Q397 750 375 750L302 750Q286 750 286 766Q286 770 287.50 774Q289 778 291 781L341 891Z"  horiz-adv-x="575" vert-adv-y="1000"  />

      
      <glyph glyph-name="uniF6CE" unicode="&#xF6CE;" d="M346 779Q351 774 351 766Q351 750 335 750L237 750Q221 750 212 755Q203 760 195 767L60 878Q55 883 55 890Q55 910 74 910L217 910Q228 910 235.50 907Q243 904 254 891L346 779Z"  horiz-adv-x="406" vert-adv-y="1000"  />

      
      <glyph glyph-name="uniF6D0" unicode="&#xF6D0;" d="M82 750Q71 750 63 758Q55 766 55 777L55 863Q55 874 63 882Q71 890 82 890L401 890Q412 890 420 882Q428 874 428 863L428 777Q428 766 420 758Q412 750 401 750L82 750Z"  horiz-adv-x="483" vert-adv-y="1000"  />

      
      <glyph glyph-name="uni41" unicode="&#x41;" d="M440 700Q460 700 470.50 689Q481 678 485 667L703 37Q707 27 707 22Q707 13 700.50 6.50Q694 0 685 0L559 0Q539 0 530.50 8.50Q522 17 520 25L492 108L226 108L198 25Q196 17 187.50 8.50Q179 0 159 0L33 0Q24 0 17.50 6.50Q11 13 11 22Q11 27 15 37L233 667Q237 678 247.50 689Q258 700 278 700L440 700M278 263L440 263L359 503L278 263Z"  horiz-adv-x="718" vert-adv-y="1000"  />

      
      <glyph glyph-name="unic1" unicode="&#xc1;" d="M440 700Q460 700 470.50 689Q481 678 485 667L703 37Q707 27 707 22Q707 13 700.50 6.50Q694 0 685 0L559 0Q539 0 530.50 8.50Q522 17 520 25L492 108L226 108L198 25Q196 17 187.50 8.50Q179 0 159 0L33 0Q24 0 17.50 6.50Q11 13 11 22Q11 27 15 37L233 667Q237 678 247.50 689Q258 700 278 700L440 700M278 263L440 263L359 503L278 263M377 891Q388 904 395.50 907Q403 910 414 910L557 910Q576 910 576 890Q576 883 571 878L436 767Q428 760 419 755Q410 750 394 750L296 750Q280 750 280 766Q280 774 285 779L377 891Z"  horiz-adv-x="718" vert-adv-y="1000"  />

      
      <glyph glyph-name="uni0102" unicode="&#x0102;" d="M440 700Q460 700 470.50 689Q481 678 485 667L703 37Q707 27 707 22Q707 13 700.50 6.50Q694 0 685 0L559 0Q539 0 530.50 8.50Q522 17 520 25L492 108L226 108L198 25Q196 17 187.50 8.50Q179 0 159 0L33 0Q24 0 17.50 6.50Q11 13 11 22Q11 27 15 37L233 667Q237 678 247.50 689Q258 700 278 700L440 700M278 263L440 263L359 503L278 263M359 745Q313 745 281 758.50Q249 772 228.50 793.50Q208 815 199 841Q190 867 190 891Q190 899 195 904.50Q200 910 209 910L293 910Q302 910 307 904.50Q312 899 312 891Q312 872 324 856.50Q336 841 359 841Q382 841 394 856.50Q406 872 406 891Q406 899 411 904.50Q416 910 425 910L509 910Q518 910 523 904.50Q528 899 528 891Q528 867 519 841Q510 815 489.50 793.50Q469 772 437 758.50Q405 745 359 745Z"  horiz-adv-x="718" vert-adv-y="1000"  />

      
      <glyph glyph-name="unic2" unicode="&#xc2;" d="M440 700Q460 700 470.50 689Q481 678 485 667L703 37Q707 27 707 22Q707 13 700.50 6.50Q694 0 685 0L559 0Q539 0 530.50 8.50Q522 17 520 25L492 108L226 108L198 25Q196 17 187.50 8.50Q179 0 159 0L33 0Q24 0 17.50 6.50Q11 13 11 22Q11 27 15 37L233 667Q237 678 247.50 689Q258 700 278 700L440 700M278 263L440 263L359 503L278 263M408 910Q419 910 427 906Q435 902 445 891L547 779Q552 774 552 766Q552 750 536 750L464 750Q454 750 448 753Q442 756 433 761L359 804L285 761Q276 756 270 753Q264 750 254 750L182 750Q166 750 166 766Q166 774 171 779L273 891Q283 902 291 906Q299 910 310 910L408 910Z"  horiz-adv-x="718" vert-adv-y="1000"  />

      
      <glyph glyph-name="unic0" unicode="&#xc0;" d="M440 700Q460 700 470.50 689Q481 678 485 667L703 37Q707 27 707 22Q707 13 700.50 6.50Q694 0 685 0L559 0Q539 0 530.50 8.50Q522 17 520 25L492 108L226 108L198 25Q196 17 187.50 8.50Q179 0 159 0L33 0Q24 0 17.50 6.50Q11 13 11 22Q11 27 15 37L233 667Q237 678 247.50 689Q258 700 278 700L440 700M278 263L440 263L359 503L278 263M435 779Q440 774 440 766Q440 750 424 750L326 750Q310 750 301 755Q292 760 284 767L149 878Q144 883 144 890Q144 910 163 910L306 910Q317 910 324.50 907Q332 904 343 891L435 779Z"  horiz-adv-x="718" vert-adv-y="1000"  />

      
      <glyph glyph-name="unic4" unicode="&#xc4;" d="M440 700Q460 700 470.50 689Q481 678 485 667L703 37Q707 27 707 22Q707 13 700.50 6.50Q694 0 685 0L559 0Q539 0 530.50 8.50Q522 17 520 25L492 108L226 108L198 25Q196 17 187.50 8.50Q179 0 159 0L33 0Q24 0 17.50 6.50Q11 13 11 22Q11 27 15 37L233 667Q237 678 247.50 689Q258 700 278 700L440 700M278 263L440 263L359 503L278 263M309 777Q309 766 301 758Q293 750 282 750L181 750Q170 750 162 758Q154 766 154 777L154 878Q154 889 162 897Q170 905 181 905L282 905Q293 905 301 897Q309 889 309 878L309 777M564 777Q564 766 556 758Q548 750 537 750L436 750Q425 750 417 758Q409 766 409 777L409 878Q409 889 417 897Q425 905 436 905L537 905Q548 905 556 897Q564 889 564 878L564 777Z"  horiz-adv-x="718" vert-adv-y="1000"  />

      
      <glyph glyph-name="uni0100" unicode="&#x0100;" d="M440 700Q460 700 470.50 689Q481 678 485 667L703 37Q707 27 707 22Q707 13 700.50 6.50Q694 0 685 0L559 0Q539 0 530.50 8.50Q522 17 520 25L492 108L226 108L198 25Q196 17 187.50 8.50Q179 0 159 0L33 0Q24 0 17.50 6.50Q11 13 11 22Q11 27 15 37L233 667Q237 678 247.50 689Q258 700 278 700L440 700M278 263L440 263L359 503L278 263M200 750Q189 750 181 758Q173 766 173 777L173 863Q173 874 181 882Q189 890 200 890L519 890Q530 890 538 882Q546 874 546 863L546 777Q546 766 538 758Q530 750 519 750L200 750Z"  horiz-adv-x="718" vert-adv-y="1000"  />

      
      <glyph glyph-name="uni0104" unicode="&#x0104;" d="M440 700Q460 700 470.50 689Q481 678 485 667L703 37Q707 27 707 22Q707 13 700.50 6.50Q694 0 685 0L670 0Q644 0 630-16.50Q616-33 616-56Q616-79 630-95.50Q644-112 670-112L685-112Q707-112 707-134L707-198Q707-220 685-220L666-220Q628-220 598-207.50Q568-195 547-173.50Q526-152 515-122Q504-92 504-56Q504-10 520 23L520 25L492 108L226 108L198 25Q196 17 187.50 8.50Q179 0 159 0L33 0Q24 0 17.50 6.50Q11 13 11 22Q11 27 15 37L233 667Q237 678 247.50 689Q258 700 278 700L440 700M278 263L440 263L359 503L278 263Z"  horiz-adv-x="718" vert-adv-y="1000"  />

      
      <glyph glyph-name="unic5" unicode="&#xc5;" d="M440 700Q460 700 470.50 689Q481 678 485 667L703 37Q707 27 707 22Q707 13 700.50 6.50Q694 0 685 0L559 0Q539 0 530.50 8.50Q522 17 520 25L492 108L226 108L198 25Q196 17 187.50 8.50Q179 0 159 0L33 0Q24 0 17.50 6.50Q11 13 11 22Q11 27 15 37L233 667Q237 678 247.50 689Q258 700 278 700L440 700M278 263L440 263L359 503L278 263M329 830Q329 817 337.50 808.50Q346 800 359 800Q372 800 380.50 808.50Q389 817 389 830Q389 843 380.50 851.50Q372 860 359 860Q346 860 337.50 851.50Q329 843 329 830M264 830Q264 869 292 894.50Q320 920 359 920Q398 920 426 894.50Q454 869 454 830Q454 791 426 765.50Q398 740 359 740Q320 740 292 765.50Q264 791 264 830Z"  horiz-adv-x="718" vert-adv-y="1000"  />

      
      <glyph glyph-name="unic3" unicode="&#xc3;" d="M440 700Q460 700 470.50 689Q481 678 485 667L703 37Q707 27 707 22Q707 13 700.50 6.50Q694 0 685 0L559 0Q539 0 530.50 8.50Q522 17 520 25L492 108L226 108L198 25Q196 17 187.50 8.50Q179 0 159 0L33 0Q24 0 17.50 6.50Q11 13 11 22Q11 27 15 37L233 667Q237 678 247.50 689Q258 700 278 700L440 700M278 263L440 263L359 503L278 263M446 745Q415 745 395 752Q375 759 360 767.50Q345 776 332.50 783Q320 790 304 790Q292 790 286 783.50Q280 777 275.50 769.50Q271 762 267 756Q263 750 255 750L179 750Q170 750 165 755.50Q160 761 160 769Q160 791 166.50 815.50Q173 840 187 859.50Q201 879 222 892Q243 905 272 905Q303 905 323 898Q343 891 358 882.50Q373 874 385.50 867Q398 860 414 860Q426 860 432 866Q438 872 442.50 879.50Q447 887 451 893.50Q455 900 463 900L539 900Q548 900 553 894.50Q558 889 558 881Q558 858 550 834Q542 810 527 790.50Q512 771 491.50 758Q471 745 446 745Z"  horiz-adv-x="718" vert-adv-y="1000"  />

      
      <glyph glyph-name="unic6" unicode="&#xc6;" d="M934 700Q945 700 953 692Q961 684 961 673L961 567Q961 556 953 548Q945 540 934 540L626 540L626 432L912 432Q923 432 931 424Q939 416 939 405L939 299Q939 288 931 280Q923 272 912 272L626 272L626 160L942 160Q953 160 961 152Q969 144 969 133L969 27Q969 16 961 8Q953 0 942 0L468 0Q457 0 449 8Q441 16 441 27L441 108L232 108L195 25Q190 17 181.50 8.50Q173 0 156 0L28 0Q17 0 9 8Q1 16 1 27Q1 32 5 39L286 667Q292 678 301.50 689Q311 700 331 700L934 700M301 263L441 263L441 540L424 540L301 263Z"  horiz-adv-x="1014" vert-adv-y="1000"  />

      
      <glyph glyph-name="uni01FC" unicode="&#x01FC;" d="M552 891Q563 904 570.50 907Q578 910 589 910L732 910Q751 910 751 890Q751 883 746 878L611 767Q603 760 594 755Q585 750 569 750L471 750Q455 750 455 766Q455 774 460 779L552 891M934 700Q945 700 953 692Q961 684 961 673L961 567Q961 556 953 548Q945 540 934 540L626 540L626 432L912 432Q923 432 931 424Q939 416 939 405L939 299Q939 288 931 280Q923 272 912 272L626 272L626 160L942 160Q953 160 961 152Q969 144 969 133L969 27Q969 16 961 8Q953 0 942 0L468 0Q457 0 449 8Q441 16 441 27L441 108L232 108L195 25Q190 17 181.50 8.50Q173 0 156 0L28 0Q17 0 9 8Q1 16 1 27Q1 32 5 39L286 667Q292 678 301.50 689Q311 700 331 700L934 700M301 263L441 263L441 540L424 540L301 263Z"  horiz-adv-x="1014" vert-adv-y="1000"  />

      
      <glyph glyph-name="uni42" unicode="&#x42;" d="M97 0Q86 0 78 8Q70 16 70 27L70 673Q70 684 78 692Q86 700 97 700L419 700Q486 700 532 681.50Q578 663 605.50 633.50Q633 604 645 566.50Q657 529 657 492Q657 463 650.50 441.50Q644 420 635 404.50Q626 389 616.50 379.50Q607 370 601 365Q640 338 655.50 302.50Q671 267 671 217Q671 176 659 137Q647 98 619.50 67.50Q592 37 548 18.50Q504 0 440 0L97 0M471 488Q471 514 455.50 529.50Q440 545 410 545L255 545L255 431L410 431Q440 431 455.50 446.50Q471 462 471 488M255 155L420 155Q450 155 468 172.50Q486 190 486 216Q486 242 468 259.50Q450 277 420 277L255 277L255 155Z"  horiz-adv-x="712" vert-adv-y="1000"  />

      
      <glyph glyph-name="uni43" unicode="&#x43;" d="M231 434Q230 421 229.50 398Q229 375 229 350.50Q229 326 229.50 302.50Q230 279 231 266Q233 243 240 222Q247 201 262 185Q277 169 300 159.50Q323 150 357 150Q391 150 413 158Q435 166 449 177.50Q463 189 470.50 203Q478 217 482 229Q487 245 493 251.50Q499 258 516 258L647 258Q656 258 662.50 251.50Q669 245 669 236Q668 185 644 140Q620 95 578 62Q536 29 479.50 9.50Q423-10 357-10Q285-10 228.50 11.50Q172 33 132 70Q92 107 70.50 156.50Q49 206 46 261Q44 302 44 349Q44 396 46 439Q48 494 70 543.50Q92 593 131.50 630Q171 667 228 688.50Q285 710 357 710Q423 710 479.50 690.50Q536 671 578 638Q620 605 644 560Q668 515 669 464Q669 455 662.50 448.50Q656 442 647 442L516 442Q499 442 493 448.50Q487 455 482 471Q478 483 470.50 497Q463 511 449 522.50Q435 534 413 542Q391 550 357 550Q323 550 300 540.50Q277 531 262 515Q247 499 240 478Q233 457 231 434Z"  horiz-adv-x="702" vert-adv-y="1000"  />

      
      <glyph glyph-name="uni0106" unicode="&#x0106;" d="M231 434Q230 421 229.50 398Q229 375 229 350.50Q229 326 229.50 302.50Q230 279 231 266Q233 243 240 222Q247 201 262 185Q277 169 300 159.50Q323 150 357 150Q391 150 413 158Q435 166 449 177.50Q463 189 470.50 203Q478 217 482 229Q487 245 493 251.50Q499 258 516 258L647 258Q656 258 662.50 251.50Q669 245 669 236Q668 185 644 140Q620 95 578 62Q536 29 479.50 9.50Q423-10 357-10Q285-10 228.50 11.50Q172 33 132 70Q92 107 70.50 156.50Q49 206 46 261Q44 302 44 349Q44 396 46 439Q48 494 70 543.50Q92 593 131.50 630Q171 667 228 688.50Q285 710 357 710Q423 710 479.50 690.50Q536 671 578 638Q620 605 644 560Q668 515 669 464Q669 455 662.50 448.50Q656 442 647 442L516 442Q499 442 493 448.50Q487 455 482 471Q478 483 470.50 497Q463 511 449 522.50Q435 534 413 542Q391 550 357 550Q323 550 300 540.50Q277 531 262 515Q247 499 240 478Q233 457 231 434M372 891Q383 904 390.50 907Q398 910 409 910L552 910Q571 910 571 890Q571 883 566 878L431 767Q423 760 414 755Q405 750 389 750L291 750Q275 750 275 766Q275 774 280 779L372 891Z"  horiz-adv-x="702" vert-adv-y="1000"  />

      
      <glyph glyph-name="uni010C" unicode="&#x010C;" d="M231 434Q230 421 229.50 398Q229 375 229 350.50Q229 326 229.50 302.50Q230 279 231 266Q233 243 240 222Q247 201 262 185Q277 169 300 159.50Q323 150 357 150Q391 150 413 158Q435 166 449 177.50Q463 189 470.50 203Q478 217 482 229Q487 245 493 251.50Q499 258 516 258L647 258Q656 258 662.50 251.50Q669 245 669 236Q668 185 644 140Q620 95 578 62Q536 29 479.50 9.50Q423-10 357-10Q285-10 228.50 11.50Q172 33 132 70Q92 107 70.50 156.50Q49 206 46 261Q44 302 44 349Q44 396 46 439Q48 494 70 543.50Q92 593 131.50 630Q171 667 228 688.50Q285 710 357 710Q423 710 479.50 690.50Q536 671 578 638Q620 605 644 560Q668 515 669 464Q669 455 662.50 448.50Q656 442 647 442L516 442Q499 442 493 448.50Q487 455 482 471Q478 483 470.50 497Q463 511 449 522.50Q435 534 413 542Q391 550 357 550Q323 550 300 540.50Q277 531 262 515Q247 499 240 478Q233 457 231 434M307 750Q296 750 288 754Q280 758 270 769L168 881Q163 886 163 894Q163 910 179 910L251 910Q261 910 267 907Q273 904 282 899L356 856L430 899Q439 904 445 907Q451 910 461 910L533 910Q549 910 549 894Q549 886 544 881L442 769Q432 758 424 754Q416 750 405 750L307 750Z"  horiz-adv-x="702" vert-adv-y="1000"  />

      
      <glyph glyph-name="unic7" unicode="&#xc7;" d="M231 434Q230 421 229.50 398Q229 375 229 350.50Q229 326 229.50 302.50Q230 279 231 266Q233 243 240 222Q247 201 262 185Q277 169 300 159.50Q323 150 357 150Q391 150 413 158Q435 166 449 177.50Q463 189 470.50 203Q478 217 482 229Q487 245 493 251.50Q499 258 516 258L647 258Q656 258 662.50 251.50Q669 245 669 236Q668 185 644 140.50Q620 96 578.50 62.50Q537 29 481 9.50Q425-10 359-10L338-54Q344-50 354-47Q364-44 375-44Q413-44 432-70Q451-96 451-132Q451-168 424-194Q397-220 352-220Q336-220 318.50-215Q301-210 288.50-202Q276-194 271-185.50Q266-177 275-169L293-153Q301-146 306.50-146Q312-146 317.50-149Q323-152 331-155.50Q339-159 352-159Q366-159 375.50-153Q385-147 385-132Q385-118 376-111.50Q367-105 352-105Q345-105 337.50-107Q330-109 323-110.50Q316-112 309.50-111.50Q303-111 298-106L280-85Q274-77 272.50-71.50Q271-66 278-52L300-6Q241 2 195 26.50Q149 51 116.50 86.50Q84 122 66 166.50Q48 211 46 261Q44 302 44 349Q44 396 46 439Q48 494 70 543.50Q92 593 131.50 630Q171 667 228 688.50Q285 710 357 710Q423 710 479.50 690.50Q536 671 578 638Q620 605 644 560Q668 515 669 464Q669 455 662.50 448.50Q656 442 647 442L516 442Q499 442 493 448.50Q487 455 482 471Q478 483 470.50 497Q463 511 449 522.50Q435 534 413 542Q391 550 357 550Q323 550 300 540.50Q277 531 262 515Q247 499 240 478Q233 457 231 434Z"  horiz-adv-x="702" vert-adv-y="1000"  />

      
      <glyph glyph-name="uni0108" unicode="&#x0108;" d="M231 434Q230 421 229.50 398Q229 375 229 350.50Q229 326 229.50 302.50Q230 279 231 266Q233 243 240 222Q247 201 262 185Q277 169 300 159.50Q323 150 357 150Q391 150 413 158Q435 166 449 177.50Q463 189 470.50 203Q478 217 482 229Q487 245 493 251.50Q499 258 516 258L647 258Q656 258 662.50 251.50Q669 245 669 236Q668 185 644 140Q620 95 578 62Q536 29 479.50 9.50Q423-10 357-10Q285-10 228.50 11.50Q172 33 132 70Q92 107 70.50 156.50Q49 206 46 261Q44 302 44 349Q44 396 46 439Q48 494 70 543.50Q92 593 131.50 630Q171 667 228 688.50Q285 710 357 710Q423 710 479.50 690.50Q536 671 578 638Q620 605 644 560Q668 515 669 464Q669 455 662.50 448.50Q656 442 647 442L516 442Q499 442 493 448.50Q487 455 482 471Q478 483 470.50 497Q463 511 449 522.50Q435 534 413 542Q391 550 357 550Q323 550 300 540.50Q277 531 262 515Q247 499 240 478Q233 457 231 434M405 910Q416 910 424 906Q432 902 442 891L544 779Q549 774 549 766Q549 750 533 750L461 750Q451 750 445 753Q439 756 430 761L356 804L282 761Q273 756 267 753Q261 750 251 750L179 750Q163 750 163 766Q163 774 168 779L270 891Q280 902 288 906Q296 910 307 910L405 910Z"  horiz-adv-x="702" vert-adv-y="1000"  />

      
      <glyph glyph-name="uni010A" unicode="&#x010A;" d="M231 434Q230 421 229.50 398Q229 375 229 350.50Q229 326 229.50 302.50Q230 279 231 266Q233 243 240 222Q247 201 262 185Q277 169 300 159.50Q323 150 357 150Q391 150 413 158Q435 166 449 177.50Q463 189 470.50 203Q478 217 482 229Q487 245 493 251.50Q499 258 516 258L647 258Q656 258 662.50 251.50Q669 245 669 236Q668 185 644 140Q620 95 578 62Q536 29 479.50 9.50Q423-10 357-10Q285-10 228.50 11.50Q172 33 132 70Q92 107 70.50 156.50Q49 206 46 261Q44 302 44 349Q44 396 46 439Q48 494 70 543.50Q92 593 131.50 630Q171 667 228 688.50Q285 710 357 710Q423 710 479.50 690.50Q536 671 578 638Q620 605 644 560Q668 515 669 464Q669 455 662.50 448.50Q656 442 647 442L516 442Q499 442 493 448.50Q487 455 482 471Q478 483 470.50 497Q463 511 449 522.50Q435 534 413 542Q391 550 357 550Q323 550 300 540.50Q277 531 262 515Q247 499 240 478Q233 457 231 434M439 777Q439 766 431 758Q423 750 412 750L301 750Q290 750 282 758Q274 766 274 777L274 888Q274 899 282 907Q290 915 301 915L412 915Q423 915 431 907Q439 899 439 888L439 777Z"  horiz-adv-x="702" vert-adv-y="1000"  />

      
      <glyph glyph-name="uni44" unicode="&#x44;" d="M362 700Q431 700 488 679.50Q545 659 586.50 622Q628 585 651.50 533.50Q675 482 678 421Q679 400 679 382.50Q679 365 679 349Q679 333 679 316Q679 299 678 279Q675 217 652 166Q629 115 588.50 78Q548 41 492 20.50Q436 0 367 0L97 0Q86 0 78 8Q70 16 70 27L70 673Q70 684 78 692Q86 700 97 700L362 700M493 425Q487 540 357 540L255 540L255 160L362 160Q488 160 493 275Q494 296 494 314.50Q494 333 494 350.50Q494 368 494 386Q494 404 493 425Z"  horiz-adv-x="723" vert-adv-y="1000"  />

      
      <glyph glyph-name="uni010E" unicode="&#x010E;" d="M362 700Q431 700 488 679.50Q545 659 586.50 622Q628 585 651.50 533.50Q675 482 678 421Q679 400 679 382.50Q679 365 679 349Q679 333 679 316Q679 299 678 279Q675 217 652 166Q629 115 588.50 78Q548 41 492 20.50Q436 0 367 0L97 0Q86 0 78 8Q70 16 70 27L70 673Q70 684 78 692Q86 700 97 700L362 700M493 425Q487 540 357 540L255 540L255 160L362 160Q488 160 493 275Q494 296 494 314.50Q494 333 494 350.50Q494 368 494 386Q494 404 493 425M296 750Q285 750 277 754Q269 758 259 769L157 881Q152 886 152 894Q152 910 168 910L240 910Q250 910 256 907Q262 904 271 899L345 856L419 899Q428 904 434 907Q440 910 450 910L522 910Q538 910 538 894Q538 886 533 881L431 769Q421 758 413 754Q405 750 394 750L296 750Z"  horiz-adv-x="723" vert-adv-y="1000"  />

      
      <glyph glyph-name="uni0110" unicode="&#x0110;" d="M394 700Q463 700 520 679.50Q577 659 618.50 622Q660 585 683.50 533.50Q707 482 710 421Q711 400 711 382.50Q711 365 711 349Q711 333 711 316Q711 299 710 279Q707 217 684 166Q661 115 620.50 78Q580 41 524 20.50Q468 0 399 0L129 0Q118 0 110 8Q102 16 102 27L102 284L49 284Q38 284 30 292Q22 300 22 311L22 397Q22 408 30 416Q38 424 49 424L102 424L102 673Q102 684 110 692Q118 700 129 700L394 700M525 425Q519 540 389 540L287 540L287 424L362 424Q373 424 381 416Q389 408 389 397L389 311Q389 300 381 292Q373 284 362 284L287 284L287 160L394 160Q520 160 525 275Q526 296 526 314.50Q526 333 526 350.50Q526 368 526 386Q526 404 525 425Z"  horiz-adv-x="755" vert-adv-y="1000"  />

      
      <glyph glyph-name="uni45" unicode="&#x45;" d="M571 160Q582 160 590 152Q598 144 598 133L598 27Q598 16 590 8Q582 0 571 0L97 0Q86 0 78 8Q70 16 70 27L70 673Q70 684 78 692Q86 700 97 700L563 700Q574 700 582 692Q590 684 590 673L590 567Q590 556 582 548Q574 540 563 540L255 540L255 432L541 432Q552 432 560 424Q568 416 568 405L568 299Q568 288 560 280Q552 272 541 272L255 272L255 160L571 160Z"  horiz-adv-x="643" vert-adv-y="1000"  />

      
      <glyph glyph-name="unic9" unicode="&#xc9;" d="M571 160Q582 160 590 152Q598 144 598 133L598 27Q598 16 590 8Q582 0 571 0L97 0Q86 0 78 8Q70 16 70 27L70 673Q70 684 78 692Q86 700 97 700L563 700Q574 700 582 692Q590 684 590 673L590 567Q590 556 582 548Q574 540 563 540L255 540L255 432L541 432Q552 432 560 424Q568 416 568 405L568 299Q568 288 560 280Q552 272 541 272L255 272L255 160L571 160M354 891Q365 904 372.50 907Q380 910 391 910L534 910Q553 910 553 890Q553 883 548 878L413 767Q405 760 396 755Q387 750 371 750L273 750Q257 750 257 766Q257 774 262 779L354 891Z"  horiz-adv-x="643" vert-adv-y="1000"  />

      
      <glyph glyph-name="uni0114" unicode="&#x0114;" d="M571 160Q582 160 590 152Q598 144 598 133L598 27Q598 16 590 8Q582 0 571 0L97 0Q86 0 78 8Q70 16 70 27L70 673Q70 684 78 692Q86 700 97 700L563 700Q574 700 582 692Q590 684 590 673L590 567Q590 556 582 548Q574 540 563 540L255 540L255 432L541 432Q552 432 560 424Q568 416 568 405L568 299Q568 288 560 280Q552 272 541 272L255 272L255 160L571 160M334 745Q288 745 256 758.50Q224 772 203.50 793.50Q183 815 174 841Q165 867 165 891Q165 899 170 904.50Q175 910 184 910L268 910Q277 910 282 904.50Q287 899 287 891Q287 872 299 856.50Q311 841 334 841Q357 841 369 856.50Q381 872 381 891Q381 899 386 904.50Q391 910 400 910L484 910Q493 910 498 904.50Q503 899 503 891Q503 867 494 841Q485 815 464.50 793.50Q444 772 412 758.50Q380 745 334 745Z"  horiz-adv-x="643" vert-adv-y="1000"  />

      
      <glyph glyph-name="uni011A" unicode="&#x011A;" d="M571 160Q582 160 590 152Q598 144 598 133L598 27Q598 16 590 8Q582 0 571 0L97 0Q86 0 78 8Q70 16 70 27L70 673Q70 684 78 692Q86 700 97 700L563 700Q574 700 582 692Q590 684 590 673L590 567Q590 556 582 548Q574 540 563 540L255 540L255 432L541 432Q552 432 560 424Q568 416 568 405L568 299Q568 288 560 280Q552 272 541 272L255 272L255 160L571 160M285 750Q274 750 266 754Q258 758 248 769L146 881Q141 886 141 894Q141 910 157 910L229 910Q239 910 245 907Q251 904 260 899L334 856L408 899Q417 904 423 907Q429 910 439 910L511 910Q527 910 527 894Q527 886 522 881L420 769Q410 758 402 754Q394 750 383 750L285 750Z"  horiz-adv-x="643" vert-adv-y="1000"  />

      
      <glyph glyph-name="unica" unicode="&#xca;" d="M571 160Q582 160 590 152Q598 144 598 133L598 27Q598 16 590 8Q582 0 571 0L97 0Q86 0 78 8Q70 16 70 27L70 673Q70 684 78 692Q86 700 97 700L563 700Q574 700 582 692Q590 684 590 673L590 567Q590 556 582 548Q574 540 563 540L255 540L255 432L541 432Q552 432 560 424Q568 416 568 405L568 299Q568 288 560 280Q552 272 541 272L255 272L255 160L571 160M383 910Q394 910 402 906Q410 902 420 891L522 779Q527 774 527 766Q527 750 511 750L439 750Q429 750 423 753Q417 756 408 761L334 804L260 761Q251 756 245 753Q239 750 229 750L157 750Q141 750 141 766Q141 774 146 779L248 891Q258 902 266 906Q274 910 285 910L383 910Z"  horiz-adv-x="643" vert-adv-y="1000"  />

      
      <glyph glyph-name="unicb" unicode="&#xcb;" d="M571 160Q582 160 590 152Q598 144 598 133L598 27Q598 16 590 8Q582 0 571 0L97 0Q86 0 78 8Q70 16 70 27L70 673Q70 684 78 692Q86 700 97 700L563 700Q574 700 582 692Q590 684 590 673L590 567Q590 556 582 548Q574 540 563 540L255 540L255 432L541 432Q552 432 560 424Q568 416 568 405L568 299Q568 288 560 280Q552 272 541 272L255 272L255 160L571 160M284 777Q284 766 276 758Q268 750 257 750L156 750Q145 750 137 758Q129 766 129 777L129 878Q129 889 137 897Q145 905 156 905L257 905Q268 905 276 897Q284 889 284 878L284 777M539 777Q539 766 531 758Q523 750 512 750L411 750Q400 750 392 758Q384 766 384 777L384 878Q384 889 392 897Q400 905 411 905L512 905Q523 905 531 897Q539 889 539 878L539 777Z"  horiz-adv-x="643" vert-adv-y="1000"  />

      
      <glyph glyph-name="uni0116" unicode="&#x0116;" d="M571 160Q582 160 590 152Q598 144 598 133L598 27Q598 16 590 8Q582 0 571 0L97 0Q86 0 78 8Q70 16 70 27L70 673Q70 684 78 692Q86 700 97 700L563 700Q574 700 582 692Q590 684 590 673L590 567Q590 556 582 548Q574 540 563 540L255 540L255 432L541 432Q552 432 560 424Q568 416 568 405L568 299Q568 288 560 280Q552 272 541 272L255 272L255 160L571 160M417 777Q417 766 409 758Q401 750 390 750L279 750Q268 750 260 758Q252 766 252 777L252 888Q252 899 260 907Q268 915 279 915L390 915Q401 915 409 907Q417 899 417 888L417 777Z"  horiz-adv-x="643" vert-adv-y="1000"  />

      
      <glyph glyph-name="unic8" unicode="&#xc8;" d="M571 160Q582 160 590 152Q598 144 598 133L598 27Q598 16 590 8Q582 0 571 0L97 0Q86 0 78 8Q70 16 70 27L70 673Q70 684 78 692Q86 700 97 700L563 700Q574 700 582 692Q590 684 590 673L590 567Q590 556 582 548Q574 540 563 540L255 540L255 432L541 432Q552 432 560 424Q568 416 568 405L568 299Q568 288 560 280Q552 272 541 272L255 272L255 160L571 160M405 779Q410 774 410 766Q410 750 394 750L296 750Q280 750 271 755Q262 760 254 767L119 878Q114 883 114 890Q114 910 133 910L276 910Q287 910 294.50 907Q302 904 313 891L405 779Z"  horiz-adv-x="643" vert-adv-y="1000"  />

      
      <glyph glyph-name="uni0112" unicode="&#x0112;" d="M571 160Q582 160 590 152Q598 144 598 133L598 27Q598 16 590 8Q582 0 571 0L97 0Q86 0 78 8Q70 16 70 27L70 673Q70 684 78 692Q86 700 97 700L563 700Q574 700 582 692Q590 684 590 673L590 567Q590 556 582 548Q574 540 563 540L255 540L255 432L541 432Q552 432 560 424Q568 416 568 405L568 299Q568 288 560 280Q552 272 541 272L255 272L255 160L571 160M175 750Q164 750 156 758Q148 766 148 777L148 863Q148 874 156 882Q164 890 175 890L494 890Q505 890 513 882Q521 874 521 863L521 777Q521 766 513 758Q505 750 494 750L175 750Z"  horiz-adv-x="643" vert-adv-y="1000"  />

      
      <glyph glyph-name="uni0118" unicode="&#x0118;" d="M557-220Q519-220 489-207.50Q459-195 438-173.50Q417-152 406-122Q395-92 395-56Q395-27 403 0L97 0Q86 0 78 8Q70 16 70 27L70 673Q70 684 78 692Q86 700 97 700L563 700Q574 700 582 692Q590 684 590 673L590 567Q590 556 582 548Q574 540 563 540L255 540L255 432L541 432Q552 432 560 424Q568 416 568 405L568 299Q568 288 560 280Q552 272 541 272L255 272L255 160L571 160Q582 160 590 152Q598 144 598 133L598 27Q598 16 590 8Q582 0 571 0L556 0Q533 0 520-16.50Q507-33 507-56Q507-79 521-95.50Q535-112 561-112L576-112Q598-112 598-134L598-198Q598-220 576-220L557-220Z"  horiz-adv-x="643" vert-adv-y="1000"  />

      
      <glyph glyph-name="uni46" unicode="&#x46;" d="M554 700Q565 700 573 692Q581 684 581 673L581 567Q581 556 573 548Q565 540 554 540L255 540L255 403L534 403Q545 403 553 395Q561 387 561 376L561 270Q561 259 553 251Q545 243 534 243L255 243L255 27Q255 16 247 8Q239 0 228 0L97 0Q86 0 78 8Q70 16 70 27L70 673Q70 684 78 692Q86 700 97 700L554 700Z"  horiz-adv-x="617" vert-adv-y="1000"  />

      
      <glyph glyph-name="uni47" unicode="&#x47;" d="M357 550Q323 550 300 540.50Q277 531 262.50 515Q248 499 241 478Q234 457 231 434Q229 421 228.50 398Q228 375 228 350.50Q228 326 229 302.50Q230 279 231 266Q233 243 240.50 222Q248 201 262.50 185Q277 169 300.50 159.50Q324 150 357 150Q383 150 406 156Q429 162 446 175Q463 188 473 209Q483 230 483 260L399 260Q388 260 380 268Q372 276 372 287L372 393Q372 404 380 412Q388 420 399 420L641 420Q652 420 660 412Q668 404 668 393L668 265Q668 201 644 150Q620 99 578 63.50Q536 28 479.50 9Q423-10 357-10Q285-10 228.50 11.50Q172 33 132 70Q92 107 70.50 156.50Q49 206 46 261Q44 302 44 349Q44 396 46 439Q48 494 70 543.50Q92 593 131.50 630Q171 667 228 688.50Q285 710 357 710Q427 710 483 689.50Q539 669 578 637.50Q617 606 639 568.50Q661 531 663 497Q664 488 657 481.50Q650 475 641 475L508 475Q493 475 484.50 484Q476 493 468 502Q454 520 430 535Q406 550 357 550Z"  horiz-adv-x="711" vert-adv-y="1000"  />

      
      <glyph glyph-name="uni011E" unicode="&#x011E;" d="M357 550Q323 550 300 540.50Q277 531 262.50 515Q248 499 241 478Q234 457 231 434Q229 421 228.50 398Q228 375 228 350.50Q228 326 229 302.50Q230 279 231 266Q233 243 240.50 222Q248 201 262.50 185Q277 169 300.50 159.50Q324 150 357 150Q383 150 406 156Q429 162 446 175Q463 188 473 209Q483 230 483 260L399 260Q388 260 380 268Q372 276 372 287L372 393Q372 404 380 412Q388 420 399 420L641 420Q652 420 660 412Q668 404 668 393L668 265Q668 201 644 150Q620 99 578 63.50Q536 28 479.50 9Q423-10 357-10Q285-10 228.50 11.50Q172 33 132 70Q92 107 70.50 156.50Q49 206 46 261Q44 302 44 349Q44 396 46 439Q48 494 70 543.50Q92 593 131.50 630Q171 667 228 688.50Q285 710 357 710Q427 710 483 689.50Q539 669 578 637.50Q617 606 639 568.50Q661 531 663 497Q664 488 657 481.50Q650 475 641 475L508 475Q493 475 484.50 484Q476 493 468 502Q454 520 430 535Q406 550 357 550M355 745Q309 745 277 758.50Q245 772 224.50 793.50Q204 815 195 841Q186 867 186 891Q186 899 191 904.50Q196 910 205 910L289 910Q298 910 303 904.50Q308 899 308 891Q308 872 320 856.50Q332 841 355 841Q378 841 390 856.50Q402 872 402 891Q402 899 407 904.50Q412 910 421 910L505 910Q514 910 519 904.50Q524 899 524 891Q524 867 515 841Q506 815 485.50 793.50Q465 772 433 758.50Q401 745 355 745Z"  horiz-adv-x="711" vert-adv-y="1000"  />

      
      <glyph glyph-name="uni011C" unicode="&#x011C;" d="M357 550Q323 550 300 540.50Q277 531 262.50 515Q248 499 241 478Q234 457 231 434Q229 421 228.50 398Q228 375 228 350.50Q228 326 229 302.50Q230 279 231 266Q233 243 240.50 222Q248 201 262.50 185Q277 169 300.50 159.50Q324 150 357 150Q383 150 406 156Q429 162 446 175Q463 188 473 209Q483 230 483 260L399 260Q388 260 380 268Q372 276 372 287L372 393Q372 404 380 412Q388 420 399 420L641 420Q652 420 660 412Q668 404 668 393L668 265Q668 201 644 150Q620 99 578 63.50Q536 28 479.50 9Q423-10 357-10Q285-10 228.50 11.50Q172 33 132 70Q92 107 70.50 156.50Q49 206 46 261Q44 302 44 349Q44 396 46 439Q48 494 70 543.50Q92 593 131.50 630Q171 667 228 688.50Q285 710 357 710Q427 710 483 689.50Q539 669 578 637.50Q617 606 639 568.50Q661 531 663 497Q664 488 657 481.50Q650 475 641 475L508 475Q493 475 484.50 484Q476 493 468 502Q454 520 430 535Q406 550 357 550M404 910Q415 910 423 906Q431 902 441 891L543 779Q548 774 548 766Q548 750 532 750L460 750Q450 750 444 753Q438 756 429 761L355 804L281 761Q272 756 266 753Q260 750 250 750L178 750Q162 750 162 766Q162 774 167 779L269 891Q279 902 287 906Q295 910 306 910L404 910Z"  horiz-adv-x="711" vert-adv-y="1000"  />

      
      <glyph glyph-name="uni0122" unicode="&#x0122;" d="M357 550Q323 550 300 540.50Q277 531 262.50 515Q248 499 241 478Q234 457 231 434Q229 421 228.50 398Q228 375 228 350.50Q228 326 229 302.50Q230 279 231 266Q233 243 240.50 222Q248 201 262.50 185Q277 169 300.50 159.50Q324 150 357 150Q383 150 406 156Q429 162 446 175Q463 188 473 209Q483 230 483 260L399 260Q388 260 380 268Q372 276 372 287L372 393Q372 404 380 412Q388 420 399 420L641 420Q652 420 660 412Q668 404 668 393L668 265Q668 201 644 150Q620 99 578 63.50Q536 28 479.50 9Q423-10 357-10Q285-10 228.50 11.50Q172 33 132 70Q92 107 70.50 156.50Q49 206 46 261Q44 302 44 349Q44 396 46 439Q48 494 70 543.50Q92 593 131.50 630Q171 667 228 688.50Q285 710 357 710Q427 710 483 689.50Q539 669 578 637.50Q617 606 639 568.50Q661 531 663 497Q664 488 657 481.50Q650 475 641 475L508 475Q493 475 484.50 484Q476 493 468 502Q454 520 430 535Q406 550 357 550M263-89Q265-75 275.50-62.50Q286-50 306-50L429-50Q438-50 444.50-56.50Q451-63 451-72Q451-76 450-79L395-218Q391-228 381.50-239Q372-250 352-250L263-250Q254-250 247.50-243.50Q241-237 241-228L241-226L263-89Z"  horiz-adv-x="711" vert-adv-y="1000"  />

      
      <glyph glyph-name="uni0120" unicode="&#x0120;" d="M357 550Q323 550 300 540.50Q277 531 262.50 515Q248 499 241 478Q234 457 231 434Q229 421 228.50 398Q228 375 228 350.50Q228 326 229 302.50Q230 279 231 266Q233 243 240.50 222Q248 201 262.50 185Q277 169 300.50 159.50Q324 150 357 150Q383 150 406 156Q429 162 446 175Q463 188 473 209Q483 230 483 260L399 260Q388 260 380 268Q372 276 372 287L372 393Q372 404 380 412Q388 420 399 420L641 420Q652 420 660 412Q668 404 668 393L668 265Q668 201 644 150Q620 99 578 63.50Q536 28 479.50 9Q423-10 357-10Q285-10 228.50 11.50Q172 33 132 70Q92 107 70.50 156.50Q49 206 46 261Q44 302 44 349Q44 396 46 439Q48 494 70 543.50Q92 593 131.50 630Q171 667 228 688.50Q285 710 357 710Q427 710 483 689.50Q539 669 578 637.50Q617 606 639 568.50Q661 531 663 497Q664 488 657 481.50Q650 475 641 475L508 475Q493 475 484.50 484Q476 493 468 502Q454 520 430 535Q406 550 357 550M438 777Q438 766 430 758Q422 750 411 750L300 750Q289 750 281 758Q273 766 273 777L273 888Q273 899 281 907Q289 915 300 915L411 915Q422 915 430 907Q438 899 438 888L438 777Z"  horiz-adv-x="711" vert-adv-y="1000"  />

      
      <glyph glyph-name="uni48" unicode="&#x48;" d="M635 700Q646 700 654 692Q662 684 662 673L662 27Q662 16 654 8Q646 0 635 0L504 0Q493 0 485 8Q477 16 477 27L477 272L255 272L255 27Q255 16 247 8Q239 0 228 0L97 0Q86 0 78 7.50Q70 15 70 27L70 673Q70 684 78 692Q86 700 97 700L228 700Q239 700 247 692Q255 684 255 673L255 432L477 432L477 673Q477 684 485 692Q493 700 504 700L635 700Z"  horiz-adv-x="732" vert-adv-y="1000"  />

      
      <glyph glyph-name="uni0126" unicode="&#x0126;" d="M635 700Q646 700 654 692Q662 684 662 673L662 27Q662 16 654 8Q646 0 635 0L504 0Q493 0 485 8Q477 16 477 27L477 272L255 272L255 27Q255 16 247 8Q239 0 228 0L97 0Q86 0 78 7.50Q70 15 70 27L70 673Q70 684 78 692Q86 700 97 700L228 700Q239 700 247 692Q255 684 255 673L255 634L477 634L477 673Q477 684 485 692Q493 700 504 700L635 700M477 432L477 499L255 499L255 432L477 432Z"  horiz-adv-x="732" vert-adv-y="1000"  />

      
      <glyph glyph-name="uni0124" unicode="&#x0124;" d="M635 700Q646 700 654 692Q662 684 662 673L662 27Q662 16 654 8Q646 0 635 0L504 0Q493 0 485 8Q477 16 477 27L477 272L255 272L255 27Q255 16 247 8Q239 0 228 0L97 0Q86 0 78 7.50Q70 15 70 27L70 673Q70 684 78 692Q86 700 97 700L228 700Q239 700 247 692Q255 684 255 673L255 432L477 432L477 673Q477 684 485 692Q493 700 504 700L635 700M415 910Q426 910 434 906Q442 902 452 891L554 779Q559 774 559 766Q559 750 543 750L471 750Q461 750 455 753Q449 756 440 761L366 804L292 761Q283 756 277 753Q271 750 261 750L189 750Q173 750 173 766Q173 774 178 779L280 891Q290 902 298 906Q306 910 317 910L415 910Z"  horiz-adv-x="732" vert-adv-y="1000"  />

      
      <glyph glyph-name="uni49" unicode="&#x49;" d="M97 0Q86 0 78 8Q70 16 70 27L70 673Q70 684 78 692Q86 700 97 700L228 700Q239 700 247 692Q255 684 255 673L255 27Q255 16 247 8Q239 0 228 0L97 0Z"  horiz-adv-x="325" vert-adv-y="1000"  />

      
      <glyph glyph-name="unicd" unicode="&#xcd;" d="M97 0Q86 0 78 8Q70 16 70 27L70 673Q70 684 78 692Q86 700 97 700L228 700Q239 700 247 692Q255 684 255 673L255 27Q255 16 247 8Q239 0 228 0L97 0M182 891Q193 904 200.50 907Q208 910 219 910L362 910Q381 910 381 890Q381 883 376 878L241 767Q233 760 224 755Q215 750 199 750L101 750Q85 750 85 766Q85 774 90 779L182 891Z"  horiz-adv-x="325" vert-adv-y="1000"  />

      
      <glyph glyph-name="uni012C" unicode="&#x012C;" d="M97 0Q86 0 78 8Q70 16 70 27L70 673Q70 684 78 692Q86 700 97 700L228 700Q239 700 247 692Q255 684 255 673L255 27Q255 16 247 8Q239 0 228 0L97 0M162 745Q116 745 84 758.50Q52 772 31.50 793.50Q11 815 2 841Q-7 867-7 891Q-7 899-2 904.50Q3 910 12 910L96 910Q105 910 110 904.50Q115 899 115 891Q115 872 127 856.50Q139 841 162 841Q185 841 197 856.50Q209 872 209 891Q209 899 214 904.50Q219 910 228 910L312 910Q321 910 326 904.50Q331 899 331 891Q331 867 322 841Q313 815 292.50 793.50Q272 772 240 758.50Q208 745 162 745Z"  horiz-adv-x="325" vert-adv-y="1000"  />

      
      <glyph glyph-name="unice" unicode="&#xce;" d="M97 0Q86 0 78 8Q70 16 70 27L70 673Q70 684 78 692Q86 700 97 700L228 700Q239 700 247 692Q255 684 255 673L255 27Q255 16 247 8Q239 0 228 0L97 0M211 910Q222 910 230 906Q238 902 248 891L350 779Q355 774 355 766Q355 750 339 750L267 750Q257 750 251 753Q245 756 236 761L162 804L88 761Q79 756 73 753Q67 750 57 750L-15 750Q-31 750-31 766Q-31 774-26 779L76 891Q86 902 94 906Q102 910 113 910L211 910Z"  horiz-adv-x="325" vert-adv-y="1000"  />

      
      <glyph glyph-name="unicf" unicode="&#xcf;" d="M97 0Q86 0 78 8Q70 16 70 27L70 673Q70 684 78 692Q86 700 97 700L228 700Q239 700 247 692Q255 684 255 673L255 27Q255 16 247 8Q239 0 228 0L97 0M112 777Q112 766 104 758Q96 750 85 750L-16 750Q-27 750-35 758Q-43 766-43 777L-43 878Q-43 889-35 897Q-27 905-16 905L85 905Q96 905 104 897Q112 889 112 878L112 777M367 777Q367 766 359 758Q351 750 340 750L239 750Q228 750 220 758Q212 766 212 777L212 878Q212 889 220 897Q228 905 239 905L340 905Q351 905 359 897Q367 889 367 878L367 777Z"  horiz-adv-x="325" vert-adv-y="1000"  />

      
      <glyph glyph-name="uni0130" unicode="&#x0130;" d="M97 0Q86 0 78 8Q70 16 70 27L70 673Q70 684 78 692Q86 700 97 700L228 700Q239 700 247 692Q255 684 255 673L255 27Q255 16 247 8Q239 0 228 0L97 0M245 777Q245 766 237 758Q229 750 218 750L107 750Q96 750 88 758Q80 766 80 777L80 888Q80 899 88 907Q96 915 107 915L218 915Q229 915 237 907Q245 899 245 888L245 777Z"  horiz-adv-x="325" vert-adv-y="1000"  />

      
      <glyph glyph-name="unicc" unicode="&#xcc;" d="M97 0Q86 0 78 8Q70 16 70 27L70 673Q70 684 78 692Q86 700 97 700L228 700Q239 700 247 692Q255 684 255 673L255 27Q255 16 247 8Q239 0 228 0L97 0M234 779Q239 774 239 766Q239 750 223 750L125 750Q109 750 100 755Q91 760 83 767L-52 878Q-57 883-57 890Q-57 910-38 910L105 910Q116 910 123.50 907Q131 904 142 891L234 779Z"  horiz-adv-x="325" vert-adv-y="1000"  />

      
      <glyph glyph-name="uni012A" unicode="&#x012A;" d="M97 0Q86 0 78 8Q70 16 70 27L70 673Q70 684 78 692Q86 700 97 700L228 700Q239 700 247 692Q255 684 255 673L255 27Q255 16 247 8Q239 0 228 0L97 0M3 750Q-8 750-16 758Q-24 766-24 777L-24 863Q-24 874-16 882Q-8 890 3 890L322 890Q333 890 341 882Q349 874 349 863L349 777Q349 766 341 758Q333 750 322 750L3 750Z"  horiz-adv-x="325" vert-adv-y="1000"  />

      
      <glyph glyph-name="uni012E" unicode="&#x012E;" d="M218 0Q192 0 178-16.50Q164-33 164-56Q164-79 178-95.50Q192-112 218-112L233-112Q255-112 255-134L255-198Q255-220 233-220L214-220Q176-220 146-207.50Q116-195 95-173.50Q74-152 63-122Q52-92 52-56Q52-10 70 26L70 673Q70 684 78 692Q86 700 97 700L228 700Q239 700 247 692Q255 684 255 673L255 27Q255 16 247 8Q239 0 228 0L218 0Z"  horiz-adv-x="325" vert-adv-y="1000"  />

      
      <glyph glyph-name="uni0128" unicode="&#x0128;" d="M97 0Q86 0 78 8Q70 16 70 27L70 673Q70 684 78 692Q86 700 97 700L228 700Q239 700 247 692Q255 684 255 673L255 27Q255 16 247 8Q239 0 228 0L97 0M249 745Q218 745 198 752Q178 759 163 767.50Q148 776 135.50 783Q123 790 107 790Q95 790 89 783.50Q83 777 78.50 769.50Q74 762 70 756Q66 750 58 750L-18 750Q-27 750-32 755.50Q-37 761-37 769Q-37 791-30.50 815.50Q-24 840-10 859.50Q4 879 25 892Q46 905 75 905Q106 905 126 898Q146 891 161 882.50Q176 874 188.50 867Q201 860 217 860Q229 860 235 866Q241 872 245.50 879.50Q250 887 254 893.50Q258 900 266 900L342 900Q351 900 356 894.50Q361 889 361 881Q361 858 353 834Q345 810 330 790.50Q315 771 294.50 758Q274 745 249 745Z"  horiz-adv-x="325" vert-adv-y="1000"  />

      
      <glyph glyph-name="uni4a" unicode="&#x4a;" d="M621 255Q621 189 597 139.50Q573 90 532 56.50Q491 23 437 6.50Q383-10 323-10Q258-10 204 7Q150 24 110.50 54.50Q71 85 48.50 128.50Q26 172 25 226Q25 235 31.50 241.50Q38 248 47 248L175 248Q194 248 200 242Q206 236 212 219Q224 185 249.50 167.50Q275 150 323 150Q380 150 408.50 178.50Q437 207 437 261L437 540L95 540Q84 540 76 548Q68 556 68 567L68 673Q68 684 76 692Q84 700 95 700L594 700Q605 700 613 692Q621 684 621 673L621 255Z"  horiz-adv-x="685" vert-adv-y="1000"  />

      
      <glyph glyph-name="uni0134" unicode="&#x0134;" d="M621 255Q621 189 597 139.50Q573 90 532 56.50Q491 23 437 6.50Q383-10 323-10Q258-10 204 7Q150 24 110.50 54.50Q71 85 48.50 128.50Q26 172 25 226Q25 235 31.50 241.50Q38 248 47 248L175 248Q194 248 200 242Q206 236 212 219Q224 185 249.50 167.50Q275 150 323 150Q380 150 408.50 178.50Q437 207 437 261L437 540L95 540Q84 540 76 548Q68 556 68 567L68 673Q68 684 76 692Q84 700 95 700L594 700Q605 700 613 692Q621 684 621 673L621 255M402 910Q413 910 421 906Q429 902 439 891L541 779Q546 774 546 766Q546 750 530 750L458 750Q448 750 442 753Q436 756 427 761L353 804L279 761Q270 756 264 753Q258 750 248 750L176 750Q160 750 160 766Q160 774 165 779L267 891Q277 902 285 906Q293 910 304 910L402 910Z"  horiz-adv-x="685" vert-adv-y="1000"  />

      
      <glyph glyph-name="uni4b" unicode="&#x4b;" d="M663 33Q666 29 666 22Q666 13 659.50 6.50Q653 0 644 0L485 0Q471 0 462 6Q453 12 444 23L255 261L255 27Q255 16 247 8Q239 0 228 0L97 0Q86 0 78 8Q70 16 70 27L70 673Q70 684 78 692Q86 700 97 700L228 700Q239 700 247 692Q255 684 255 673L255 462L431 678Q436 684 444 692Q452 700 471 700L627 700Q636 700 642.50 693.50Q649 687 649 678Q649 671 646 667L399 365L663 33Z"  horiz-adv-x="673" vert-adv-y="1000"  />

      
      <glyph glyph-name="uni0136" unicode="&#x0136;" d="M663 33Q666 29 666 22Q666 13 659.50 6.50Q653 0 644 0L485 0Q471 0 462 6Q453 12 444 23L255 261L255 27Q255 16 247 8Q239 0 228 0L97 0Q86 0 78 8Q70 16 70 27L70 673Q70 684 78 692Q86 700 97 700L228 700Q239 700 247 692Q255 684 255 673L255 462L431 678Q436 684 444 692Q452 700 471 700L627 700Q636 700 642.50 693.50Q649 687 649 678Q649 671 646 667L399 365L663 33M261-89Q263-75 273.50-62.50Q284-50 304-50L427-50Q436-50 442.50-56.50Q449-63 449-72Q449-76 448-79L393-218Q389-228 379.50-239Q370-250 350-250L261-250Q252-250 245.50-243.50Q239-237 239-228L239-226L261-89Z"  horiz-adv-x="673" vert-adv-y="1000"  />

      
      <glyph glyph-name="uni4c" unicode="&#x4c;" d="M560 160Q571 160 579 152Q587 144 587 133L587 27Q587 16 579 8Q571 0 560 0L97 0Q86 0 78 8Q70 16 70 27L70 673Q70 684 78 692Q86 700 97 700L228 700Q239 700 247 692Q255 684 255 673L255 160L560 160Z"  horiz-adv-x="603" vert-adv-y="1000"  />

      
      <glyph glyph-name="uni0139" unicode="&#x0139;" d="M560 160Q571 160 579 152Q587 144 587 133L587 27Q587 16 579 8Q571 0 560 0L97 0Q86 0 78 8Q70 16 70 27L70 673Q70 684 78 692Q86 700 97 700L228 700Q239 700 247 692Q255 684 255 673L255 160L560 160M184 891Q195 904 202.50 907Q210 910 221 910L364 910Q383 910 383 890Q383 883 378 878L243 767Q235 760 226 755Q217 750 201 750L103 750Q87 750 87 766Q87 774 92 779L184 891Z"  horiz-adv-x="603" vert-adv-y="1000"  />

      
      <glyph glyph-name="uni013D" unicode="&#x013D;" d="M560 160Q571 160 579 152Q587 144 587 133L587 27Q587 16 579 8Q571 0 560 0L97 0Q86 0 78 8Q70 16 70 27L70 673Q70 684 78 692Q86 700 97 700L228 700Q239 700 247 692Q255 684 255 673L255 160L560 160M348 671Q350 685 360.50 697.50Q371 710 391 710L514 710Q523 710 529.50 703.50Q536 697 536 688Q536 684 535 681L480 542Q476 532 466.50 521Q457 510 437 510L348 510Q339 510 332.50 516.50Q326 523 326 532L326 534L348 671Z"  horiz-adv-x="604" vert-adv-y="1000"  />

      
      <glyph glyph-name="uni013B" unicode="&#x013B;" d="M560 160Q571 160 579 152Q587 144 587 133L587 27Q587 16 579 8Q571 0 560 0L97 0Q86 0 78 8Q70 16 70 27L70 673Q70 684 78 692Q86 700 97 700L228 700Q239 700 247 692Q255 684 255 673L255 160L560 160M238-89Q240-75 250.50-62.50Q261-50 281-50L404-50Q413-50 419.50-56.50Q426-63 426-72Q426-76 425-79L370-218Q366-228 356.50-239Q347-250 327-250L238-250Q229-250 222.50-243.50Q216-237 216-228L216-226L238-89Z"  horiz-adv-x="603" vert-adv-y="1000"  />

      
      <glyph glyph-name="uni013F" unicode="&#x013F;" d="M560 160Q571 160 579 152Q587 144 587 133L587 27Q587 16 579 8Q571 0 560 0L97 0Q86 0 78 8Q70 16 70 27L70 673Q70 684 78 692Q86 700 97 700L228 700Q239 700 247 692Q255 684 255 673L255 160L560 160M507 334Q507 323 499 315Q491 307 480 307L349 307Q338 307 330 315Q322 323 322 334L322 465Q322 476 330 484Q338 492 349 492L480 492Q491 492 499 484Q507 476 507 465L507 334Z"  horiz-adv-x="604" vert-adv-y="1000"  />

      
      <glyph glyph-name="uni0141" unicode="&#x0141;" d="M567 160Q578 160 586 152Q594 144 594 133L594 27Q594 16 586 8Q578 0 567 0L104 0Q93 0 85 8Q77 16 77 27L77 252L49 241Q41 238 38 238Q29 238 23 244Q17 250 17 259L17 317Q17 342 39 350L77 365L77 673Q77 684 85 692Q93 700 104 700L235 700Q246 700 254 692Q262 684 262 673L262 437L396 490Q403 493 407 493Q416 493 422 487Q428 481 428 472L428 414Q428 389 406 381L262 324L262 160L567 160Z"  horiz-adv-x="610" vert-adv-y="1000"  />

      
      <glyph glyph-name="uni4d" unicode="&#x4d;" d="M386 168Q371 168 362.50 176.50Q354 185 349 193L255 358L255 27Q255 16 247 8Q239 0 228 0L97 0Q86 0 78 8Q70 16 70 27L70 673Q70 684 78 692Q86 700 97 700L213 700Q233 700 243 689Q253 678 256 673L418 396L580 673Q583 678 593 689Q603 700 623 700L739 700Q750 700 758 692Q766 684 766 673L766 27Q766 16 758 8Q750 0 739 0L608 0Q597 0 589 8Q581 16 581 27L581 358L487 193Q482 185 473.50 176.50Q465 168 450 168L386 168L386 168Z"  horiz-adv-x="836" vert-adv-y="1000"  />

      
      <glyph glyph-name="uni4e" unicode="&#x4e;" d="M525 0Q508 0 497.50 9Q487 18 484 23L255 365L255 27Q255 16 247 8Q239 0 228 0L97 0Q86 0 78 8Q70 16 70 27L70 673Q70 684 78 692Q86 700 97 700L201 700Q218 700 228.50 691Q239 682 242 677L471 335L471 673Q471 684 479 692Q487 700 498 700L629 700Q640 700 648 692Q656 684 656 673L656 27Q656 16 648 8Q640 0 629 0L525 0Z"  horiz-adv-x="726" vert-adv-y="1000"  />

      
      <glyph glyph-name="uni0143" unicode="&#x0143;" d="M525 0Q508 0 497.50 9Q487 18 484 23L255 365L255 27Q255 16 247 8Q239 0 228 0L97 0Q86 0 78 8Q70 16 70 27L70 673Q70 684 78 692Q86 700 97 700L201 700Q218 700 228.50 691Q239 682 242 677L471 335L471 673Q471 684 479 692Q487 700 498 700L629 700Q640 700 648 692Q656 684 656 673L656 27Q656 16 648 8Q640 0 629 0L525 0M387 891Q398 904 405.50 907Q413 910 424 910L567 910Q586 910 586 890Q586 883 581 878L446 767Q438 760 429 755Q420 750 404 750L306 750Q290 750 290 766Q290 774 295 779L387 891Z"  horiz-adv-x="726" vert-adv-y="1000"  />

      
      <glyph glyph-name="uni0147" unicode="&#x0147;" d="M525 0Q508 0 497.50 9Q487 18 484 23L255 365L255 27Q255 16 247 8Q239 0 228 0L97 0Q86 0 78 8Q70 16 70 27L70 673Q70 684 78 692Q86 700 97 700L201 700Q218 700 228.50 691Q239 682 242 677L471 335L471 673Q471 684 479 692Q487 700 498 700L629 700Q640 700 648 692Q656 684 656 673L656 27Q656 16 648 8Q640 0 629 0L525 0M314 750Q303 750 295 754Q287 758 277 769L175 881Q170 886 170 894Q170 910 186 910L258 910Q268 910 274 907Q280 904 289 899L363 856L437 899Q446 904 452 907Q458 910 468 910L540 910Q556 910 556 894Q556 886 551 881L449 769Q439 758 431 754Q423 750 412 750L314 750Z"  horiz-adv-x="726" vert-adv-y="1000"  />

      
      <glyph glyph-name="uni0145" unicode="&#x0145;" d="M525 0Q508 0 497.50 9Q487 18 484 23L255 365L255 27Q255 16 247 8Q239 0 228 0L97 0Q86 0 78 8Q70 16 70 27L70 673Q70 684 78 692Q86 700 97 700L201 700Q218 700 228.50 691Q239 682 242 677L471 335L471 673Q471 684 479 692Q487 700 498 700L629 700Q640 700 648 692Q656 684 656 673L656 27Q656 16 648 8Q640 0 629 0L525 0M269-89Q271-75 281.50-62.50Q292-50 312-50L435-50Q444-50 450.50-56.50Q457-63 457-72Q457-76 456-79L401-218Q397-228 387.50-239Q378-250 358-250L269-250Q260-250 253.50-243.50Q247-237 247-228L247-226L269-89Z"  horiz-adv-x="726" vert-adv-y="1000"  />

      
      <glyph glyph-name="unid1" unicode="&#xd1;" d="M525 0Q508 0 497.50 9Q487 18 484 23L255 365L255 27Q255 16 247 8Q239 0 228 0L97 0Q86 0 78 8Q70 16 70 27L70 673Q70 684 78 692Q86 700 97 700L201 700Q218 700 228.50 691Q239 682 242 677L471 335L471 673Q471 684 479 692Q487 700 498 700L629 700Q640 700 648 692Q656 684 656 673L656 27Q656 16 648 8Q640 0 629 0L525 0M450 745Q419 745 399 752Q379 759 364 767.50Q349 776 336.50 783Q324 790 308 790Q296 790 290 783.50Q284 777 279.50 769.50Q275 762 271 756Q267 750 259 750L183 750Q174 750 169 755.50Q164 761 164 769Q164 791 170.50 815.50Q177 840 191 859.50Q205 879 226 892Q247 905 276 905Q307 905 327 898Q347 891 362 882.50Q377 874 389.50 867Q402 860 418 860Q430 860 436 866Q442 872 446.50 879.50Q451 887 455 893.50Q459 900 467 900L543 900Q552 900 557 894.50Q562 889 562 881Q562 858 554 834Q546 810 531 790.50Q516 771 495.50 758Q475 745 450 745Z"  horiz-adv-x="726" vert-adv-y="1000"  />

      
      <glyph glyph-name="uni4f" unicode="&#x4f;" d="M47 439Q50 495 71.50 544.50Q93 594 132.50 630.50Q172 667 228.50 688.50Q285 710 359 710Q432 710 489 688.50Q546 667 585.50 630.50Q625 594 646.50 544.50Q668 495 671 439Q673 396 673 349Q673 302 671 261Q668 205 646.50 155.50Q625 106 585.50 69Q546 32 489 11Q432-10 359-10Q285-10 228.50 11Q172 32 132.50 69Q93 106 71.50 155.50Q50 205 47 261Q45 302 45 349Q45 396 47 439M486 266Q487 284 488 306Q489 328 489 351Q489 374 488 395.50Q487 417 486 434Q484 459 475.50 480Q467 501 451.50 516.50Q436 532 413 541Q390 550 359 550Q328 550 305 541Q282 532 266.50 516.50Q251 501 242.50 480Q234 459 232 434Q230 417 229.50 395.50Q229 374 229 351Q229 328 229.50 306Q230 284 232 266Q236 216 266.50 183Q297 150 359 150Q421 150 451 183Q481 216 486 266Z"  horiz-adv-x="718" vert-adv-y="1000"  />

      
      <glyph glyph-name="unid3" unicode="&#xd3;" d="M47 439Q50 495 71.50 544.50Q93 594 132.50 630.50Q172 667 228.50 688.50Q285 710 359 710Q432 710 489 688.50Q546 667 585.50 630.50Q625 594 646.50 544.50Q668 495 671 439Q673 396 673 349Q673 302 671 261Q668 205 646.50 155.50Q625 106 585.50 69Q546 32 489 11Q432-10 359-10Q285-10 228.50 11Q172 32 132.50 69Q93 106 71.50 155.50Q50 205 47 261Q45 302 45 349Q45 396 47 439M486 266Q487 284 488 306Q489 328 489 351Q489 374 488 395.50Q487 417 486 434Q484 459 475.50 480Q467 501 451.50 516.50Q436 532 413 541Q390 550 359 550Q328 550 305 541Q282 532 266.50 516.50Q251 501 242.50 480Q234 459 232 434Q230 417 229.50 395.50Q229 374 229 351Q229 328 229.50 306Q230 284 232 266Q236 216 266.50 183Q297 150 359 150Q421 150 451 183Q481 216 486 266M373 891Q384 904 391.50 907Q399 910 410 910L553 910Q572 910 572 890Q572 883 567 878L432 767Q424 760 415 755Q406 750 390 750L292 750Q276 750 276 766Q276 774 281 779L373 891Z"  horiz-adv-x="718" vert-adv-y="1000"  />

      
      <glyph glyph-name="uni014E" unicode="&#x014E;" d="M47 439Q50 495 71.50 544.50Q93 594 132.50 630.50Q172 667 228.50 688.50Q285 710 359 710Q432 710 489 688.50Q546 667 585.50 630.50Q625 594 646.50 544.50Q668 495 671 439Q673 396 673 349Q673 302 671 261Q668 205 646.50 155.50Q625 106 585.50 69Q546 32 489 11Q432-10 359-10Q285-10 228.50 11Q172 32 132.50 69Q93 106 71.50 155.50Q50 205 47 261Q45 302 45 349Q45 396 47 439M486 266Q487 284 488 306Q489 328 489 351Q489 374 488 395.50Q487 417 486 434Q484 459 475.50 480Q467 501 451.50 516.50Q436 532 413 541Q390 550 359 550Q328 550 305 541Q282 532 266.50 516.50Q251 501 242.50 480Q234 459 232 434Q230 417 229.50 395.50Q229 374 229 351Q229 328 229.50 306Q230 284 232 266Q236 216 266.50 183Q297 150 359 150Q421 150 451 183Q481 216 486 266M359 745Q313 745 281 758.50Q249 772 228.50 793.50Q208 815 199 841Q190 867 190 891Q190 899 195 904.50Q200 910 209 910L293 910Q302 910 307 904.50Q312 899 312 891Q312 872 324 856.50Q336 841 359 841Q382 841 394 856.50Q406 872 406 891Q406 899 411 904.50Q416 910 425 910L509 910Q518 910 523 904.50Q528 899 528 891Q528 867 519 841Q510 815 489.50 793.50Q469 772 437 758.50Q405 745 359 745Z"  horiz-adv-x="718" vert-adv-y="1000"  />

      
      <glyph glyph-name="unid4" unicode="&#xd4;" d="M47 439Q50 495 71.50 544.50Q93 594 132.50 630.50Q172 667 228.50 688.50Q285 710 359 710Q432 710 489 688.50Q546 667 585.50 630.50Q625 594 646.50 544.50Q668 495 671 439Q673 396 673 349Q673 302 671 261Q668 205 646.50 155.50Q625 106 585.50 69Q546 32 489 11Q432-10 359-10Q285-10 228.50 11Q172 32 132.50 69Q93 106 71.50 155.50Q50 205 47 261Q45 302 45 349Q45 396 47 439M486 266Q487 284 488 306Q489 328 489 351Q489 374 488 395.50Q487 417 486 434Q484 459 475.50 480Q467 501 451.50 516.50Q436 532 413 541Q390 550 359 550Q328 550 305 541Q282 532 266.50 516.50Q251 501 242.50 480Q234 459 232 434Q230 417 229.50 395.50Q229 374 229 351Q229 328 229.50 306Q230 284 232 266Q236 216 266.50 183Q297 150 359 150Q421 150 451 183Q481 216 486 266M408 910Q419 910 427 906Q435 902 445 891L547 779Q552 774 552 766Q552 750 536 750L464 750Q454 750 448 753Q442 756 433 761L359 804L285 761Q276 756 270 753Q264 750 254 750L182 750Q166 750 166 766Q166 774 171 779L273 891Q283 902 291 906Q299 910 310 910L408 910Z"  horiz-adv-x="718" vert-adv-y="1000"  />

      
      <glyph glyph-name="unid6" unicode="&#xd6;" d="M47 439Q50 495 71.50 544.50Q93 594 132.50 630.50Q172 667 228.50 688.50Q285 710 359 710Q432 710 489 688.50Q546 667 585.50 630.50Q625 594 646.50 544.50Q668 495 671 439Q673 396 673 349Q673 302 671 261Q668 205 646.50 155.50Q625 106 585.50 69Q546 32 489 11Q432-10 359-10Q285-10 228.50 11Q172 32 132.50 69Q93 106 71.50 155.50Q50 205 47 261Q45 302 45 349Q45 396 47 439M486 266Q487 284 488 306Q489 328 489 351Q489 374 488 395.50Q487 417 486 434Q484 459 475.50 480Q467 501 451.50 516.50Q436 532 413 541Q390 550 359 550Q328 550 305 541Q282 532 266.50 516.50Q251 501 242.50 480Q234 459 232 434Q230 417 229.50 395.50Q229 374 229 351Q229 328 229.50 306Q230 284 232 266Q236 216 266.50 183Q297 150 359 150Q421 150 451 183Q481 216 486 266M309 777Q309 766 301 758Q293 750 282 750L181 750Q170 750 162 758Q154 766 154 777L154 878Q154 889 162 897Q170 905 181 905L282 905Q293 905 301 897Q309 889 309 878L309 777M564 777Q564 766 556 758Q548 750 537 750L436 750Q425 750 417 758Q409 766 409 777L409 878Q409 889 417 897Q425 905 436 905L537 905Q548 905 556 897Q564 889 564 878L564 777Z"  horiz-adv-x="718" vert-adv-y="1000"  />

      
      <glyph glyph-name="unid2" unicode="&#xd2;" d="M47 439Q50 495 71.50 544.50Q93 594 132.50 630.50Q172 667 228.50 688.50Q285 710 359 710Q432 710 489 688.50Q546 667 585.50 630.50Q625 594 646.50 544.50Q668 495 671 439Q673 396 673 349Q673 302 671 261Q668 205 646.50 155.50Q625 106 585.50 69Q546 32 489 11Q432-10 359-10Q285-10 228.50 11Q172 32 132.50 69Q93 106 71.50 155.50Q50 205 47 261Q45 302 45 349Q45 396 47 439M486 266Q487 284 488 306Q489 328 489 351Q489 374 488 395.50Q487 417 486 434Q484 459 475.50 480Q467 501 451.50 516.50Q436 532 413 541Q390 550 359 550Q328 550 305 541Q282 532 266.50 516.50Q251 501 242.50 480Q234 459 232 434Q230 417 229.50 395.50Q229 374 229 351Q229 328 229.50 306Q230 284 232 266Q236 216 266.50 183Q297 150 359 150Q421 150 451 183Q481 216 486 266M423 779Q428 774 428 766Q428 750 412 750L314 750Q298 750 289 755Q280 760 272 767L137 878Q132 883 132 890Q132 910 151 910L294 910Q305 910 312.50 907Q320 904 331 891L423 779Z"  horiz-adv-x="718" vert-adv-y="1000"  />

      
      <glyph glyph-name="uni0150" unicode="&#x0150;" d="M47 439Q50 495 71.50 544.50Q93 594 132.50 630.50Q172 667 228.50 688.50Q285 710 359 710Q432 710 489 688.50Q546 667 585.50 630.50Q625 594 646.50 544.50Q668 495 671 439Q673 396 673 349Q673 302 671 261Q668 205 646.50 155.50Q625 106 585.50 69Q546 32 489 11Q432-10 359-10Q285-10 228.50 11Q172 32 132.50 69Q93 106 71.50 155.50Q50 205 47 261Q45 302 45 349Q45 396 47 439M486 266Q487 284 488 306Q489 328 489 351Q489 374 488 395.50Q487 417 486 434Q484 459 475.50 480Q467 501 451.50 516.50Q436 532 413 541Q390 550 359 550Q328 550 305 541Q282 532 266.50 516.50Q251 501 242.50 480Q234 459 232 434Q230 417 229.50 395.50Q229 374 229 351Q229 328 229.50 306Q230 284 232 266Q236 216 266.50 183Q297 150 359 150Q421 150 451 183Q481 216 486 266M228 891Q233 901 241 905.50Q249 910 265 910L387 910Q407 910 407 891Q407 884 401 878L296 764Q284 750 262 750L189 750Q173 750 173 766Q173 770 174.50 774Q176 778 178 781L228 891M459 891Q464 901 472 905.50Q480 910 496 910L618 910Q638 910 638 891Q638 884 632 878L527 764Q515 750 493 750L420 750Q404 750 404 766Q404 770 405.50 774Q407 778 409 781L459 891Z"  horiz-adv-x="718" vert-adv-y="1000"  />

      
      <glyph glyph-name="uni014C" unicode="&#x014C;" d="M47 439Q50 495 71.50 544.50Q93 594 132.50 630.50Q172 667 228.50 688.50Q285 710 359 710Q432 710 489 688.50Q546 667 585.50 630.50Q625 594 646.50 544.50Q668 495 671 439Q673 396 673 349Q673 302 671 261Q668 205 646.50 155.50Q625 106 585.50 69Q546 32 489 11Q432-10 359-10Q285-10 228.50 11Q172 32 132.50 69Q93 106 71.50 155.50Q50 205 47 261Q45 302 45 349Q45 396 47 439M486 266Q487 284 488 306Q489 328 489 351Q489 374 488 395.50Q487 417 486 434Q484 459 475.50 480Q467 501 451.50 516.50Q436 532 413 541Q390 550 359 550Q328 550 305 541Q282 532 266.50 516.50Q251 501 242.50 480Q234 459 232 434Q230 417 229.50 395.50Q229 374 229 351Q229 328 229.50 306Q230 284 232 266Q236 216 266.50 183Q297 150 359 150Q421 150 451 183Q481 216 486 266M200 750Q189 750 181 758Q173 766 173 777L173 863Q173 874 181 882Q189 890 200 890L519 890Q530 890 538 882Q546 874 546 863L546 777Q546 766 538 758Q530 750 519 750L200 750Z"  horiz-adv-x="718" vert-adv-y="1000"  />

      
      <glyph glyph-name="unid8" unicode="&#xd8;" d="M66 439Q69 495 90.50 544.50Q112 594 151.50 630.50Q191 667 247.50 688.50Q304 710 378 710Q438 710 486.50 696Q535 682 572.50 656.50Q610 631 635.50 596Q661 561 675 519L710 533Q717 536 721 536Q730 536 736 530Q742 524 742 515L742 457Q742 432 720 424L691 413Q693 375 692.50 335.50Q692 296 690 261Q687 205 665.50 155.50Q644 106 604.50 69Q565 32 508 11Q451-10 378-10Q318-10 269.50 4Q221 18 183.50 43Q146 68 120.50 102.50Q95 137 81 178L46 165Q38 162 35 162Q26 162 20 168Q14 174 14 183L14 241Q14 266 36 274L64 285Q62 322 63 362Q64 402 66 439M251 434Q248 401 248 355L502 453Q494 495 464.50 522.50Q435 550 378 550Q347 550 324 541Q301 532 285.50 516.50Q270 501 261.50 480Q253 459 251 434M505 266Q507 282 507.50 302Q508 322 508 342L254 245Q263 203 292.50 176.50Q322 150 378 150Q440 150 470 183Q500 216 505 266Z"  horiz-adv-x="756" vert-adv-y="1000"  />

      
      <glyph glyph-name="uni01FE" unicode="&#x01FE;" d="M399 891Q410 904 417.50 907Q425 910 436 910L579 910Q598 910 598 890Q598 883 593 878L458 767Q450 760 441 755Q432 750 416 750L318 750Q302 750 302 766Q302 774 307 779L399 891M66 439Q69 495 90.50 544.50Q112 594 151.50 630.50Q191 667 247.50 688.50Q304 710 378 710Q438 710 486.50 696Q535 682 572.50 656.50Q610 631 635.50 596Q661 561 675 519L710 533Q717 536 721 536Q730 536 736 530Q742 524 742 515L742 457Q742 432 720 424L691 413Q693 375 692.50 335.50Q692 296 690 261Q687 205 665.50 155.50Q644 106 604.50 69Q565 32 508 11Q451-10 378-10Q318-10 269.50 4Q221 18 183.50 43Q146 68 120.50 102.50Q95 137 81 178L46 165Q38 162 35 162Q26 162 20 168Q14 174 14 183L14 241Q14 266 36 274L64 285Q62 322 63 362Q64 402 66 439M251 434Q248 401 248 355L502 453Q494 495 464.50 522.50Q435 550 378 550Q347 550 324 541Q301 532 285.50 516.50Q270 501 261.50 480Q253 459 251 434M505 266Q507 282 507.50 302Q508 322 508 342L254 245Q263 203 292.50 176.50Q322 150 378 150Q440 150 470 183Q500 216 505 266Z"  horiz-adv-x="756" vert-adv-y="1000"  />

      
      <glyph glyph-name="unid5" unicode="&#xd5;" d="M47 439Q50 495 71.50 544.50Q93 594 132.50 630.50Q172 667 228.50 688.50Q285 710 359 710Q432 710 489 688.50Q546 667 585.50 630.50Q625 594 646.50 544.50Q668 495 671 439Q673 396 673 349Q673 302 671 261Q668 205 646.50 155.50Q625 106 585.50 69Q546 32 489 11Q432-10 359-10Q285-10 228.50 11Q172 32 132.50 69Q93 106 71.50 155.50Q50 205 47 261Q45 302 45 349Q45 396 47 439M486 266Q487 284 488 306Q489 328 489 351Q489 374 488 395.50Q487 417 486 434Q484 459 475.50 480Q467 501 451.50 516.50Q436 532 413 541Q390 550 359 550Q328 550 305 541Q282 532 266.50 516.50Q251 501 242.50 480Q234 459 232 434Q230 417 229.50 395.50Q229 374 229 351Q229 328 229.50 306Q230 284 232 266Q236 216 266.50 183Q297 150 359 150Q421 150 451 183Q481 216 486 266M446 745Q415 745 395 752Q375 759 360 767.50Q345 776 332.50 783Q320 790 304 790Q292 790 286 783.50Q280 777 275.50 769.50Q271 762 267 756Q263 750 255 750L179 750Q170 750 165 755.50Q160 761 160 769Q160 791 166.50 815.50Q173 840 187 859.50Q201 879 222 892Q243 905 272 905Q303 905 323 898Q343 891 358 882.50Q373 874 385.50 867Q398 860 414 860Q426 860 432 866Q438 872 442.50 879.50Q447 887 451 893.50Q455 900 463 900L539 900Q548 900 553 894.50Q558 889 558 881Q558 858 550 834Q542 810 527 790.50Q512 771 491.50 758Q471 745 446 745Z"  horiz-adv-x="718" vert-adv-y="1000"  />

      
      <glyph glyph-name="uni0152" unicode="&#x0152;" d="M909 160Q920 160 928 152Q936 144 936 133L936 27Q936 16 928 8Q920 0 909 0L356 0Q287 0 231 20.50Q175 41 134.50 78Q94 115 71 166Q48 217 45 279Q44 299 43.50 316Q43 333 43 349Q43 365 43.50 382.50Q44 400 45 421Q48 482 71.50 533.50Q95 585 136.50 622Q178 659 235 679.50Q292 700 361 700L901 700Q912 700 920 692Q928 684 928 673L928 567Q928 556 920 548Q912 540 901 540L623 540L623 432L879 432Q890 432 898 424Q906 416 906 405L906 299Q906 288 898 280Q890 272 879 272L623 272L623 160L909 160M230 425Q229 404 228.50 386Q228 368 228 350.50Q228 333 228.50 314.50Q229 296 230 275Q235 160 361 160L438 160L438 540L366 540Q236 540 230 425Z"  horiz-adv-x="982" vert-adv-y="1000"  />

      
      <glyph glyph-name="uni50" unicode="&#x50;" d="M383 700Q447 700 498 685.50Q549 671 585 641.50Q621 612 640.50 568Q660 524 660 466Q660 407 640.50 363Q621 319 585 290Q549 261 498 246Q447 231 383 231L255 231L255 27Q255 16 247 8Q239 0 228 0L97 0Q86 0 78 8Q70 16 70 27L70 673Q70 684 78 692Q86 700 97 700L383 700M255 387L378 387Q420 387 447.50 405.50Q475 424 475 466Q475 508 447.50 526.50Q420 545 378 545L255 545L255 387Z"  horiz-adv-x="686" vert-adv-y="1000"  />

      
      <glyph glyph-name="uni51" unicode="&#x51;" d="M47 439Q50 495 71.50 544.50Q93 594 132.50 630.50Q172 667 228.50 688.50Q285 710 359 710Q432 710 489 688.50Q546 667 585.50 630.50Q625 594 646.50 544.50Q668 495 671 439Q673 396 673 349Q673 302 671 261Q668 208 649.50 162Q631 116 597 80L676-34Q677-36 678-38.50Q679-41 679-43Q681-52 674.50-58.50Q668-65 659-65L518-65Q499-65 490-56.50Q481-48 476-42L448 0Q427-5 405-7.50Q383-10 359-10Q285-10 228.50 11Q172 32 132.50 69Q93 106 71.50 155.50Q50 205 47 261Q45 302 45 349Q45 396 47 439M486 266Q487 284 488 306Q489 328 489 351Q489 374 488 395.50Q487 417 486 434Q484 459 475.50 480Q467 501 451.50 516.50Q436 532 413 541Q390 550 359 550Q328 550 305 541Q282 532 266.50 516.50Q251 501 242.50 480Q234 459 232 434Q230 417 229.50 395.50Q229 374 229 351Q229 328 229.50 306Q230 284 232 266Q236 216 266.50 183Q297 150 359 150Q421 150 451 183Q481 216 486 266Z"  horiz-adv-x="718" vert-adv-y="1000"  />

      
      <glyph glyph-name="uni52" unicode="&#x52;" d="M368 700Q434 700 486 686Q538 672 574.50 644Q611 616 630.50 572.50Q650 529 650 471Q650 396 619 346.50Q588 297 531 271L655 33Q658 27 658 22Q658 13 651.50 6.50Q645 0 636 0L500 0Q480 0 471.50 9Q463 18 458 27L347 241L255 241L255 27Q255 16 247 8Q239 0 228 0L97 0Q86 0 78 8Q70 16 70 27L70 673Q70 684 78 692Q86 700 97 700L368 700M255 397L368 397Q410 397 437.50 413Q465 429 465 471Q465 513 437.50 529Q410 545 368 545L255 545L255 397Z"  horiz-adv-x="695" vert-adv-y="1000"  />

      
      <glyph glyph-name="uni0154" unicode="&#x0154;" d="M368 700Q434 700 486 686Q538 672 574.50 644Q611 616 630.50 572.50Q650 529 650 471Q650 396 619 346.50Q588 297 531 271L655 33Q658 27 658 22Q658 13 651.50 6.50Q645 0 636 0L500 0Q480 0 471.50 9Q463 18 458 27L347 241L255 241L255 27Q255 16 247 8Q239 0 228 0L97 0Q86 0 78 8Q70 16 70 27L70 673Q70 684 78 692Q86 700 97 700L368 700M255 397L368 397Q410 397 437.50 413Q465 429 465 471Q465 513 437.50 529Q410 545 368 545L255 545L255 397M363 891Q374 904 381.50 907Q389 910 400 910L543 910Q562 910 562 890Q562 883 557 878L422 767Q414 760 405 755Q396 750 380 750L282 750Q266 750 266 766Q266 774 271 779L363 891Z"  horiz-adv-x="695" vert-adv-y="1000"  />

      
      <glyph glyph-name="uni0158" unicode="&#x0158;" d="M368 700Q434 700 486 686Q538 672 574.50 644Q611 616 630.50 572.50Q650 529 650 471Q650 396 619 346.50Q588 297 531 271L655 33Q658 27 658 22Q658 13 651.50 6.50Q645 0 636 0L500 0Q480 0 471.50 9Q463 18 458 27L347 241L255 241L255 27Q255 16 247 8Q239 0 228 0L97 0Q86 0 78 8Q70 16 70 27L70 673Q70 684 78 692Q86 700 97 700L368 700M255 397L368 397Q410 397 437.50 413Q465 429 465 471Q465 513 437.50 529Q410 545 368 545L255 545L255 397M295 750Q284 750 276 754Q268 758 258 769L156 881Q151 886 151 894Q151 910 167 910L239 910Q249 910 255 907Q261 904 270 899L344 856L418 899Q427 904 433 907Q439 910 449 910L521 910Q537 910 537 894Q537 886 532 881L430 769Q420 758 412 754Q404 750 393 750L295 750Z"  horiz-adv-x="695" vert-adv-y="1000"  />

      
      <glyph glyph-name="uni0156" unicode="&#x0156;" d="M368 700Q434 700 486 686Q538 672 574.50 644Q611 616 630.50 572.50Q650 529 650 471Q650 396 619 346.50Q588 297 531 271L655 33Q658 27 658 22Q658 13 651.50 6.50Q645 0 636 0L500 0Q480 0 471.50 9Q463 18 458 27L347 241L255 241L255 27Q255 16 247 8Q239 0 228 0L97 0Q86 0 78 8Q70 16 70 27L70 673Q70 684 78 692Q86 700 97 700L368 700M255 397L368 397Q410 397 437.50 413Q465 429 465 471Q465 513 437.50 529Q410 545 368 545L255 545L255 397M251-89Q253-75 263.50-62.50Q274-50 294-50L417-50Q426-50 432.50-56.50Q439-63 439-72Q439-76 438-79L383-218Q379-228 369.50-239Q360-250 340-250L251-250Q242-250 235.50-243.50Q229-237 229-228L229-226L251-89Z"  horiz-adv-x="695" vert-adv-y="1000"  />

      
      <glyph glyph-name="uni53" unicode="&#x53;" d="M330 710Q394 710 447.50 691.50Q501 673 540 644Q579 615 601 580Q623 545 624 513Q624 504 617.50 497.50Q611 491 603 491L472 491Q458 491 449.50 495Q441 499 432 507Q429 510 422.50 517Q416 524 404 531.50Q392 539 374 544.50Q356 550 330 550Q311 550 293.50 547.50Q276 545 262.50 539.50Q249 534 240.50 524Q232 514 232 499Q232 484 241.50 474Q251 464 273.50 455.50Q296 447 333 439Q370 431 425 420Q480 409 521 392Q562 375 589.50 349.50Q617 324 630.50 289.50Q644 255 644 208Q644 157 621 117Q598 77 556.50 48.50Q515 20 458.50 5Q402-10 335-10Q267-10 211 8Q155 26 114.50 55.50Q74 85 51 122Q28 159 27 197Q27 206 33.50 212.50Q40 219 48 219L179 219Q193 219 201 215.50Q209 212 217 205Q221 201 229 192Q237 183 250.50 173.50Q264 164 284.50 157Q305 150 335 150Q388 150 423.50 161.50Q459 173 459 203Q459 218 446 228Q433 238 407 246.50Q381 255 340.50 263Q300 271 245 283Q142 305 94.50 356.50Q47 408 47 494Q47 537 66.50 576Q86 615 123 645Q160 675 212.50 692.50Q265 710 330 710Z"  horiz-adv-x="674" vert-adv-y="1000"  />

      
      <glyph glyph-name="uni015A" unicode="&#x015A;" d="M330 710Q394 710 447.50 691.50Q501 673 540 644Q579 615 601 580Q623 545 624 513Q624 504 617.50 497.50Q611 491 603 491L472 491Q458 491 449.50 495Q441 499 432 507Q429 510 422.50 517Q416 524 404 531.50Q392 539 374 544.50Q356 550 330 550Q311 550 293.50 547.50Q276 545 262.50 539.50Q249 534 240.50 524Q232 514 232 499Q232 484 241.50 474Q251 464 273.50 455.50Q296 447 333 439Q370 431 425 420Q480 409 521 392Q562 375 589.50 349.50Q617 324 630.50 289.50Q644 255 644 208Q644 157 621 117Q598 77 556.50 48.50Q515 20 458.50 5Q402-10 335-10Q267-10 211 8Q155 26 114.50 55.50Q74 85 51 122Q28 159 27 197Q27 206 33.50 212.50Q40 219 48 219L179 219Q193 219 201 215.50Q209 212 217 205Q221 201 229 192Q237 183 250.50 173.50Q264 164 284.50 157Q305 150 335 150Q388 150 423.50 161.50Q459 173 459 203Q459 218 446 228Q433 238 407 246.50Q381 255 340.50 263Q300 271 245 283Q142 305 94.50 356.50Q47 408 47 494Q47 537 66.50 576Q86 615 123 645Q160 675 212.50 692.50Q265 710 330 710M358 891Q369 904 376.50 907Q384 910 395 910L538 910Q557 910 557 890Q557 883 552 878L417 767Q409 760 400 755Q391 750 375 750L277 750Q261 750 261 766Q261 774 266 779L358 891Z"  horiz-adv-x="674" vert-adv-y="1000"  />

      
      <glyph glyph-name="uni0160" unicode="&#x0160;" d="M330 710Q394 710 447.50 691.50Q501 673 540 644Q579 615 601 580Q623 545 624 513Q624 504 617.50 497.50Q611 491 603 491L472 491Q458 491 449.50 495Q441 499 432 507Q429 510 422.50 517Q416 524 404 531.50Q392 539 374 544.50Q356 550 330 550Q311 550 293.50 547.50Q276 545 262.50 539.50Q249 534 240.50 524Q232 514 232 499Q232 484 241.50 474Q251 464 273.50 455.50Q296 447 333 439Q370 431 425 420Q480 409 521 392Q562 375 589.50 349.50Q617 324 630.50 289.50Q644 255 644 208Q644 157 621 117Q598 77 556.50 48.50Q515 20 458.50 5Q402-10 335-10Q267-10 211 8Q155 26 114.50 55.50Q74 85 51 122Q28 159 27 197Q27 206 33.50 212.50Q40 219 48 219L179 219Q193 219 201 215.50Q209 212 217 205Q221 201 229 192Q237 183 250.50 173.50Q264 164 284.50 157Q305 150 335 150Q388 150 423.50 161.50Q459 173 459 203Q459 218 446 228Q433 238 407 246.50Q381 255 340.50 263Q300 271 245 283Q142 305 94.50 356.50Q47 408 47 494Q47 537 66.50 576Q86 615 123 645Q160 675 212.50 692.50Q265 710 330 710M286 750Q275 750 267 754Q259 758 249 769L147 881Q142 886 142 894Q142 910 158 910L230 910Q240 910 246 907Q252 904 261 899L335 856L409 899Q418 904 424 907Q430 910 440 910L512 910Q528 910 528 894Q528 886 523 881L421 769Q411 758 403 754Q395 750 384 750L286 750Z"  horiz-adv-x="674" vert-adv-y="1000"  />

      
      <glyph glyph-name="uni015E" unicode="&#x015E;" d="M330 710Q394 710 447.50 691.50Q501 673 540 644Q579 615 601 580Q623 545 624 513Q624 504 617.50 497.50Q611 491 603 491L472 491Q458 491 449.50 495Q441 499 432 507Q429 510 422.50 517Q416 524 404 531.50Q392 539 374 544.50Q356 550 330 550Q311 550 293.50 547.50Q276 545 262.50 539.50Q249 534 240.50 524Q232 514 232 499Q232 484 241.50 474Q251 464 273.50 455.50Q296 447 333 439Q370 431 425 420Q480 409 521 392Q562 375 589.50 349.50Q617 324 630.50 289.50Q644 255 644 208Q644 158 621.50 118Q599 78 559 50Q519 22 464 6.50Q409-9 343-10L322-54Q328-50 338-47Q348-44 359-44Q397-44 416-70Q435-96 435-132Q435-168 408-194Q381-220 336-220Q320-220 302.50-215Q285-210 272.50-202Q260-194 255-185.50Q250-177 259-169L277-153Q285-146 290.50-146Q296-146 301.50-149Q307-152 315-155.50Q323-159 336-159Q350-159 359.50-153Q369-147 369-132Q369-118 360-111.50Q351-105 336-105Q329-105 321.50-107Q314-109 307-110.50Q300-112 293.50-111.50Q287-111 282-106L264-85Q258-77 256.50-71.50Q255-66 262-52L283-7Q226 0 179 20Q132 40 98.50 68Q65 96 46.50 129.50Q28 163 27 197Q27 206 33.50 212.50Q40 219 48 219L179 219Q193 219 201 215.50Q209 212 217 205Q221 201 229 192Q237 183 250.50 173.50Q264 164 284.50 157Q305 150 335 150Q388 150 423.50 161.50Q459 173 459 203Q459 218 446 228Q433 238 407 246.50Q381 255 340.50 263Q300 271 245 283Q142 305 94.50 356.50Q47 408 47 494Q47 537 66.50 576Q86 615 123 645Q160 675 212.50 692.50Q265 710 330 710Z"  horiz-adv-x="674" vert-adv-y="1000"  />

      
      <glyph glyph-name="uni015C" unicode="&#x015C;" d="M330 710Q394 710 447.50 691.50Q501 673 540 644Q579 615 601 580Q623 545 624 513Q624 504 617.50 497.50Q611 491 603 491L472 491Q458 491 449.50 495Q441 499 432 507Q429 510 422.50 517Q416 524 404 531.50Q392 539 374 544.50Q356 550 330 550Q311 550 293.50 547.50Q276 545 262.50 539.50Q249 534 240.50 524Q232 514 232 499Q232 484 241.50 474Q251 464 273.50 455.50Q296 447 333 439Q370 431 425 420Q480 409 521 392Q562 375 589.50 349.50Q617 324 630.50 289.50Q644 255 644 208Q644 157 621 117Q598 77 556.50 48.50Q515 20 458.50 5Q402-10 335-10Q267-10 211 8Q155 26 114.50 55.50Q74 85 51 122Q28 159 27 197Q27 206 33.50 212.50Q40 219 48 219L179 219Q193 219 201 215.50Q209 212 217 205Q221 201 229 192Q237 183 250.50 173.50Q264 164 284.50 157Q305 150 335 150Q388 150 423.50 161.50Q459 173 459 203Q459 218 446 228Q433 238 407 246.50Q381 255 340.50 263Q300 271 245 283Q142 305 94.50 356.50Q47 408 47 494Q47 537 66.50 576Q86 615 123 645Q160 675 212.50 692.50Q265 710 330 710M384 910Q395 910 403 906Q411 902 421 891L523 779Q528 774 528 766Q528 750 512 750L440 750Q430 750 424 753Q418 756 409 761L335 804L261 761Q252 756 246 753Q240 750 230 750L158 750Q142 750 142 766Q142 774 147 779L249 891Q259 902 267 906Q275 910 286 910L384 910Z"  horiz-adv-x="674" vert-adv-y="1000"  />

      
      <glyph glyph-name="uni0218" unicode="&#x0218;" d="M330 710Q394 710 447.50 691.50Q501 673 540 644Q579 615 601 580Q623 545 624 513Q624 504 617.50 497.50Q611 491 603 491L472 491Q458 491 449.50 495Q441 499 432 507Q429 510 422.50 517Q416 524 404 531.50Q392 539 374 544.50Q356 550 330 550Q311 550 293.50 547.50Q276 545 262.50 539.50Q249 534 240.50 524Q232 514 232 499Q232 484 241.50 474Q251 464 273.50 455.50Q296 447 333 439Q370 431 425 420Q480 409 521 392Q562 375 589.50 349.50Q617 324 630.50 289.50Q644 255 644 208Q644 157 621 117Q598 77 556.50 48.50Q515 20 458.50 5Q402-10 335-10Q267-10 211 8Q155 26 114.50 55.50Q74 85 51 122Q28 159 27 197Q27 206 33.50 212.50Q40 219 48 219L179 219Q193 219 201 215.50Q209 212 217 205Q221 201 229 192Q237 183 250.50 173.50Q264 164 284.50 157Q305 150 335 150Q388 150 423.50 161.50Q459 173 459 203Q459 218 446 228Q433 238 407 246.50Q381 255 340.50 263Q300 271 245 283Q142 305 94.50 356.50Q47 408 47 494Q47 537 66.50 576Q86 615 123 645Q160 675 212.50 692.50Q265 710 330 710M241-89Q243-75 253.50-62.50Q264-50 284-50L407-50Q416-50 422.50-56.50Q429-63 429-72Q429-76 428-79L373-218Q369-228 359.50-239Q350-250 330-250L241-250Q232-250 225.50-243.50Q219-237 219-228L219-226L241-89Z"  horiz-adv-x="674" vert-adv-y="1000"  />

      
      <glyph glyph-name="uni54" unicode="&#x54;" d="M584 700Q595 700 603 692Q611 684 611 673L611 567Q611 556 603 548Q595 540 584 540L408 540L408 27Q408 16 400 8Q392 0 381 0L250 0Q239 0 231 8Q223 16 223 27L223 540L47 540Q36 540 28 548Q20 556 20 567L20 673Q20 684 28 692Q36 700 47 700L584 700Z"  horiz-adv-x="631" vert-adv-y="1000"  />

      
      <glyph glyph-name="uni0166" unicode="&#x0166;" d="M412 287L412 27Q412 16 404 8Q396 0 385 0L254 0Q243 0 235 8Q227 16 227 27L227 287L134 287Q123 287 115 295Q107 303 107 314L107 367Q107 378 115 386Q123 394 134 394L227 394L227 540L51 540Q40 540 32 548Q24 556 24 567L24 673Q24 684 32 692Q40 700 51 700L588 700Q599 700 607 692Q615 684 615 673L615 567Q615 556 607 548Q599 540 588 540L412 540L412 394L505 394Q516 394 524 386Q532 378 532 367L532 314Q532 303 524 295Q516 287 505 287L412 287Z"  horiz-adv-x="640" vert-adv-y="1000"  />

      
      <glyph glyph-name="uni0164" unicode="&#x0164;" d="M584 700Q595 700 603 692Q611 684 611 673L611 567Q611 556 603 548Q595 540 584 540L408 540L408 27Q408 16 400 8Q392 0 381 0L250 0Q239 0 231 8Q223 16 223 27L223 540L47 540Q36 540 28 548Q20 556 20 567L20 673Q20 684 28 692Q36 700 47 700L584 700M266 750Q255 750 247 754Q239 758 229 769L127 881Q122 886 122 894Q122 910 138 910L210 910Q220 910 226 907Q232 904 241 899L315 856L389 899Q398 904 404 907Q410 910 420 910L492 910Q508 910 508 894Q508 886 503 881L401 769Q391 758 383 754Q375 750 364 750L266 750Z"  horiz-adv-x="631" vert-adv-y="1000"  />

      
      <glyph glyph-name="uni0162" unicode="&#x0162;" d="M584 700Q595 700 603 692Q611 684 611 673L611 567Q611 556 603 548Q595 540 584 540L408 540L408 27Q408 16 400 8Q392 0 381 0L250 0Q239 0 231 8Q223 16 223 27L223 540L47 540Q36 540 28 548Q20 556 20 567L20 673Q20 684 28 692Q36 700 47 700L584 700M220-89Q222-75 232.50-62.50Q243-50 263-50L386-50Q395-50 401.50-56.50Q408-63 408-72Q408-76 407-79L352-218Q348-228 338.50-239Q329-250 309-250L220-250Q211-250 204.50-243.50Q198-237 198-228L198-226L220-89Z"  horiz-adv-x="631" vert-adv-y="1000"  />

      
      <glyph glyph-name="uni55" unicode="&#x55;" d="M644 700Q655 700 663 692Q671 684 671 673L671 274Q671 205 649 152Q627 99 586.50 63Q546 27 490 8.50Q434-10 367-10Q299-10 243 8.50Q187 27 147 63Q107 99 85 152Q63 205 63 274L63 673Q63 684 71 692Q79 700 90 700L221 700Q232 700 240 692Q248 684 248 673L248 278Q248 218 277.50 184Q307 150 367 150Q427 150 456.50 184Q486 218 486 278L486 673Q486 684 494 692Q502 700 513 700L644 700Z"  horiz-adv-x="734" vert-adv-y="1000"  />

      
      <glyph glyph-name="unida" unicode="&#xda;" d="M644 700Q655 700 663 692Q671 684 671 673L671 274Q671 205 649 152Q627 99 586.50 63Q546 27 490 8.50Q434-10 367-10Q299-10 243 8.50Q187 27 147 63Q107 99 85 152Q63 205 63 274L63 673Q63 684 71 692Q79 700 90 700L221 700Q232 700 240 692Q248 684 248 673L248 278Q248 218 277.50 184Q307 150 367 150Q427 150 456.50 184Q486 218 486 278L486 673Q486 684 494 692Q502 700 513 700L644 700M381 891Q392 904 399.50 907Q407 910 418 910L561 910Q580 910 580 890Q580 883 575 878L440 767Q432 760 423 755Q414 750 398 750L300 750Q284 750 284 766Q284 774 289 779L381 891Z"  horiz-adv-x="734" vert-adv-y="1000"  />

      
      <glyph glyph-name="uni016C" unicode="&#x016C;" d="M644 700Q655 700 663 692Q671 684 671 673L671 274Q671 205 649 152Q627 99 586.50 63Q546 27 490 8.50Q434-10 367-10Q299-10 243 8.50Q187 27 147 63Q107 99 85 152Q63 205 63 274L63 673Q63 684 71 692Q79 700 90 700L221 700Q232 700 240 692Q248 684 248 673L248 278Q248 218 277.50 184Q307 150 367 150Q427 150 456.50 184Q486 218 486 278L486 673Q486 684 494 692Q502 700 513 700L644 700M367 745Q321 745 289 758.50Q257 772 236.50 793.50Q216 815 207 841Q198 867 198 891Q198 899 203 904.50Q208 910 217 910L301 910Q310 910 315 904.50Q320 899 320 891Q320 872 332 856.50Q344 841 367 841Q390 841 402 856.50Q414 872 414 891Q414 899 419 904.50Q424 910 433 910L517 910Q526 910 531 904.50Q536 899 536 891Q536 867 527 841Q518 815 497.50 793.50Q477 772 445 758.50Q413 745 367 745Z"  horiz-adv-x="734" vert-adv-y="1000"  />

      
      <glyph glyph-name="unidb" unicode="&#xdb;" d="M644 700Q655 700 663 692Q671 684 671 673L671 274Q671 205 649 152Q627 99 586.50 63Q546 27 490 8.50Q434-10 367-10Q299-10 243 8.50Q187 27 147 63Q107 99 85 152Q63 205 63 274L63 673Q63 684 71 692Q79 700 90 700L221 700Q232 700 240 692Q248 684 248 673L248 278Q248 218 277.50 184Q307 150 367 150Q427 150 456.50 184Q486 218 486 278L486 673Q486 684 494 692Q502 700 513 700L644 700M416 910Q427 910 435 906Q443 902 453 891L555 779Q560 774 560 766Q560 750 544 750L472 750Q462 750 456 753Q450 756 441 761L367 804L293 761Q284 756 278 753Q272 750 262 750L190 750Q174 750 174 766Q174 774 179 779L281 891Q291 902 299 906Q307 910 318 910L416 910Z"  horiz-adv-x="734" vert-adv-y="1000"  />

      
      <glyph glyph-name="unidc" unicode="&#xdc;" d="M644 700Q655 700 663 692Q671 684 671 673L671 274Q671 205 649 152Q627 99 586.50 63Q546 27 490 8.50Q434-10 367-10Q299-10 243 8.50Q187 27 147 63Q107 99 85 152Q63 205 63 274L63 673Q63 684 71 692Q79 700 90 700L221 700Q232 700 240 692Q248 684 248 673L248 278Q248 218 277.50 184Q307 150 367 150Q427 150 456.50 184Q486 218 486 278L486 673Q486 684 494 692Q502 700 513 700L644 700M317 777Q317 766 309 758Q301 750 290 750L189 750Q178 750 170 758Q162 766 162 777L162 878Q162 889 170 897Q178 905 189 905L290 905Q301 905 309 897Q317 889 317 878L317 777M572 777Q572 766 564 758Q556 750 545 750L444 750Q433 750 425 758Q417 766 417 777L417 878Q417 889 425 897Q433 905 444 905L545 905Q556 905 564 897Q572 889 572 878L572 777Z"  horiz-adv-x="734" vert-adv-y="1000"  />

      
      <glyph glyph-name="unid9" unicode="&#xd9;" d="M644 700Q655 700 663 692Q671 684 671 673L671 274Q671 205 649 152Q627 99 586.50 63Q546 27 490 8.50Q434-10 367-10Q299-10 243 8.50Q187 27 147 63Q107 99 85 152Q63 205 63 274L63 673Q63 684 71 692Q79 700 90 700L221 700Q232 700 240 692Q248 684 248 673L248 278Q248 218 277.50 184Q307 150 367 150Q427 150 456.50 184Q486 218 486 278L486 673Q486 684 494 692Q502 700 513 700L644 700M444 779Q449 774 449 766Q449 750 433 750L335 750Q319 750 310 755Q301 760 293 767L158 878Q153 883 153 890Q153 910 172 910L315 910Q326 910 333.50 907Q341 904 352 891L444 779Z"  horiz-adv-x="734" vert-adv-y="1000"  />

      
      <glyph glyph-name="uni0170" unicode="&#x0170;" d="M644 700Q655 700 663 692Q671 684 671 673L671 274Q671 205 649 152Q627 99 586.50 63Q546 27 490 8.50Q434-10 367-10Q299-10 243 8.50Q187 27 147 63Q107 99 85 152Q63 205 63 274L63 673Q63 684 71 692Q79 700 90 700L221 700Q232 700 240 692Q248 684 248 673L248 278Q248 218 277.50 184Q307 150 367 150Q427 150 456.50 184Q486 218 486 278L486 673Q486 684 494 692Q502 700 513 700L644 700M232 891Q237 901 245 905.50Q253 910 269 910L391 910Q411 910 411 891Q411 884 405 878L300 764Q288 750 266 750L193 750Q177 750 177 766Q177 770 178.50 774Q180 778 182 781L232 891M463 891Q468 901 476 905.50Q484 910 500 910L622 910Q642 910 642 891Q642 884 636 878L531 764Q519 750 497 750L424 750Q408 750 408 766Q408 770 409.50 774Q411 778 413 781L463 891Z"  horiz-adv-x="734" vert-adv-y="1000"  />

      
      <glyph glyph-name="uni016A" unicode="&#x016A;" d="M644 700Q655 700 663 692Q671 684 671 673L671 274Q671 205 649 152Q627 99 586.50 63Q546 27 490 8.50Q434-10 367-10Q299-10 243 8.50Q187 27 147 63Q107 99 85 152Q63 205 63 274L63 673Q63 684 71 692Q79 700 90 700L221 700Q232 700 240 692Q248 684 248 673L248 278Q248 218 277.50 184Q307 150 367 150Q427 150 456.50 184Q486 218 486 278L486 673Q486 684 494 692Q502 700 513 700L644 700M208 750Q197 750 189 758Q181 766 181 777L181 863Q181 874 189 882Q197 890 208 890L527 890Q538 890 546 882Q554 874 554 863L554 777Q554 766 546 758Q538 750 527 750L208 750Z"  horiz-adv-x="734" vert-adv-y="1000"  />

      
      <glyph glyph-name="uni0172" unicode="&#x0172;" d="M644 700Q655 700 663 692Q671 684 671 673L671 274Q671 206 651 156.50Q631 107 595 73Q559 39 509 19.50Q459 0 398-9Q381-11 371.50-23.50Q362-36 362-56Q362-79 376-95.50Q390-112 416-112L431-112Q453-112 453-134L453-198Q453-220 431-220L412-220Q374-220 344-207.50Q314-195 293-173.50Q272-152 261-122Q250-92 250-56Q250-39 252.50-24Q255-9 260 3Q169 28 116 96.50Q63 165 63 274L63 673Q63 684 71 692Q79 700 90 700L221 700Q232 700 240 692Q248 684 248 673L248 278Q248 218 277.50 184Q307 150 367 150Q427 150 456.50 184Q486 218 486 278L486 673Q486 684 494 692Q502 700 513 700L644 700Z"  horiz-adv-x="734" vert-adv-y="1000"  />

      
      <glyph glyph-name="uni016E" unicode="&#x016E;" d="M644 700Q655 700 663 692Q671 684 671 673L671 274Q671 205 649 152Q627 99 586.50 63Q546 27 490 8.50Q434-10 367-10Q299-10 243 8.50Q187 27 147 63Q107 99 85 152Q63 205 63 274L63 673Q63 684 71 692Q79 700 90 700L221 700Q232 700 240 692Q248 684 248 673L248 278Q248 218 277.50 184Q307 150 367 150Q427 150 456.50 184Q486 218 486 278L486 673Q486 684 494 692Q502 700 513 700L644 700M337 830Q337 817 345.50 808.50Q354 800 367 800Q380 800 388.50 808.50Q397 817 397 830Q397 843 388.50 851.50Q380 860 367 860Q354 860 345.50 851.50Q337 843 337 830M272 830Q272 869 300 894.50Q328 920 367 920Q406 920 434 894.50Q462 869 462 830Q462 791 434 765.50Q406 740 367 740Q328 740 300 765.50Q272 791 272 830Z"  horiz-adv-x="734" vert-adv-y="1000"  />

      
      <glyph glyph-name="uni0168" unicode="&#x0168;" d="M644 700Q655 700 663 692Q671 684 671 673L671 274Q671 205 649 152Q627 99 586.50 63Q546 27 490 8.50Q434-10 367-10Q299-10 243 8.50Q187 27 147 63Q107 99 85 152Q63 205 63 274L63 673Q63 684 71 692Q79 700 90 700L221 700Q232 700 240 692Q248 684 248 673L248 278Q248 218 277.50 184Q307 150 367 150Q427 150 456.50 184Q486 218 486 278L486 673Q486 684 494 692Q502 700 513 700L644 700M454 745Q423 745 403 752Q383 759 368 767.50Q353 776 340.50 783Q328 790 312 790Q300 790 294 783.50Q288 777 283.50 769.50Q279 762 275 756Q271 750 263 750L187 750Q178 750 173 755.50Q168 761 168 769Q168 791 174.50 815.50Q181 840 195 859.50Q209 879 230 892Q251 905 280 905Q311 905 331 898Q351 891 366 882.50Q381 874 393.50 867Q406 860 422 860Q434 860 440 866Q446 872 450.50 879.50Q455 887 459 893.50Q463 900 471 900L547 900Q556 900 561 894.50Q566 889 566 881Q566 858 558 834Q550 810 535 790.50Q520 771 499.50 758Q479 745 454 745Z"  horiz-adv-x="734" vert-adv-y="1000"  />

      
      <glyph glyph-name="uni56" unicode="&#x56;" d="M282 0Q243 0 229 40L25 665Q23 672 22.50 674Q22 676 22 678Q22 687 28.50 693.50Q35 700 44 700L170 700Q190 700 198.50 691.50Q207 683 209 675L348 235L487 675Q489 683 497.50 691.50Q506 700 526 700L652 700Q661 700 667.50 693.50Q674 687 674 678Q674 676 673.50 674Q673 672 671 665L467 40Q453 0 414 0L282 0Z"  horiz-adv-x="696" vert-adv-y="1000"  />

      
      <glyph glyph-name="uni57" unicode="&#x57;" d="M556 335L620 673Q623 688 632 694Q641 700 651 700L782 700Q791 700 797.50 693.50Q804 687 804 678Q804 675 803 670L674 38Q672 24 658 12Q644 0 624 0L541 0Q521 0 508.50 12Q496 24 491 38L416 264L341 38Q336 24 323.50 12Q311 0 291 0L208 0Q188 0 174 12Q160 24 158 38L29 670Q28 675 28 678Q28 687 34.50 693.50Q41 700 50 700L181 700Q191 700 200 694Q209 688 212 673L276 335L335 516Q337 523 344 534Q351 545 369 545L463 545Q481 545 488 534Q495 523 497 516L556 335Z"  horiz-adv-x="832" vert-adv-y="1000"  />

      
      <glyph glyph-name="uni1E82" unicode="&#x1E82;" d="M556 335L620 673Q623 688 632 694Q641 700 651 700L782 700Q791 700 797.50 693.50Q804 687 804 678Q804 675 803 670L674 38Q672 24 658 12Q644 0 624 0L541 0Q521 0 508.50 12Q496 24 491 38L416 264L341 38Q336 24 323.50 12Q311 0 291 0L208 0Q188 0 174 12Q160 24 158 38L29 670Q28 675 28 678Q28 687 34.50 693.50Q41 700 50 700L181 700Q191 700 200 694Q209 688 212 673L276 335L335 516Q337 523 344 534Q351 545 369 545L463 545Q481 545 488 534Q495 523 497 516L556 335M440 891Q451 904 458.50 907Q466 910 477 910L620 910Q639 910 639 890Q639 883 634 878L499 767Q491 760 482 755Q473 750 457 750L359 750Q343 750 343 766Q343 774 348 779L440 891Z"  horiz-adv-x="832" vert-adv-y="1000"  />

      
      <glyph glyph-name="uni0174" unicode="&#x0174;" d="M556 335L620 673Q623 688 632 694Q641 700 651 700L782 700Q791 700 797.50 693.50Q804 687 804 678Q804 675 803 670L674 38Q672 24 658 12Q644 0 624 0L541 0Q521 0 508.50 12Q496 24 491 38L416 264L341 38Q336 24 323.50 12Q311 0 291 0L208 0Q188 0 174 12Q160 24 158 38L29 670Q28 675 28 678Q28 687 34.50 693.50Q41 700 50 700L181 700Q191 700 200 694Q209 688 212 673L276 335L335 516Q337 523 344 534Q351 545 369 545L463 545Q481 545 488 534Q495 523 497 516L556 335M465 910Q476 910 484 906Q492 902 502 891L604 779Q609 774 609 766Q609 750 593 750L521 750Q511 750 505 753Q499 756 490 761L416 804L342 761Q333 756 327 753Q321 750 311 750L239 750Q223 750 223 766Q223 774 228 779L330 891Q340 902 348 906Q356 910 367 910L465 910Z"  horiz-adv-x="832" vert-adv-y="1000"  />

      
      <glyph glyph-name="uni1E84" unicode="&#x1E84;" d="M556 335L620 673Q623 688 632 694Q641 700 651 700L782 700Q791 700 797.50 693.50Q804 687 804 678Q804 675 803 670L674 38Q672 24 658 12Q644 0 624 0L541 0Q521 0 508.50 12Q496 24 491 38L416 264L341 38Q336 24 323.50 12Q311 0 291 0L208 0Q188 0 174 12Q160 24 158 38L29 670Q28 675 28 678Q28 687 34.50 693.50Q41 700 50 700L181 700Q191 700 200 694Q209 688 212 673L276 335L335 516Q337 523 344 534Q351 545 369 545L463 545Q481 545 488 534Q495 523 497 516L556 335M366 777Q366 766 358 758Q350 750 339 750L238 750Q227 750 219 758Q211 766 211 777L211 878Q211 889 219 897Q227 905 238 905L339 905Q350 905 358 897Q366 889 366 878L366 777M621 777Q621 766 613 758Q605 750 594 750L493 750Q482 750 474 758Q466 766 466 777L466 878Q466 889 474 897Q482 905 493 905L594 905Q605 905 613 897Q621 889 621 878L621 777Z"  horiz-adv-x="832" vert-adv-y="1000"  />

      
      <glyph glyph-name="uni1E80" unicode="&#x1E80;" d="M556 335L620 673Q623 688 632 694Q641 700 651 700L782 700Q791 700 797.50 693.50Q804 687 804 678Q804 675 803 670L674 38Q672 24 658 12Q644 0 624 0L541 0Q521 0 508.50 12Q496 24 491 38L416 264L341 38Q336 24 323.50 12Q311 0 291 0L208 0Q188 0 174 12Q160 24 158 38L29 670Q28 675 28 678Q28 687 34.50 693.50Q41 700 50 700L181 700Q191 700 200 694Q209 688 212 673L276 335L335 516Q337 523 344 534Q351 545 369 545L463 545Q481 545 488 534Q495 523 497 516L556 335M486 779Q491 774 491 766Q491 750 475 750L377 750Q361 750 352 755Q343 760 335 767L200 878Q195 883 195 890Q195 910 214 910L357 910Q368 910 375.50 907Q383 904 394 891L486 779Z"  horiz-adv-x="832" vert-adv-y="1000"  />

      
      <glyph glyph-name="uni58" unicode="&#x58;" d="M354 203L226 23Q220 14 212.50 7Q205 0 185 0L33 0Q24 0 17.50 6.50Q11 13 11 22Q11 24 11.50 26.50Q12 29 14 33L245 356L24 667Q21 673 21 678Q21 687 27.50 693.50Q34 700 43 700L194 700Q214 700 223 690Q232 680 236 675L357 506L474 675Q478 680 487 690Q496 700 516 700L669 700Q678 700 684.50 693.50Q691 687 691 678Q691 673 688 667L466 352L695 33Q697 29 697.50 26.50Q698 24 698 22Q698 13 691.50 6.50Q685 0 676 0L524 0Q504 0 496.50 7Q489 14 483 23L354 203Z"  horiz-adv-x="711" vert-adv-y="1000"  />

      
      <glyph glyph-name="uni59" unicode="&#x59;" d="M436 27Q436 16 428 8Q420 0 409 0L278 0Q267 0 259 8Q251 16 251 27L251 240L20 665Q16 672 16 678Q16 687 22.50 693.50Q29 700 38 700L175 700Q195 700 205 690Q215 680 217 675L343 429L470 675Q472 680 482 690Q492 700 512 700L649 700Q658 700 664.50 693.50Q671 687 671 678Q671 672 667 665L436 240L436 27Z"  horiz-adv-x="687" vert-adv-y="1000"  />

      
      <glyph glyph-name="unidd" unicode="&#xdd;" d="M436 27Q436 16 428 8Q420 0 409 0L278 0Q267 0 259 8Q251 16 251 27L251 240L20 665Q16 672 16 678Q16 687 22.50 693.50Q29 700 38 700L175 700Q195 700 205 690Q215 680 217 675L343 429L470 675Q472 680 482 690Q492 700 512 700L649 700Q658 700 664.50 693.50Q671 687 671 678Q671 672 667 665L436 240L436 27M360 891Q371 904 378.50 907Q386 910 397 910L540 910Q559 910 559 890Q559 883 554 878L419 767Q411 760 402 755Q393 750 377 750L279 750Q263 750 263 766Q263 774 268 779L360 891Z"  horiz-adv-x="687" vert-adv-y="1000"  />

      
      <glyph glyph-name="uni0176" unicode="&#x0176;" d="M436 27Q436 16 428 8Q420 0 409 0L278 0Q267 0 259 8Q251 16 251 27L251 240L20 665Q16 672 16 678Q16 687 22.50 693.50Q29 700 38 700L175 700Q195 700 205 690Q215 680 217 675L343 429L470 675Q472 680 482 690Q492 700 512 700L649 700Q658 700 664.50 693.50Q671 687 671 678Q671 672 667 665L436 240L436 27M392 910Q403 910 411 906Q419 902 429 891L531 779Q536 774 536 766Q536 750 520 750L448 750Q438 750 432 753Q426 756 417 761L343 804L269 761Q260 756 254 753Q248 750 238 750L166 750Q150 750 150 766Q150 774 155 779L257 891Q267 902 275 906Q283 910 294 910L392 910Z"  horiz-adv-x="687" vert-adv-y="1000"  />

      
      <glyph glyph-name="uni0178" unicode="&#x0178;" d="M436 27Q436 16 428 8Q420 0 409 0L278 0Q267 0 259 8Q251 16 251 27L251 240L20 665Q16 672 16 678Q16 687 22.50 693.50Q29 700 38 700L175 700Q195 700 205 690Q215 680 217 675L343 429L470 675Q472 680 482 690Q492 700 512 700L649 700Q658 700 664.50 693.50Q671 687 671 678Q671 672 667 665L436 240L436 27M293 777Q293 766 285 758Q277 750 266 750L165 750Q154 750 146 758Q138 766 138 777L138 878Q138 889 146 897Q154 905 165 905L266 905Q277 905 285 897Q293 889 293 878L293 777M548 777Q548 766 540 758Q532 750 521 750L420 750Q409 750 401 758Q393 766 393 777L393 878Q393 889 401 897Q409 905 420 905L521 905Q532 905 540 897Q548 889 548 878L548 777Z"  horiz-adv-x="687" vert-adv-y="1000"  />

      
      <glyph glyph-name="uni1EF2" unicode="&#x1EF2;" d="M436 27Q436 16 428 8Q420 0 409 0L278 0Q267 0 259 8Q251 16 251 27L251 240L20 665Q16 672 16 678Q16 687 22.50 693.50Q29 700 38 700L175 700Q195 700 205 690Q215 680 217 675L343 429L470 675Q472 680 482 690Q492 700 512 700L649 700Q658 700 664.50 693.50Q671 687 671 678Q671 672 667 665L436 240L436 27M425 779Q430 774 430 766Q430 750 414 750L316 750Q300 750 291 755Q282 760 274 767L139 878Q134 883 134 890Q134 910 153 910L296 910Q307 910 314.50 907Q322 904 333 891L425 779Z"  horiz-adv-x="687" vert-adv-y="1000"  />

      
      <glyph glyph-name="uni5a" unicode="&#x5a;" d="M602 160Q613 160 621 152Q629 144 629 133L629 27Q629 16 621 8Q613 0 602 0L66 0Q55 0 47 8Q39 16 39 27L39 128Q39 142 44 150Q49 158 54 163L374 540L76 540Q65 540 57 548Q49 556 49 567L49 673Q49 684 57 692Q65 700 76 700L592 700Q603 700 611 692Q619 684 619 673L619 572Q619 553 606 539L286 160L602 160Z"  horiz-adv-x="668" vert-adv-y="1000"  />

      
      <glyph glyph-name="uni0179" unicode="&#x0179;" d="M602 160Q613 160 621 152Q629 144 629 133L629 27Q629 16 621 8Q613 0 602 0L66 0Q55 0 47 8Q39 16 39 27L39 128Q39 142 44 150Q49 158 54 163L374 540L76 540Q65 540 57 548Q49 556 49 567L49 673Q49 684 57 692Q65 700 76 700L592 700Q603 700 611 692Q619 684 619 673L619 572Q619 553 606 539L286 160L602 160M352 891Q363 904 370.50 907Q378 910 389 910L532 910Q551 910 551 890Q551 883 546 878L411 767Q403 760 394 755Q385 750 369 750L271 750Q255 750 255 766Q255 774 260 779L352 891Z"  horiz-adv-x="668" vert-adv-y="1000"  />

      
      <glyph glyph-name="uni017D" unicode="&#x017D;" d="M602 160Q613 160 621 152Q629 144 629 133L629 27Q629 16 621 8Q613 0 602 0L66 0Q55 0 47 8Q39 16 39 27L39 128Q39 142 44 150Q49 158 54 163L374 540L76 540Q65 540 57 548Q49 556 49 567L49 673Q49 684 57 692Q65 700 76 700L592 700Q603 700 611 692Q619 684 619 673L619 572Q619 553 606 539L286 160L602 160M285 750Q274 750 266 754Q258 758 248 769L146 881Q141 886 141 894Q141 910 157 910L229 910Q239 910 245 907Q251 904 260 899L334 856L408 899Q417 904 423 907Q429 910 439 910L511 910Q527 910 527 894Q527 886 522 881L420 769Q410 758 402 754Q394 750 383 750L285 750Z"  horiz-adv-x="668" vert-adv-y="1000"  />

      
      <glyph glyph-name="uni017B" unicode="&#x017B;" d="M602 160Q613 160 621 152Q629 144 629 133L629 27Q629 16 621 8Q613 0 602 0L66 0Q55 0 47 8Q39 16 39 27L39 128Q39 142 44 150Q49 158 54 163L374 540L76 540Q65 540 57 548Q49 556 49 567L49 673Q49 684 57 692Q65 700 76 700L592 700Q603 700 611 692Q619 684 619 673L619 572Q619 553 606 539L286 160L602 160M417 777Q417 766 409 758Q401 750 390 750L279 750Q268 750 260 758Q252 766 252 777L252 888Q252 899 260 907Q268 915 279 915L390 915Q401 915 409 907Q417 899 417 888L417 777Z"  horiz-adv-x="668" vert-adv-y="1000"  />

      
      <glyph glyph-name="uni61" unicode="&#x61;" d="M24 148Q24 214 74.50 257Q125 300 239 320L356 340Q356 364 343 379.50Q330 395 298 395Q275 395 262.50 388.50Q250 382 244 377Q235 369 227 367Q219 365 208 365L81 365Q71 365 64.50 371Q58 377 59 387Q61 410 79 435Q97 460 128.50 481Q160 502 203.50 516Q247 530 298 530Q359 530 404 515Q449 500 478.50 473.50Q508 447 522 410.50Q536 374 536 330L536 27Q536 16 528 8Q520 0 509 0L383 0Q372 0 364 8Q356 16 356 27L356 55Q332 25 296.50 7.50Q261-10 203-10Q160-10 126.50 2Q93 14 70.50 35Q48 56 36 85Q24 114 24 148M252 125Q274 125 293 132.50Q312 140 326 153Q340 166 348 183.50Q356 201 356 221L264 207Q237 202 220.50 190Q204 178 204 159Q204 140 216.50 132.50Q229 125 252 125Z"  horiz-adv-x="589" vert-adv-y="1000"  />

      
      <glyph glyph-name="unie1" unicode="&#xe1;" d="M24 148Q24 214 74.50 257Q125 300 239 320L356 340Q356 364 343 379.50Q330 395 298 395Q275 395 262.50 388.50Q250 382 244 377Q235 369 227 367Q219 365 208 365L81 365Q71 365 64.50 371Q58 377 59 387Q61 410 79 435Q97 460 128.50 481Q160 502 203.50 516Q247 530 298 530Q359 530 404 515Q449 500 478.50 473.50Q508 447 522 410.50Q536 374 536 330L536 27Q536 16 528 8Q520 0 509 0L383 0Q372 0 364 8Q356 16 356 27L356 55Q332 25 296.50 7.50Q261-10 203-10Q160-10 126.50 2Q93 14 70.50 35Q48 56 36 85Q24 114 24 148M252 125Q274 125 293 132.50Q312 140 326 153Q340 166 348 183.50Q356 201 356 221L264 207Q237 202 220.50 190Q204 178 204 159Q204 140 216.50 132.50Q229 125 252 125M323 736Q334 749 341.50 752Q349 755 360 755L493 755Q512 755 512 735Q512 728 507 723L372 612Q364 605 355 600Q346 595 330 595L242 595Q226 595 226 611Q226 619 231 624L323 736Z"  horiz-adv-x="589" vert-adv-y="1000"  />

      
      <glyph glyph-name="uni0103" unicode="&#x0103;" d="M24 148Q24 214 74.50 257Q125 300 239 320L356 340Q356 364 343 379.50Q330 395 298 395Q275 395 262.50 388.50Q250 382 244 377Q235 369 227 367Q219 365 208 365L81 365Q71 365 64.50 371Q58 377 59 387Q61 410 79 435Q97 460 128.50 481Q160 502 203.50 516Q247 530 298 530Q359 530 404 515Q449 500 478.50 473.50Q508 447 522 410.50Q536 374 536 330L536 27Q536 16 528 8Q520 0 509 0L383 0Q372 0 364 8Q356 16 356 27L356 55Q332 25 296.50 7.50Q261-10 203-10Q160-10 126.50 2Q93 14 70.50 35Q48 56 36 85Q24 114 24 148M252 125Q274 125 293 132.50Q312 140 326 153Q340 166 348 183.50Q356 201 356 221L264 207Q237 202 220.50 190Q204 178 204 159Q204 140 216.50 132.50Q229 125 252 125M290 590Q244 590 212.50 603.50Q181 617 162 638.50Q143 660 134.50 686Q126 712 126 736Q126 744 131 749.50Q136 755 145 755L229 755Q238 755 243 749.50Q248 744 248 736Q248 717 258.50 701.50Q269 686 290 686Q311 686 321.50 701.50Q332 717 332 736Q332 744 337 749.50Q342 755 351 755L435 755Q444 755 449 749.50Q454 744 454 736Q454 712 445.50 686Q437 660 418 638.50Q399 617 367.50 603.50Q336 590 290 590Z"  horiz-adv-x="589" vert-adv-y="1000"  />

      
      </font>
</defs>
</svg>
