<svg viewBox="0 0 30 30" xmlns="http://www.w3.org/2000/svg">
<path d="M25.9767 15.8789H29.1211C29.4766 15.8789 29.797 15.6647 29.9331 15.3363C30.0667 15.0135 29.9964 14.6429 29.7554 14.3916C29.751 14.387 29.7466 14.3824 29.742 14.378C28.1464 12.847 28.1465 10.0924 29.742 8.56143C29.7465 8.55691 29.751 8.5524 29.7554 8.54783C29.9964 8.29652 30.0667 7.92586 29.9331 7.60307C29.797 7.27465 29.4766 7.06049 29.1211 7.06049H25.9767C24.6066 5.50137 24.7106 2.94293 26.2123 1.50029C26.4636 1.24893 26.5388 0.870879 26.4028 0.542461C26.2668 0.21416 25.9463 0 25.5908 0H3.08531C1.3841 0 0 1.3841 0 3.08531V5.73305C0 7.43426 1.3841 8.81836 3.08531 8.81836H3.83092C3.63832 9.22066 3.53022 9.67084 3.53022 10.1459V12.7936C3.53022 13.2686 3.63832 13.7188 3.83092 14.1211H3.08531C1.3841 14.1211 0 15.5052 0 17.2064V19.8541C0 21.5554 1.3841 22.9395 3.08531 22.9395H3.83092C3.63832 23.3418 3.53022 23.7919 3.53022 24.267V26.9147C3.53022 28.616 4.91432 30 6.61553 30H29.1211C29.4766 30 29.797 29.7858 29.9331 29.4574C30.0667 29.1346 29.9964 28.764 29.7554 28.5127C29.751 28.5081 29.7466 28.5035 29.742 28.4991C28.1464 26.9681 28.1465 24.2135 29.742 22.6825C29.7465 22.678 29.751 22.6735 29.7554 22.6689C29.9964 22.4176 30.0667 22.047 29.9331 21.7242C29.797 21.3957 29.4766 21.1816 29.1211 21.1816H25.9767C24.6919 19.7193 24.6919 17.3412 25.9767 15.8789ZM1.75781 5.73305V3.08531C1.75781 2.35336 2.35336 1.75781 3.08531 1.75781H23.8788C23.043 3.36662 23.043 5.4518 23.8788 7.06055H3.08531C2.35336 7.06055 1.75781 6.465 1.75781 5.73305ZM10.5835 8.81836H12.356V10.5309L11.8414 10.2908C11.5224 10.142 11.2344 10.2272 11.098 10.2908L10.5834 10.5309V8.81836H10.5835ZM5.28809 12.7936V10.1459C5.28809 9.41385 5.88363 8.81836 6.61559 8.81836H8.82568V11.911C8.82568 12.2113 8.97908 12.491 9.23244 12.6523C9.4858 12.8136 9.80397 12.8344 10.0763 12.7074L11.4697 12.0571L12.8632 12.7074C12.9772 12.7606 13.3359 12.8886 13.707 12.6523C13.9604 12.491 14.1138 12.2113 14.1138 11.911V8.81836H27.4091C26.5733 10.4272 26.5733 12.5123 27.4091 14.1211H6.61559C5.88363 14.1211 5.28809 13.5255 5.28809 12.7936ZM17.644 15.8789H19.4165V17.5915L18.902 17.3514C18.7656 17.2878 18.4777 17.2025 18.1586 17.3514L17.644 17.5915V15.8789ZM27.4091 28.2422H6.61559C5.88357 28.2422 5.28809 27.6466 5.28809 26.9147V24.267C5.28809 23.5349 5.88363 22.9395 6.61559 22.9395H27.4091C26.5733 24.5483 26.5733 26.6334 27.4091 28.2422ZM3.08531 21.1816C2.35336 21.1816 1.75781 20.5861 1.75781 19.8541V17.2064C1.75781 16.4745 2.35336 15.8789 3.08531 15.8789H15.8862V18.9715C15.8862 19.2719 16.0396 19.5515 16.293 19.7129C16.5463 19.8742 16.8645 19.895 17.1368 19.7679L18.5302 19.1177L19.9236 19.7679C20.0377 19.8212 20.3964 19.9491 20.7674 19.7129C21.0208 19.5515 21.1742 19.2719 21.1742 18.9715V15.8789H23.8787C23.0429 17.4877 23.0429 19.5729 23.8787 21.1816H3.08531Z"/>
<defs>
<clipPath id="clip0">
<rect fill="white"/>
</clipPath>
</defs>
</svg>
