<svg viewBox="0 0 45 31" xmlns="http://www.w3.org/2000/svg">
  <path d="M0.732232 11.7724C1.70854 10.7961 3.29146 10.7961 4.26777 11.7724L18.3699 25.8745C19.3462 26.8508 19.3462 28.4337 18.3699 29.41C17.3936 30.3863 15.8106 30.3863 14.8343 29.41L0.732234 15.3079C-0.244077 14.3316 -0.244078 12.7487 0.732232 11.7724Z" />
  <path d="M44.2581 0.732233C43.2818 -0.244078 41.6989 -0.244078 40.7226 0.732233L15.7325 25.7223C14.7561 26.6986 14.7561 28.2816 15.7325 29.2579C16.7088 30.2342 18.2917 30.2342 19.268 29.2579L44.2581 4.26777C45.2344 3.29146 45.2344 1.70854 44.2581 0.732233Z"/>
</svg>
