<svg viewBox="0 0 15 15" xmlns="http://www.w3.org/2000/svg">
  <path d="M13.3929 1.60714H11.7857V0.535724C11.7857 0.239847 11.5459 0 11.25 0C10.9541 0 10.7143 0.239847 10.7143 0.535724V1.60714H4.2857V0.535724C4.2857 0.239847 4.04585 0 3.75001 0C3.45416 0 3.21428 0.239847 3.21428 0.535724V1.60714H1.60714C0.719541 1.60714 0 2.32668 0 3.21428V13.3929C0 14.2805 0.719541 15 1.60714 15H13.3929C14.2805 15 15 14.2805 15 13.3929V3.21428C15 2.32668 14.2805 1.60714 13.3929 1.60714ZM13.9286 13.3929C13.9286 13.6887 13.6887 13.9286 13.3928 13.9286H1.60714C1.31126 13.9286 1.07142 13.6887 1.07142 13.3929V6.42857H13.9286V13.3929ZM13.9286 5.35715H1.07142V3.21428C1.07142 2.91841 1.31126 2.67856 1.60714 2.67856H3.21428V3.74998C3.21428 4.04585 3.45413 4.2857 3.75001 4.2857C4.04589 4.2857 4.28573 4.04585 4.28573 3.74998V2.67856H10.7143V3.74998C10.7143 4.04585 10.9541 4.2857 11.25 4.2857C11.5459 4.2857 11.7857 4.04585 11.7857 3.74998V2.67856H13.3929C13.6888 2.67856 13.9286 2.91841 13.9286 3.21428V5.35715H13.9286Z"/>
  <path d="M4.28573 7.5H3.21431C2.91844 7.5 2.67859 7.73985 2.67859 8.03573C2.67859 8.33161 2.91844 8.57145 3.21431 8.57145H4.28573C4.58161 8.57145 4.82146 8.33161 4.82146 8.03573C4.82146 7.73985 4.58161 7.5 4.28573 7.5Z"/>
  <path d="M8.03574 7.5H6.96431C6.66844 7.5 6.42859 7.73985 6.42859 8.03573C6.42859 8.33161 6.66844 8.57145 6.96431 8.57145H8.03574C8.33161 8.57145 8.57146 8.33161 8.57146 8.03573C8.57146 7.73985 8.33161 7.5 8.03574 7.5Z"/>
  <path d="M11.7857 7.5H10.7143C10.4184 7.5 10.1786 7.73985 10.1786 8.03573C10.1786 8.33161 10.4184 8.57145 10.7143 8.57145H11.7857C12.0816 8.57145 12.3215 8.33161 12.3215 8.03573C12.3214 7.73985 12.0816 7.5 11.7857 7.5Z"/>
  <path d="M4.28573 9.64258H3.21431C2.91844 9.64258 2.67859 9.88242 2.67859 10.1783C2.67859 10.4742 2.91844 10.714 3.21431 10.714H4.28573C4.58161 10.714 4.82146 10.4742 4.82146 10.1783C4.82146 9.88242 4.58161 9.64258 4.28573 9.64258Z"/>
  <path d="M8.03574 9.64258H6.96431C6.66844 9.64258 6.42859 9.88242 6.42859 10.1783C6.42859 10.4742 6.66844 10.714 6.96431 10.714H8.03574C8.33161 10.714 8.57146 10.4742 8.57146 10.1783C8.57146 9.88242 8.33161 9.64258 8.03574 9.64258Z"/>
  <path d="M11.7857 9.64258H10.7143C10.4184 9.64258 10.1786 9.88242 10.1786 10.1783C10.1786 10.4742 10.4184 10.714 10.7143 10.714H11.7857C12.0816 10.714 12.3215 10.4742 12.3215 10.1783C12.3214 9.88242 12.0816 9.64258 11.7857 9.64258Z"/>
  <path d="M4.28573 11.7856H3.21431C2.91844 11.7856 2.67859 12.0255 2.67859 12.3214C2.67859 12.6172 2.91844 12.8571 3.21431 12.8571H4.28573C4.58161 12.8571 4.82146 12.6172 4.82146 12.3213C4.82146 12.0255 4.58161 11.7856 4.28573 11.7856Z"/>
  <path d="M8.03574 11.7856H6.96431C6.66844 11.7856 6.42859 12.0255 6.42859 12.3214C6.42859 12.6172 6.66844 12.8571 6.96431 12.8571H8.03574C8.33161 12.8571 8.57146 12.6172 8.57146 12.3214C8.57146 12.0255 8.33161 11.7856 8.03574 11.7856Z"/>
  <path d="M11.7857 11.7856H10.7143C10.4184 11.7856 10.1786 12.0255 10.1786 12.3214C10.1786 12.6172 10.4184 12.8571 10.7143 12.8571H11.7857C12.0816 12.8571 12.3215 12.6172 12.3215 12.3214C12.3215 12.0255 12.0816 11.7856 11.7857 11.7856Z"/>
</svg>
