<svg viewBox="0 0 20 20" xmlns="http://www.w3.org/2000/svg">
  <path d="M0.882069 0.882313C1.36936 0.395023 2.15941 0.395023 2.6467 0.882313L19.1166 17.3522C19.6039 17.8395 19.6039 18.6296 19.1166 19.1169C18.6293 19.6042 17.8393 19.6042 17.352 19.1169L0.88207 2.64695C0.39478 2.15966 0.394778 1.3696 0.882069 0.882313Z"/>
  <path d="M19.1174 0.882313C18.6301 0.395023 17.8401 0.395023 17.3528 0.882313L0.882853 17.3522C0.395563 17.8395 0.395562 18.6296 0.882852 19.1169C1.37014 19.6042 2.1602 19.6042 2.64749 19.1169L19.1174 2.64695C19.6047 2.15966 19.6047 1.3696 19.1174 0.882313Z"/>
</svg>
