<svg viewBox="0 0 18 18" xmlns="http://www.w3.org/2000/svg">
<path d="M18 0H16.5938V0.5625H17.4375V1.6875H18V0ZM15.1875 0H13.7812V0.5625H15.1875V0ZM12.375 0H10.9688V0.5625H12.375V0ZM9.5625 0H8.15625V0.5625H9.5625V0ZM6.75 0H5.34375V0.5625H6.75V0ZM3.9375 0H2.53125V0.5625H3.9375V0ZM1.125 0H0V0.5625H1.125V0ZM0.5625 1.6875H0V3.09375H0.5625V1.6875ZM0.5625 4.5H0V5.90625H0.5625V4.5ZM0.5625 7.3125H0V8.71875H0.5625V7.3125ZM0.5625 10.125H0V11.5312H0.5625V10.125ZM0.5625 12.9375H0V14.3438H0.5625V12.9375ZM0.5625 15.75H0V17.1562H0.5625V15.75ZM1.96875 17.4375H0.5625V18H1.96875V17.4375ZM4.78125 17.4375H3.375V18H4.78125V17.4375ZM7.59375 17.4375H6.1875V18H7.59375V17.4375ZM10.4062 17.4375H9V18H10.4062V17.4375ZM13.2188 17.4375H11.8125V18H13.2188V17.4375ZM16.0312 17.4375H14.625V18H16.0312V17.4375ZM18 17.1562H17.4375V17.4375V18H18V17.1562ZM18 14.3438H17.4375V15.75H18V14.3438ZM18 11.5312H17.4375V12.9375H18V11.5312ZM18 8.71875H17.4375V10.125H18V8.71875ZM18 5.90625H17.4375V7.3125H18V5.90625ZM18 3.09375H17.4375V4.5H18V3.09375Z"/>
<path d="M9.42188 6.18652H8.57812V11.8143H9.42188V6.18652Z"/>
<path d="M11.8143 8.57812H6.18652V9.42188H11.8143V8.57812Z"/>
</svg>
