<svg viewBox="0 0 40 40" xmlns="http://www.w3.org/2000/svg">
  <path d="M37.4999 15.8206V10.8815V10.8814C37.4999 10.3473 37.2257 9.86556 36.7664 9.59282L21.1351 0.311807C20.435 -0.103896 19.5651 -0.103975 18.8649 0.311807L3.23364 9.5929C2.77434 9.86563 2.50012 10.3474 2.50012 10.8815C2.50012 11.4156 2.77426 11.8974 3.23364 12.1702L7.6145 14.7713V19.3016C7.6145 20.1514 8.06848 20.9489 8.79918 21.3827L18.7643 27.2996C19.1454 27.5259 19.5728 27.639 20 27.639C20.4273 27.639 20.8546 27.5259 21.2357 27.2996L31.2008 21.3827C31.9316 20.9489 32.3855 20.1515 32.3855 19.3016V14.7713L35.9374 12.6624V15.8206C35.0281 16.1431 34.3749 17.0114 34.3749 18.0299V23.7721C34.3749 24.2036 34.7247 24.5534 35.1561 24.5534H38.2811C38.7126 24.5534 39.0624 24.2036 39.0624 23.7721V18.0299C39.0624 17.0115 38.4092 16.1431 37.4999 15.8206ZM19.2188 25.7522L9.59684 20.0392C9.33786 19.8855 9.177 19.6028 9.177 19.3017V15.6991L18.8649 21.4513C18.9787 21.5189 19.0974 21.5743 19.2188 21.6199V25.7522ZM30.8231 19.3016H30.823C30.823 19.6027 30.6622 19.8854 30.4031 20.0392L20.7813 25.7523V21.6199C20.9027 21.5743 21.0214 21.5188 21.1352 21.4513L30.8231 15.6991V19.3016ZM20.3374 20.1077C20.1293 20.2313 19.8707 20.2313 19.6625 20.1077L4.12379 10.8815L19.6625 1.6554C19.8707 1.53188 20.1293 1.53181 20.3374 1.6554L35.8762 10.8816L20.3374 20.1077ZM37.5 22.9908H35.9375V18.0299C35.9375 17.5991 36.2879 17.2486 36.7187 17.2486C37.1495 17.2486 37.5 17.5991 37.5 18.0299V22.9908Z"/>
  <path d="M20.0001 8.37769C18.3243 8.37769 16.9609 9.59253 16.9609 11.0858C16.9609 12.5791 18.3242 13.7939 20 13.7939C21.6758 13.7939 23.0392 12.5791 23.0392 11.0858C23.0392 9.59253 21.6759 8.37769 20.0001 8.37769ZM20 12.2314C19.1996 12.2314 18.5234 11.7068 18.5234 11.0858C18.5234 10.4648 19.1996 9.94019 20 9.94019C20.8004 9.94019 21.4767 10.4648 21.4767 11.0858C21.4767 11.7068 20.8004 12.2314 20 12.2314Z"/>
  <path d="M33.9887 29.0234H17.422C16.9905 29.0234 16.6407 29.3732 16.6407 29.8047C16.6407 30.2362 16.9905 30.5859 17.422 30.5859H20.0001C22.4532 30.5859 24.4489 32.5816 24.4489 35.0347C24.4489 36.911 22.9224 38.4375 21.0461 38.4375H7.73958C8.57825 37.548 9.09387 36.3508 9.09387 35.0347C9.09387 33.2733 8.33231 31.6863 7.12122 30.5859H10.4949C10.9264 30.5859 11.2761 30.2362 11.2761 29.8047C11.2761 29.3732 10.9264 29.0234 10.4949 29.0234H3.08262C3.06731 29.0234 3.05403 29.0242 3.04184 29.0255C2.62942 29.0468 2.30137 29.387 2.30137 29.8047C2.30137 30.205 2.60262 30.5345 2.99067 30.5801C3.01004 30.584 3.03973 30.5859 3.08262 30.5859C5.53567 30.5859 7.53137 32.5816 7.53137 35.0347C7.53137 36.911 6.00489 38.4375 4.12856 38.4375C2.71372 38.4375 1.56262 37.2864 1.56262 35.8716C1.56262 34.8258 2.4134 33.975 3.45911 33.975C4.2095 33.975 4.82004 34.5855 4.82004 35.3359C4.82004 35.7674 5.16981 36.1172 5.60129 36.1172C6.03278 36.1172 6.38254 35.7674 6.38254 35.3359C6.38254 33.7239 5.07106 32.4125 3.45911 32.4125C1.55176 32.4125 0.00012207 33.9642 0.00012207 35.8716C0.000200195 38.1479 1.85215 39.9999 4.12856 39.9999H35.0347C37.7725 39.9999 40 37.7725 40 35.0346C40 31.7201 37.3033 29.0234 33.9887 29.0234ZM35.0347 38.4374H24.657C25.4957 37.548 26.0113 36.3507 26.0113 35.0346C26.0113 33.2732 25.2497 31.6862 24.0386 30.5859H33.9886C36.4417 30.5859 38.4374 32.5816 38.4374 35.0346C38.4375 36.9109 36.911 38.4374 35.0347 38.4374Z"/>
  <path d="M14.5368 29.2523C14.3915 29.107 14.19 29.0234 13.9845 29.0234C13.779 29.0234 13.5775 29.107 13.4322 29.2523C13.2868 29.3977 13.2032 29.5992 13.2032 29.8047C13.2032 30.0102 13.2868 30.2117 13.4322 30.357C13.5775 30.5023 13.779 30.5859 13.9845 30.5859C14.19 30.5859 14.3915 30.5023 14.5368 30.357C14.6822 30.2117 14.7657 30.0102 14.7657 29.8047C14.7657 29.5992 14.6821 29.3977 14.5368 29.2523Z"/>
</svg>
