<svg viewBox="0 0 15 15" xmlns="http://www.w3.org/2000/svg">
<path d="M14.9853 4.41004C14.9502 3.61303 14.8213 3.0651 14.6366 2.5903C14.4462 2.08632 14.1532 1.63511 13.7692 1.26001C13.3941 0.879078 12.94 0.583076 12.4418 0.395585C11.9643 0.210956 11.4192 0.0820702 10.6222 0.0469299C9.81923 0.00881367 9.56433 0 7.5278 0C5.49127 0 5.23636 0.00881367 4.43638 0.0439539C3.63937 0.0790941 3.09144 0.208094 2.61676 0.392609C2.11266 0.583076 1.66145 0.876102 1.28635 1.26001C0.905421 1.63511 0.609534 2.0893 0.421929 2.58744C0.2373 3.0651 0.108414 3.61006 0.0732742 4.40707C0.035158 5.21003 0.0263443 5.46493 0.0263443 7.50147C0.0263443 9.538 0.035158 9.79291 0.0702981 10.5929C0.105438 11.3899 0.234438 11.9378 0.419067 12.4126C0.609534 12.9166 0.905421 13.3678 1.28635 13.7429C1.66145 14.1239 2.11564 14.4199 2.61378 14.6073C3.09144 14.792 3.6364 14.9209 4.43352 14.956C5.23339 14.9913 5.48841 15 7.52494 15C9.56146 15 9.81637 14.9913 10.6164 14.956C11.4134 14.9209 11.9613 14.792 12.436 14.6073C13.4441 14.2176 14.2411 13.4206 14.6308 12.4126C14.8153 11.935 14.9443 11.3899 14.9795 10.5929C15.0146 9.79291 15.0234 9.538 15.0234 7.50147C15.0234 5.46493 15.0204 5.21003 14.9853 4.41004ZM13.6345 10.5343C13.6022 11.2669 13.4792 11.6624 13.3766 11.9262C13.1246 12.5796 12.606 13.0983 11.9525 13.3503C11.6888 13.4529 11.2903 13.5759 10.5606 13.6081C9.76944 13.6433 9.53216 13.652 7.53077 13.652C5.52939 13.652 5.28913 13.6433 4.50082 13.6081C3.76826 13.5759 3.37267 13.4529 3.10895 13.3503C2.78376 13.2301 2.48776 13.0397 2.2475 12.7906C1.99843 12.5474 1.80796 12.2543 1.68778 11.9291C1.58522 11.6654 1.46217 11.2669 1.43001 10.5373C1.39475 9.74609 1.38605 9.50869 1.38605 7.5073C1.38605 5.50591 1.39475 5.26565 1.43001 4.47746C1.46217 3.7449 1.58522 3.34931 1.68778 3.08559C1.80796 2.76028 1.99843 2.46439 2.25048 2.22402C2.4936 1.97495 2.78662 1.78448 3.11193 1.66441C3.37565 1.56185 3.77421 1.4388 4.5038 1.40652C5.29497 1.37138 5.53236 1.36257 7.53364 1.36257C9.538 1.36257 9.77528 1.37138 10.5636 1.40652C11.2962 1.4388 11.6917 1.56185 11.9555 1.66441C12.2806 1.78448 12.5767 1.97495 12.8169 2.22402C13.066 2.46726 13.2564 2.76028 13.3766 3.08559C13.4792 3.34931 13.6022 3.74776 13.6345 4.47746C13.6697 5.26863 13.6785 5.50591 13.6785 7.5073C13.6785 9.50869 13.6697 9.74311 13.6345 10.5343Z"/>
<path d="M7.52781 3.64844C5.40051 3.64844 3.67452 5.37431 3.67452 7.50173C3.67452 9.62914 5.40051 11.355 7.52781 11.355C9.65523 11.355 11.3811 9.62914 11.3811 7.50173C11.3811 5.37431 9.65523 3.64844 7.52781 3.64844ZM7.52781 10.0013C6.14773 10.0013 5.02828 8.88193 5.02828 7.50173C5.02828 6.12153 6.14773 5.00219 7.52781 5.00219C8.90801 5.00219 10.0273 6.12153 10.0273 7.50173C10.0273 8.88193 8.90801 10.0013 7.52781 10.0013Z"/>
<path d="M12.4331 3.49576C12.4331 3.99253 12.0303 4.39533 11.5334 4.39533C11.0367 4.39533 10.6339 3.99253 10.6339 3.49576C10.6339 2.99887 11.0367 2.59619 11.5334 2.59619C12.0303 2.59619 12.4331 2.99887 12.4331 3.49576Z"/>
<defs>
<clipPath id="clip0">
<rect width="15" height="15" fill="white"/>
</clipPath>
</defs>
</svg>
