<svg width="16" height="20" viewBox="0 0 16 20" fill="none" xmlns="http://www.w3.org/2000/svg">
<path d="M8 0C4.00606 0 0.75676 3.2493 0.75676 7.2432C0.75676 12.1998 7.23875 19.4763 7.51473 19.7836C7.77395 20.0723 8.22653 20.0718 8.48528 19.7836C8.76125 19.4763 15.2432 12.1998 15.2432 7.2432C15.2432 3.2493 11.9939 0 8 0ZM8 10.8875C5.99055 10.8875 4.35578 9.25266 4.35578 7.2432C4.35578 5.23375 5.99059 3.59898 8 3.59898C10.0094 3.59898 11.6442 5.23379 11.6442 7.24324C11.6442 9.2527 10.0094 10.8875 8 10.8875Z"/>
</svg>
