<svg viewBox="0 0 18 18" xmlns="http://www.w3.org/2000/svg">
  <path d="M12.937 18C12.356 18 11.7799 17.8973 11.2165 17.6926C8.73465 16.791 6.43096 15.3226 4.55439 13.4461C2.67783 11.5696 1.20941 9.26582 0.307867 6.78396C0.0181558 5.98637 -0.0673407 5.16305 0.0538379 4.33677C0.167353 3.5628 0.467153 2.81144 0.920861 2.16388C1.37657 1.51348 1.98412 0.972523 2.67779 0.599495C3.41752 0.201718 4.22492 0 5.07764 0C5.34284 0 5.57205 0.185301 5.62763 0.444603L6.51051 4.56471C6.55048 4.75128 6.49314 4.9454 6.35825 5.08033L4.84966 6.58889C6.27279 9.41836 8.58204 11.7276 11.4115 13.1507L12.9201 11.6421C13.055 11.5073 13.2491 11.45 13.4357 11.4899L17.5558 12.3728C17.8151 12.4283 18.0004 12.6576 18.0004 12.9228C18.0004 13.7755 17.7987 14.5829 17.4009 15.3226C17.0278 16.0163 16.4869 16.6239 15.8365 17.0796C15.189 17.5333 14.4376 17.8331 13.6636 17.9466C13.4211 17.9822 13.1786 18 12.937 18ZM4.62822 1.14956C3.50344 1.27373 2.50511 1.86328 1.84216 2.80947C1.09667 3.87343 0.92283 5.18206 1.36522 6.3999C3.09849 11.1713 6.82915 14.902 11.6006 16.6353C12.8184 17.0776 14.127 16.9038 15.191 16.1583C16.1372 15.4954 16.7267 14.497 16.8509 13.3723L13.4992 12.654L11.9237 14.2295C11.7561 14.3972 11.5013 14.4417 11.2868 14.3409C7.94043 12.7688 5.23168 10.06 3.65956 6.71365C3.55877 6.4991 3.60328 6.24437 3.77093 6.07675L5.34643 4.50126L4.62822 1.14956Z"/>
  <path d="M17.4375 9.56211C17.1269 9.56211 16.875 9.31026 16.875 8.99963C16.875 4.65752 13.3425 1.12495 9.00034 1.12495C8.68971 1.12495 8.43787 0.873105 8.43787 0.562477C8.43787 0.251849 8.68971 0 9.00034 0C11.4043 0 13.6643 0.936102 15.3641 2.63591C17.0639 4.33571 18 6.59571 18 8.99963C18 9.31026 17.7482 9.56211 17.4375 9.56211Z"/>
  <path d="M15.1876 9.56196C14.877 9.56196 14.6251 9.31011 14.6251 8.99948C14.6251 5.89798 12.1018 3.37471 9.00034 3.37471C8.68971 3.37471 8.43787 3.12286 8.43787 2.81223C8.43787 2.5016 8.68971 2.24976 9.00034 2.24976C12.7221 2.24976 15.7501 5.27768 15.7501 8.99948C15.7501 9.31011 15.4983 9.56196 15.1876 9.56196Z"/>
  <path d="M12.9377 9.56205C12.6271 9.56205 12.3752 9.3102 12.3752 8.99957C12.3752 7.13865 10.8613 5.62471 9.00034 5.62471C8.68971 5.62471 8.43787 5.37286 8.43787 5.06223C8.43787 4.75161 8.68971 4.49976 9.00034 4.49976C11.4816 4.49976 13.5002 6.51835 13.5002 8.99957C13.5002 9.3102 13.2483 9.56205 12.9377 9.56205Z"/>
</svg>
