<svg viewBox="0 0 60 60" xmlns="http://www.w3.org/2000/svg">
  <path d="M9.87111 28.9112H14.7441C15.2293 28.9112 15.6226 28.518 15.6226 28.0327C15.6226 27.5475 15.2293 27.1543 14.7441 27.1543H9.87111C9.38596 27.1543 8.99268 27.5475 8.99268 28.0327C8.99268 28.518 9.38607 28.9112 9.87111 28.9112Z"/>
  <path d="M9.87111 32.7569H14.7441C15.2293 32.7569 15.6226 32.3636 15.6226 31.8784C15.6226 31.3933 15.2293 31 14.7441 31H9.87111C9.38596 31 8.99268 31.3933 8.99268 31.8784C8.99279 32.3636 9.38607 32.7569 9.87111 32.7569Z"/>
  <path d="M14.4497 35.7241C14.4497 36.2093 14.843 36.6026 15.3281 36.6026H20.8438C21.329 36.6026 21.7223 36.2094 21.7223 35.7241C21.7223 35.2389 21.329 34.8457 20.8438 34.8457H15.3281C14.843 34.8457 14.4497 35.239 14.4497 35.7241Z"/>
  <path d="M9.87111 36.6026H11.3363C11.8215 36.6026 12.2147 36.2094 12.2147 35.7241C12.2147 35.2389 11.8215 34.8457 11.3363 34.8457H9.87111C9.38596 34.8457 8.99268 35.2389 8.99268 35.7241C8.99268 36.2094 9.38607 36.6026 9.87111 36.6026Z"/>
  <path d="M9.87111 40.5118H23.0072C23.4924 40.5118 23.8857 40.1185 23.8857 39.6333C23.8857 39.1482 23.4924 38.7549 23.0072 38.7549H9.87111C9.38596 38.7549 8.99268 39.1482 8.99268 39.6333C8.99279 40.1185 9.38607 40.5118 9.87111 40.5118Z"/>
  <path d="M52.3381 39.0017C54.7135 37.1866 56.6678 34.8153 57.9898 32.1439C59.3783 29.3381 60.0535 26.3152 59.9965 23.1593C59.9065 18.1718 57.9542 13.4703 54.4989 9.92078C54.1608 9.5732 53.6046 9.56559 53.2567 9.90414C52.9092 10.2425 52.9015 10.7986 53.2401 11.1463C56.3824 14.3744 58.1581 18.6521 58.2399 23.1911C58.2917 26.0632 57.6778 28.8133 56.4151 31.3648C55.2121 33.7955 53.4336 35.9536 51.2713 37.6057C50.7204 38.0266 50.3695 38.6589 50.3084 39.3407C50.1541 41.0611 51.1192 42.6244 52.0907 43.7349C50.0169 43.3987 48.3561 42.6106 47.1418 41.3836C46.5309 40.7662 45.6282 40.5118 44.7857 40.7198C43.2083 41.1097 41.5761 41.2804 39.9365 41.2268C35.3322 41.0771 31.0208 39.156 27.7965 35.8173C24.5728 32.4791 22.8009 28.1028 22.8071 23.4939C22.8134 18.8269 24.6189 14.4241 27.891 11.0965C31.1592 7.77297 35.5226 5.8934 40.1776 5.80398C43.772 5.73519 47.2501 6.72566 50.2297 8.66933C50.636 8.93441 51.1804 8.8198 51.4453 8.41363C51.7103 8.00734 51.5958 7.46301 51.1895 7.19805C47.9136 5.06101 44.0956 3.97375 40.1438 4.04746C35.0268 4.14578 30.2304 6.2118 26.6384 9.86488C25.216 11.3114 24.0468 12.9434 23.1513 14.7045C22.0742 14.4994 20.9727 14.3836 19.8558 14.3621C14.6252 14.2662 9.68408 16.1911 5.94298 19.7954C2.20669 23.395 0.0971991 28.2529 0.00298037 33.4741C-0.0251446 35.0313 0.130832 36.5839 0.46634 38.0889C0.571809 38.5625 1.04138 38.86 1.51493 38.7551C1.98849 38.6495 2.28673 38.1801 2.18114 37.7065C1.87575 36.3373 1.73396 34.9239 1.7595 33.5057C1.84517 28.7542 3.76376 24.3344 7.16185 21.0606C10.5646 17.7822 15.0622 16.0285 19.822 16.1186C20.6956 16.1354 21.5585 16.2171 22.4062 16.358C21.5201 18.6011 21.0535 21.0121 21.0501 23.4916C21.0432 28.5589 22.9902 33.3696 26.5326 37.0377C28.9236 39.5137 31.8599 41.2789 35.0724 42.2166C34.3086 43.6285 33.3481 44.9461 32.2029 46.132C28.9786 49.4706 24.6673 51.3919 20.063 51.5415C18.4226 51.5951 16.791 51.4243 15.2137 51.0344C14.3715 50.8266 13.4689 51.0808 12.8577 51.6982C11.6435 52.9251 9.98267 53.7133 7.9088 54.0495C8.88005 52.939 9.84533 51.3759 9.69099 49.6554C9.62994 48.9736 9.27896 48.3412 8.72806 47.9202C6.4599 46.1873 4.62368 43.9097 3.41794 41.334C3.21239 40.8945 2.6895 40.7055 2.24993 40.9108C1.8106 41.1165 1.62111 41.6393 1.82677 42.0788C3.15181 44.9097 5.16943 47.4123 7.6613 49.3162C7.82185 49.4389 7.92392 49.6196 7.94103 49.8122C8.00185 50.4903 7.79583 51.9039 5.73251 53.7544C5.32611 54.119 5.20013 54.6795 5.41154 55.1824C5.61919 55.6763 6.13447 55.9887 6.66064 55.9546C9.82048 55.7497 12.3256 54.7334 14.1063 52.9341C14.2873 52.7512 14.5434 52.6783 14.7922 52.74C16.5258 53.1685 18.319 53.3562 20.12 53.2974C25.1833 53.1327 29.9232 51.0215 33.4666 47.3523C34.8346 45.9358 35.9642 44.3486 36.8356 42.6422C37.8319 42.8337 38.8487 42.9493 39.8791 42.9828C41.6801 43.0414 43.4728 42.8538 45.2067 42.4254C45.4554 42.364 45.7117 42.4366 45.8927 42.6195C47.6736 44.4189 50.1787 45.4352 53.3385 45.6401C53.8703 45.6756 54.3812 45.3589 54.5875 44.8679C54.7989 44.3649 54.6728 43.8045 54.2664 43.4399C52.2031 41.5894 51.9971 40.1757 52.0579 39.4977C52.0755 39.3052 52.1774 39.1243 52.3381 39.0017Z"/>
  <path d="M44.0986 16.355V29.7063C44.0986 30.1914 44.4919 30.5847 44.9771 30.5847C45.4622 30.5847 45.8555 30.1916 45.8555 29.7063V16.355C45.8555 15.8698 45.4622 15.4766 44.9771 15.4766C44.4919 15.4766 44.0986 15.8697 44.0986 16.355Z"/>
  <path d="M40.2188 30.5847C40.704 30.5847 41.0972 30.1916 41.0972 29.7063V16.355C41.0972 15.8698 40.704 15.4766 40.2188 15.4766C39.7337 15.4766 39.3404 15.8697 39.3404 16.355V21.9232H31.858V16.355C31.858 15.8698 31.4647 15.4766 30.9795 15.4766C30.4944 15.4766 30.1011 15.8697 30.1011 16.355V29.7063C30.1011 30.1914 30.4944 30.5847 30.9795 30.5847C31.4647 30.5847 31.858 30.1916 31.858 29.7063V23.68H39.3404V29.7063C39.3404 30.1914 39.7337 30.5847 40.2188 30.5847Z"/>
  <path d="M49.1821 30.6816C49.6727 30.6816 50.0703 30.284 50.0703 29.7934C50.0703 29.3029 49.6727 28.9053 49.1821 28.9053C48.6916 28.9053 48.2939 29.3029 48.2939 29.7934C48.2939 30.284 48.6916 30.6816 49.1821 30.6816Z"/>
  <path d="M49.1821 27.1712C49.6673 27.1712 50.0606 26.778 50.0606 26.2927V16.355C50.0606 15.8698 49.6673 15.4766 49.1821 15.4766C48.697 15.4766 48.3037 15.8697 48.3037 16.355V26.2927C48.3037 26.778 48.697 27.1712 49.1821 27.1712Z"/>
</svg>
