<svg viewBox="0 0 60 60" xmlns="http://www.w3.org/2000/svg">
  <path d="M59.9871 55.766L56.4718 36.3835C56.3851 35.9049 55.9268 35.5872 55.4482 35.6741C54.9696 35.7608 54.6522 36.2192 54.7389 36.6977L56.2252 44.8929L44.7664 31.5828L52.4733 29.8628L53.6145 30.498L54.1099 33.2304C54.1967 33.709 54.655 34.0264 55.1336 33.9398C55.6122 33.8531 55.9296 33.3947 55.843 32.9162L55.273 29.7739C55.226 29.5145 55.0652 29.2898 54.835 29.1616L53.037 28.1607C53.037 28.1607 53.037 28.1607 53.0369 28.1607L47.3547 24.9977H47.3546L42.9704 22.5572C42.9703 22.5572 42.9701 22.5571 42.9701 22.5571C42.9698 22.557 42.9696 22.5567 42.9692 22.5565C42.9353 22.5378 42.9007 22.5216 42.8651 22.5076C42.854 22.5033 42.8426 22.5004 42.8313 22.4965C42.8065 22.4878 42.7817 22.4795 42.7565 22.4731C42.7422 22.4694 42.7278 22.4673 42.7133 22.4645C42.6906 22.4601 42.6679 22.4556 42.6451 22.4529C42.6296 22.451 42.6142 22.4505 42.5987 22.4495C42.5765 22.4481 42.5544 22.4469 42.5322 22.4472C42.5164 22.4473 42.5007 22.4485 42.4849 22.4494C42.4631 22.4508 42.4413 22.4528 42.4195 22.4558C42.4037 22.4581 42.3878 22.4609 42.3721 22.464C42.3508 22.4683 42.3297 22.4732 42.3086 22.4789C42.2928 22.4833 42.2771 22.4879 42.2615 22.4931C42.2411 22.5 42.221 22.5079 42.2009 22.5163C42.1855 22.5229 42.1701 22.5293 42.1548 22.5368C42.1481 22.5401 42.1412 22.5423 42.1346 22.5457L40.1227 23.5944C41.6194 20.8036 42.3755 18.1007 42.3755 15.5149C42.3755 8.72211 36.8492 3.1958 30.0565 3.1958C23.2637 3.1958 17.7381 8.72211 17.7381 15.5149C17.7381 18.1258 18.5083 20.8561 20.0343 23.6758L17.8664 22.5457C17.8598 22.5422 17.8526 22.5399 17.8458 22.5366C17.8311 22.5293 17.8158 22.523 17.8008 22.5167C17.7806 22.5081 17.76 22.5001 17.7393 22.4931C17.7239 22.4879 17.7084 22.4834 17.6928 22.479C17.6717 22.4733 17.6505 22.4683 17.6291 22.464C17.6133 22.4609 17.5974 22.4581 17.5814 22.4558C17.56 22.4528 17.5384 22.4509 17.5169 22.4495C17.5007 22.4485 17.4845 22.4474 17.4685 22.4472C17.4469 22.4469 17.4255 22.4481 17.4039 22.4494C17.3877 22.4505 17.3716 22.451 17.3554 22.453C17.3335 22.4556 17.3118 22.4599 17.2901 22.4642C17.2748 22.4672 17.2593 22.4694 17.2441 22.4733C17.22 22.4794 17.1965 22.4875 17.1729 22.4956C17.1606 22.4998 17.1481 22.5031 17.1358 22.5079C17.1004 22.5218 17.0658 22.538 17.0321 22.5566C17.0317 22.5567 17.0315 22.557 17.0311 22.5572C17.031 22.5572 17.031 22.5573 17.0309 22.5573L5.16654 29.1616C4.93615 29.2898 4.77537 29.5145 4.72849 29.7739L1.38667 48.1998C1.29995 48.6783 1.61753 49.1368 2.09612 49.2235C2.57483 49.3105 3.03303 48.9926 3.11975 48.514L4.12228 42.9862L15.52 36.9611L14.6034 48.7963L2.04596 54.4348L2.48788 51.9973C2.5746 51.5188 2.25714 51.0605 1.77854 50.9737C1.3003 50.8872 0.84175 51.2045 0.754915 51.6831L0.0144099 55.7661C-0.0439492 56.0877 0.0807378 56.4152 0.338081 56.6167C0.495931 56.7402 0.687532 56.8038 0.880891 56.8038C1.00312 56.8038 1.12605 56.7784 1.24148 56.7266L15.4408 50.351L29.6341 56.7239C29.6345 56.724 29.6348 56.7243 29.6352 56.7244L29.64 56.7265C29.648 56.7301 29.6563 56.7326 29.6645 56.736C29.6775 56.7414 29.6906 56.7464 29.704 56.7512C29.7168 56.7558 29.7296 56.7604 29.7428 56.7643C29.7512 56.7669 29.7596 56.7691 29.7681 56.7715C29.7791 56.7745 29.79 56.7775 29.8012 56.78C29.8195 56.7843 29.838 56.7875 29.8564 56.7906C29.8652 56.792 29.8739 56.7941 29.8828 56.7953C29.8888 56.7961 29.8948 56.7969 29.9007 56.7976C29.9302 56.801 29.9599 56.8028 29.9894 56.8031C29.9932 56.8031 29.9969 56.8038 30.0007 56.8038C30.0026 56.8038 30.0044 56.8035 30.0063 56.8035C30.0419 56.8032 30.0773 56.8003 30.1128 56.7957C30.1172 56.7952 30.1216 56.7954 30.1261 56.7947C30.1328 56.7938 30.1393 56.7915 30.1461 56.7905C30.1737 56.7859 30.2012 56.7799 30.2284 56.7725C30.2359 56.7705 30.2435 56.7694 30.251 56.7673C30.2518 56.767 30.2525 56.767 30.2534 56.7668C30.2558 56.7661 30.258 56.7648 30.2605 56.764C30.2947 56.7534 30.3284 56.7414 30.3615 56.7265L44.5604 50.3509L58.7596 56.7264C58.7733 56.7325 58.7873 56.737 58.8014 56.7424C58.8152 56.7478 58.8288 56.7538 58.843 56.7585C58.8614 56.7646 58.8803 56.7691 58.899 56.7739C58.9106 56.777 58.9219 56.7807 58.9337 56.7832C58.9563 56.7881 58.9792 56.7913 59.002 56.7945C59.0102 56.7955 59.0182 56.7974 59.0264 56.7983C59.0577 56.8017 59.089 56.8035 59.1203 56.8035H59.1204C59.1205 56.8035 59.1206 56.8035 59.1206 56.8035C59.1634 56.8035 59.2062 56.7991 59.2488 56.7929C59.2587 56.7915 59.2685 56.79 59.2784 56.7881C59.3204 56.7805 59.3621 56.7707 59.4034 56.7566C59.406 56.7557 59.4086 56.7544 59.4111 56.7536C59.4383 56.7441 59.4654 56.7336 59.4919 56.7211C59.4996 56.7175 59.5063 56.7123 59.5139 56.7084C59.536 56.6973 59.5574 56.6845 59.5787 56.6713C59.6 56.6583 59.6212 56.6452 59.6413 56.6303C59.6482 56.6251 59.6559 56.6215 59.6628 56.6162C59.6783 56.6041 59.6918 56.5902 59.7063 56.5771C59.7179 56.5666 59.73 56.5568 59.7411 56.5459C59.7678 56.5195 59.7922 56.4914 59.8148 56.4622C59.8191 56.4567 59.8241 56.4519 59.8283 56.4463C59.8546 56.4107 59.8778 56.3733 59.8983 56.3344C59.904 56.3235 59.9084 56.3119 59.9137 56.3006C59.9273 56.272 59.9399 56.2432 59.9504 56.2133C59.9557 56.1983 59.9599 56.1831 59.9644 56.1676C59.9723 56.1402 59.979 56.1124 59.9843 56.0842C59.9873 56.068 59.9901 56.0517 59.9923 56.0353C59.9961 56.0054 59.9979 55.9751 59.9987 55.9447C59.9991 55.9303 60.0002 55.916 59.9999 55.9014C59.9992 55.8566 59.9954 55.8113 59.9871 55.766ZM44.5075 25.4285L43.6047 25.6397L43.5469 24.8938L44.5075 25.4285ZM42.5864 35.2987L38.9086 32.4271C38.654 32.2284 38.3114 32.1848 38.0151 32.3136L30.885 35.417V34.4519C31.4177 34.018 32.6281 32.9949 34.0789 31.5267L42.0239 28.0364L42.5864 35.2987ZM41.7672 24.7238L41.8797 26.1759L36.9165 28.3564C37.4093 27.7455 37.8688 27.1379 38.2952 26.5336L41.7672 24.7238ZM18.2343 24.7238L21.8847 26.6266C22.4253 27.3868 23.0174 28.1525 23.6628 28.9233C24.227 29.5971 24.7894 30.2232 25.3304 30.7964L17.8469 29.7255L18.2343 24.7238ZM15.6808 34.8839L4.52177 40.7826L5.06529 37.7857L5.07923 37.7084L15.9038 32.0037L15.6808 34.8839ZM16.0647 29.928L5.47861 35.5072L6.38704 30.4982L16.4546 24.8939L16.2016 28.1612L16.0647 29.928ZM16.3668 48.8361L17.2006 38.0702L27.6033 53.8813L16.3668 48.8361ZM29.12 45.4418L23.6951 36.8921L29.12 37.5417V45.4418ZM29.12 35.7677L22.062 34.9227C21.7246 34.8829 21.3935 35.0399 21.2123 35.3277C21.031 35.6154 21.0316 35.9817 21.2138 36.269L29.12 48.7293V52.9825L17.4225 35.2034L17.7106 31.4853L27.4269 32.8756C28.1597 33.5557 28.7537 34.0606 29.1199 34.3622V35.7677H29.12ZM30.0572 32.8478C27.8333 30.9722 19.4994 23.4149 19.4994 15.515C19.4993 9.69335 24.2356 4.95712 30.0572 4.95712C35.8788 4.95712 40.615 9.69335 40.615 15.515C40.615 23.4149 32.281 30.9723 30.0572 32.8478ZM30.8814 54.5624V50.6534L33.5141 53.3802L30.8814 54.5624ZM35.222 52.6133L30.8814 48.1176V37.3392L38.2374 34.1376L42.7703 37.677L43.6346 48.8361L35.222 52.6133ZM43.7422 27.4161L46.7955 26.7021L48.9609 27.9075L50.159 28.5745L43.9393 29.9626L43.7422 27.4161ZM45.3981 48.7963L44.7106 39.9194L56.0238 53.5675L45.3981 48.7963ZM44.4749 36.8752L44.2356 33.785L44.2256 33.6541L56.8454 48.313L57.6546 52.7747L44.4749 36.8752Z"/>
  <path d="M30.0568 10.0723C29.5704 10.0723 29.1761 10.4665 29.1761 10.9529C29.1761 11.4394 29.5704 11.8336 30.0568 11.8336C32.0868 11.8336 33.7383 13.4851 33.7383 15.5151C33.7383 17.545 32.0868 19.1967 30.0568 19.1967C28.0267 19.1967 26.3752 17.5452 26.3752 15.5151C26.3752 14.544 26.75 13.6277 27.4306 12.9349C27.7715 12.588 27.7666 12.0305 27.4196 11.6897C27.0726 11.3488 26.515 11.3536 26.1742 11.7007C25.1681 12.7248 24.614 14.0795 24.614 15.5151C24.614 18.5163 27.0556 20.958 30.0569 20.958C33.0582 20.958 35.4998 18.5163 35.4998 15.5151C35.4996 12.5139 33.058 10.0723 30.0568 10.0723Z"/>
</svg>
