<svg viewBox="0 0 55 55" xmlns="http://www.w3.org/2000/svg">
  <path d="M53.8322 20.6123H3.39678C2.76405 20.6123 2.25049 21.1259 2.25049 21.7586V49.2688C2.25049 52.4279 4.82044 55.0001 7.98175 55.0001H49.2471C52.4085 55.0001 54.9783 52.4279 54.9783 49.2688V21.7586C54.9784 21.1258 54.465 20.6123 53.8322 20.6123ZM52.6859 49.2687C52.6859 51.1646 51.1431 52.7075 49.2472 52.7075H7.98185C6.08591 52.7075 4.54308 51.1646 4.54308 49.2687V22.9048H52.6859V49.2687Z"/>
  <path d="M54.9403 10.0047L52.9893 2.60218C52.54 0.802517 50.7015 -0.327658 48.8789 0.0849951L2.6938 11.0432C1.78597 11.2495 1.01794 11.802 0.529631 12.5953C0.0413243 13.3884 -0.103104 14.3238 0.126112 15.2316L2.28566 23.7689C2.41408 24.287 2.88175 24.6332 3.39521 24.6332C3.48687 24.6332 3.5809 24.6241 3.67944 24.5989C4.29154 24.4453 4.66293 23.8217 4.50701 23.2073L4.38095 22.7099L54.085 11.4169C54.3876 11.3459 54.6512 11.1579 54.8118 10.892C54.9747 10.626 55.0182 10.305 54.9403 10.0047ZM3.81947 20.4861L2.34767 14.6745C2.27202 14.3719 2.32242 14.0602 2.48296 13.7942C2.64577 13.5306 2.90249 13.3472 3.21424 13.2738L49.3993 2.31794C49.4818 2.29731 49.5666 2.28818 49.6491 2.28818C50.1627 2.28818 50.6372 2.64119 50.7679 3.17076L52.4208 9.44083L3.81947 20.4861Z"/>
  <path d="M13.08 20.7318C12.5114 20.4545 11.8283 20.6791 11.5394 21.2454L6.95433 30.4154C6.67235 30.9817 6.90157 31.6694 7.46789 31.9538C7.63521 32.0363 7.80951 32.0753 7.98145 32.0753C8.40098 32.0753 8.80676 31.8437 9.00847 31.4403L13.5935 22.2703C13.8755 21.7038 13.6462 21.0161 13.08 20.7318Z"/>
  <path d="M24.5406 20.7318C23.9744 20.4545 23.2866 20.6791 23.0023 21.2454L18.4172 30.4154C18.1352 30.9817 18.3645 31.6694 18.9308 31.9538C19.0981 32.0363 19.2724 32.0753 19.4443 32.0753C19.8639 32.0753 20.2697 31.8437 20.4691 31.4403L25.0542 22.2703C25.336 21.7038 25.1068 21.0161 24.5406 20.7318Z"/>
  <path d="M36.003 20.7318C35.439 20.4545 34.7513 20.6791 34.4647 21.2454L29.8796 30.4154C29.5976 30.9817 29.8269 31.6694 30.3932 31.9538C30.5605 32.0363 30.7348 32.0753 30.9067 32.0753C31.3263 32.0753 31.7321 31.8437 31.9315 31.4403L36.5166 22.2703C36.7985 21.7038 36.5692 21.0161 36.003 20.7318Z"/>
  <path d="M47.4654 20.7318C46.8968 20.4545 46.2137 20.6791 45.9271 21.2454L41.342 30.4154C41.06 30.9817 41.2893 31.6694 41.8556 31.9538C42.0229 32.0363 42.1972 32.0753 42.3692 32.0753C42.7887 32.0753 43.1945 31.8437 43.3939 31.4403L47.979 22.2703C48.2609 21.7038 48.0316 21.0161 47.4654 20.7318Z"/>
  <path d="M53.8322 29.7827H3.39678C2.76405 29.7827 2.25049 30.2963 2.25049 30.929C2.25049 31.5617 2.76405 32.0753 3.39678 32.0753H53.8322C54.4672 32.0753 54.9785 31.5617 54.9785 30.929C54.9785 30.2963 54.465 29.7827 53.8322 29.7827Z"/>
  <path d="M14.4807 18.6111L6.58528 10.7157C6.13823 10.2686 5.41147 10.2686 4.96443 10.7157C4.51739 11.1627 4.51739 11.8895 4.96443 12.3365L12.8599 20.2342C13.0846 20.4565 13.3779 20.5689 13.6714 20.5689C13.9649 20.5689 14.2583 20.4566 14.4807 20.2319C14.9277 19.7848 14.9277 19.0581 14.4807 18.6111Z"/>
  <path d="M25.6955 16.0637L17.7933 8.16829C17.3462 7.72125 16.6195 7.72125 16.1724 8.16829C15.7254 8.61533 15.7254 9.34209 16.1724 9.78913L24.0725 17.6846C24.2972 17.9069 24.5906 18.0193 24.884 18.0193C25.1775 18.0193 25.4709 17.907 25.6956 17.6846C26.1426 17.2375 26.1426 16.5108 25.6955 16.0637Z"/>
  <path d="M36.9016 13.5171L29.013 5.61946C28.566 5.17242 27.8392 5.17242 27.3922 5.61946C26.9451 6.0665 26.9451 6.79326 27.3922 7.24031L35.2807 15.138C35.5054 15.3603 35.7988 15.4727 36.0923 15.4727C36.3857 15.4727 36.6791 15.3627 36.9016 15.138C37.3486 14.691 37.3486 13.9642 36.9016 13.5171Z"/>
  <path d="M48.1027 10.9722L40.2117 3.07454C39.7647 2.6275 39.0379 2.6275 38.5909 3.07454C38.1439 3.52158 38.1439 4.24834 38.5909 4.69538L46.4817 12.5931C46.7064 12.8154 46.9998 12.9278 47.2933 12.9278C47.5867 12.9278 47.8801 12.8155 48.1026 12.5931C48.5497 12.146 48.5497 11.4193 48.1027 10.9722Z"/>
</svg>
