<svg viewBox="0 0 26 26" xmlns="http://www.w3.org/2000/svg">
  <path d="M25.293 15.6045C25.4749 14.7454 25.567 13.8706 25.567 13C25.567 9.64328 24.2598 6.4875 21.8863 4.11388C19.5127 1.74025 16.3569 0.433029 13.0002 0.433029C12.1312 0.433029 11.2564 0.52507 10.3959 0.707169C9.42409 0.24379 8.34915 0 7.26926 0C3.26091 0 0 3.26091 0 7.26906C0 8.34856 0.24379 9.42349 0.707169 10.3959C0.525467 11.2548 0.433426 12.1294 0.433426 13C0.433426 16.3567 1.74065 19.5125 4.11407 21.8861C6.4875 24.2596 9.64328 25.5668 13.0002 25.5668C13.8692 25.5668 14.7438 25.4745 15.6041 25.2928C16.5763 25.7562 17.6512 26 18.7311 26C22.7393 26 26 22.7391 26 18.7311C26 17.6516 25.7562 16.5767 25.293 15.6045ZM18.7311 24.4766C17.7885 24.4766 16.8893 24.2546 16.0582 23.8166C15.9479 23.7585 15.8259 23.7287 15.7031 23.7287C15.645 23.7287 15.5867 23.7355 15.5293 23.749C14.6952 23.9444 13.8444 24.0433 13.0002 24.0433C6.91081 24.0433 1.95686 19.0894 1.95686 13C1.95686 12.1542 2.05585 11.3034 2.25124 10.4713C2.29309 10.2925 2.26909 10.1047 2.18359 9.94221C1.74541 9.11047 1.52344 8.21109 1.52344 7.26906C1.52344 4.10098 4.10098 1.52344 7.26926 1.52344C8.21188 1.52344 9.11087 1.74541 9.94162 2.1832C10.1041 2.26889 10.2919 2.29289 10.4707 2.25104C11.305 2.05565 12.156 1.95647 13.0002 1.95647C19.0896 1.95647 24.0435 6.91061 24.0435 13C24.0435 13.8458 23.9445 14.6968 23.7492 15.5291C23.7071 15.7079 23.7311 15.8957 23.8166 16.0582C24.2546 16.8897 24.4766 17.7889 24.4766 18.7311C24.4766 21.8992 21.8992 24.4766 18.7311 24.4766Z"/>
  <path d="M12.9998 7.11104C15.2467 7.11104 17.1452 8.28496 17.1452 9.6745C17.1452 10.0952 17.4862 10.4362 17.9069 10.4362C18.3274 10.4362 18.6686 10.0952 18.6686 9.6745C18.6686 8.52577 18.0392 7.4669 16.8968 6.69269C15.8451 5.97997 14.4611 5.5874 12.9998 5.5874C11.5384 5.5874 10.1544 5.97997 9.10272 6.69269C7.96014 7.4669 7.33093 8.52577 7.33093 9.6745C7.33093 10.8232 7.96014 11.8823 9.10272 12.6565C10.1543 13.3692 11.5382 13.7616 12.9998 13.7616C15.2467 13.7616 17.1452 14.9355 17.1452 16.3253C17.1452 17.7148 15.2467 18.8887 12.9998 18.8887C10.7527 18.8887 8.85437 17.7148 8.85437 16.3253C8.85437 15.9045 8.51338 15.5635 8.09265 15.5635C7.67212 15.5635 7.33093 15.9045 7.33093 16.3253C7.33093 17.4738 7.96014 18.5329 9.10272 19.3071C10.1544 20.0196 11.5384 20.4122 12.9998 20.4122C14.4611 20.4122 15.8451 20.0196 16.8968 19.3071C18.0392 18.5329 18.6686 17.4738 18.6686 16.3253C18.6686 15.1763 18.0392 14.1175 16.8968 13.3432C15.8451 12.6307 14.4611 12.2382 12.9998 12.2382C10.7527 12.2382 8.85437 11.0642 8.85437 9.6745C8.85437 8.28496 10.7527 7.11104 12.9998 7.11104Z"/>
</svg>
