<svg viewBox="0 0 40 40" xmlns="http://www.w3.org/2000/svg">
  <path d="M29.6844 4.44766C29.539 4.30234 29.3375 4.21875 29.132 4.21875C28.9258 4.21875 28.725 4.30234 28.5797 4.44766C28.4344 4.59297 28.3508 4.79453 28.3508 5C28.3508 5.20547 28.4344 5.40703 28.5797 5.55234C28.725 5.69766 28.9266 5.78125 29.132 5.78125C29.3375 5.78125 29.539 5.69766 29.6844 5.55234C29.8297 5.40703 29.9133 5.20547 29.9133 5C29.9133 4.79453 29.8297 4.59297 29.6844 4.44766Z"/>
  <path d="M25.792 4.21875H2.34375C1.05141 4.21875 0 5.27016 0 6.5625V26.5625C0 27.8548 1.05141 28.9062 2.34375 28.9062H4.45312C4.88461 28.9062 5.23438 28.5564 5.23438 28.125C5.23438 27.6936 4.88461 27.3438 4.45312 27.3438H2.34375C1.91297 27.3438 1.5625 26.9933 1.5625 26.5625V6.5625C1.5625 6.13172 1.91297 5.78125 2.34375 5.78125H25.792C26.2235 5.78125 26.5733 5.43148 26.5733 5C26.5733 4.56852 26.2235 4.21875 25.792 4.21875Z"/>
  <path d="M8.46717 27.5727C8.32186 27.4273 8.12108 27.3438 7.91483 27.3438C7.70936 27.3438 7.50779 27.4273 7.36248 27.5727C7.21717 27.718 7.13358 27.9195 7.13358 28.125C7.13358 28.3305 7.21717 28.532 7.36248 28.6773C7.50779 28.8226 7.70936 28.9062 7.91483 28.9062C8.12029 28.9062 8.32186 28.8227 8.46717 28.6773C8.61248 28.532 8.69608 28.3305 8.69608 28.125C8.69608 27.9195 8.61248 27.718 8.46717 27.5727Z"/>
  <path d="M37.6563 4.21875H32.0573C31.6258 4.21875 31.276 4.56852 31.276 5C31.276 5.43148 31.6258 5.78125 32.0573 5.78125H37.6563C38.087 5.78125 38.4375 6.13172 38.4375 6.5625V26.5625C38.4375 26.9933 38.087 27.3438 37.6563 27.3438H10.9635C10.532 27.3438 10.1823 27.6936 10.1823 28.125C10.1823 28.5564 10.532 28.9062 10.9635 28.9062H16.836V31.4512L13.2227 33.8013C12.8195 34.0634 12.6406 34.5494 12.7773 35.0105C12.914 35.4715 13.329 35.7812 13.8099 35.7812H26.1901C26.671 35.7812 27.086 35.4715 27.2227 35.0105C27.3594 34.5495 27.1804 34.0634 26.7773 33.8013L23.164 31.4512V28.9062H37.6563C38.9486 28.9062 40 27.8548 40 26.5625V6.5625C40 5.27016 38.9486 4.21875 37.6563 4.21875ZM24.5535 34.2188H15.4466L18.0431 32.5299C18.2647 32.3858 18.3985 32.1394 18.3985 31.875V28.9062H21.6016V31.875C21.6016 32.1394 21.7353 32.3858 21.9569 32.5299L24.5535 34.2188Z"/>
  <path d="M23.6978 19.6903L21.2348 14.0653C21.1089 13.7776 20.8234 13.5952 20.5087 13.5974C20.1946 13.6017 19.9136 13.7935 19.7954 14.0845L17.5104 19.7095C17.348 20.1093 17.5404 20.565 17.9402 20.7274C18.0365 20.7665 18.1361 20.785 18.2339 20.785C18.5425 20.785 18.8347 20.6011 18.958 20.2976L20.5461 16.3881L22.2664 20.317C22.4394 20.7122 22.9 20.8923 23.2954 20.7193C23.6907 20.5462 23.8708 20.0856 23.6978 19.6903Z"/>
  <path d="M27.6781 17.9724H27.7255C28.9317 17.9724 29.913 16.9911 29.913 15.7849C29.913 14.5787 28.9317 13.5974 27.7255 13.5974H25.7919C25.3605 13.5974 25.0108 13.9472 25.0108 14.3787V17.1912V20.0037C25.0108 20.4351 25.3605 20.7849 25.792 20.7849C26.2235 20.7849 26.5733 20.4351 26.5733 20.0037V19.0773L28.0583 20.5623C28.2109 20.7148 28.4108 20.7912 28.6107 20.7912C28.8106 20.7912 29.0106 20.7148 29.1631 20.5623C29.4682 20.2573 29.4682 19.7626 29.1631 19.4574L27.6781 17.9724ZM26.5733 15.1599H27.7256C28.0702 15.1599 28.3506 15.4403 28.3506 15.7849C28.3506 16.1295 28.0702 16.4099 27.7256 16.4099H26.5733V15.1599Z"/>
  <path d="M6.50883 16.4099H6.40625C6.06164 16.4099 5.78125 16.1295 5.78125 15.7849C5.78125 15.4403 6.06164 15.1599 6.40625 15.1599H7.1143C7.54578 15.1599 7.89555 14.8101 7.89555 14.3787C7.89555 13.9472 7.54578 13.5974 7.1143 13.5974H6.40625C5.20008 13.5974 4.21875 14.5787 4.21875 15.7849C4.21875 16.9911 5.20008 17.9724 6.40625 17.9724H6.50883C6.85344 17.9724 7.13383 18.2528 7.13383 18.5974C7.13383 18.942 6.85344 19.2224 6.50883 19.2224H5C4.56852 19.2224 4.21875 19.5722 4.21875 20.0037C4.21875 20.4351 4.56852 20.7849 5 20.7849H6.50883C7.715 20.7849 8.69633 19.8037 8.69633 18.5974C8.69633 17.3912 7.715 16.4099 6.50883 16.4099Z"/>
  <path d="M15.4173 13.6579C15.1267 13.5363 14.7915 13.6013 14.5672 13.8227L12.7941 15.5727L11.0211 13.8227C10.7968 13.6013 10.4615 13.5363 10.1709 13.6579C9.88023 13.7794 9.69101 14.0636 9.69101 14.3787V20.0037C9.69101 20.4352 10.0408 20.7849 10.4723 20.7849C10.9037 20.7849 11.2535 20.4352 11.2535 20.0037V16.2474L12.2453 17.2263C12.5496 17.5267 13.0387 17.5267 13.343 17.2263L14.3348 16.2474V20.0037C14.3348 20.4352 14.6845 20.7849 15.116 20.7849C15.5475 20.7849 15.8973 20.4352 15.8973 20.0037V14.3787C15.8973 14.0636 15.708 13.7794 15.4173 13.6579Z"/>
  <path d="M34.8698 13.5974H32.0573C31.6258 13.5974 31.276 13.9472 31.276 14.3787C31.276 14.8101 31.6258 15.1599 32.0573 15.1599H32.6823V19.9238C32.6823 20.3553 33.0321 20.7051 33.4635 20.7051C33.895 20.7051 34.2448 20.3552 34.2448 19.9238V15.1599H34.8698C35.3012 15.1599 35.651 14.8101 35.651 14.3787C35.651 13.9472 35.3012 13.5974 34.8698 13.5974Z" />
</svg>
