<svg width="35" height="35" viewBox="0 0 35 35" fill="none" xmlns="http://www.w3.org/2000/svg">
<path d="M0 26.3441C0 27.7917 1.17353 28.9653 2.62124 28.9653H32.3788C33.8264 28.9653 35 27.7918 35 26.3441V24.1377H0V26.3441Z" fill="#C8414B"/>
<path d="M32.3788 6.03418H2.62124C1.17353 6.03418 0 7.2077 0 8.65542V10.8618H35V8.65542C35 7.2077 33.8265 6.03418 32.3788 6.03418Z" fill="#C8414B"/>
<path d="M35 10.8623H0V24.1384H35V10.8623Z" fill="#FFD250"/>
<path d="M14.7846 17.4998L15.2963 15.1973C15.3434 14.9853 15.182 14.7842 14.9648 14.7842H14.6044C14.3872 14.7842 14.2259 14.9854 14.2729 15.1973L14.7846 17.4998Z" fill="#C8414B"/>
<path d="M15.3881 16.293H14.1812V21.422H15.3881V16.293Z" fill="#F5F5F5"/>
<path d="M15.6894 15.6904H13.879V16.2939H15.6894V15.6904Z" fill="#FAB446"/>
<path d="M15.6898 17.5H12.6724V18.1035H15.6898V17.5Z" fill="#C8414B"/>
<path d="M15.6897 19.9129L13.8793 19.3095V18.7061L15.6897 19.3095V19.9129Z" fill="#C8414B"/>
<path d="M5.73265 17.4998L6.24432 15.1973C6.29149 14.9853 6.13009 14.7842 5.91285 14.7842H5.55245C5.33528 14.7842 5.17395 14.9854 5.22098 15.1973L5.73265 17.4998Z" fill="#C8414B"/>
<path d="M7.84493 15.6895C7.51168 15.6895 7.24146 15.9597 7.24146 16.2929V20.2153C7.24146 20.9485 7.92573 22.3274 10.2587 22.3274C12.5917 22.3274 13.2759 20.9485 13.2759 20.2153V16.2929C13.2759 15.9597 13.0057 15.6895 12.6725 15.6895H7.84493Z" fill="#F5F5F5"/>
<path d="M10.2587 18.7067H7.24146V16.2929C7.24146 15.9597 7.51168 15.6895 7.84493 15.6895H10.2587V18.7067Z" fill="#C8414B"/>
<path d="M10.2586 18.707H13.2758V20.2157C13.2758 21.0489 12.6004 21.7243 11.7672 21.7243C10.934 21.7243 10.2586 21.0489 10.2586 20.2157V18.707Z" fill="#C8414B"/>
<path d="M7.24146 18.707H10.2587V20.2157C10.2587 21.0489 9.58331 21.7243 8.75008 21.7243C7.91685 21.7243 7.24146 21.0489 7.24146 20.2157V18.707Z" fill="#FAB446"/>
<path d="M9.65511 21.4158V18.707H9.05164V21.6939C9.27613 21.6483 9.47895 21.5489 9.65511 21.4158Z" fill="#C8414B"/>
<path d="M8.44822 21.6939V18.707H7.84474V21.4158C8.02097 21.5489 8.22379 21.6483 8.44822 21.6939Z" fill="#C8414B"/>
<path d="M9.65539 17.5H7.84503V18.1035H9.65539V17.5Z" fill="#FFB441"/>
<path d="M9.65539 16.293H7.84503V16.8964H9.65539V16.293Z" fill="#FAB446"/>
<path d="M9.35331 16.6523H8.14642V17.7455H9.35331V16.6523Z" fill="#FAB446"/>
<path d="M6.33591 16.293H5.12903V21.422H6.33591V16.293Z" fill="#F5F5F5"/>
<path d="M6.63798 21.1221H4.82762V21.7255H6.63798V21.1221Z" fill="#FAB446"/>
<path d="M6.63798 15.6904H4.82762V16.2939H6.63798V15.6904Z" fill="#FAB446"/>
<path d="M6.93971 21.7246H4.52594V22.3281H6.93971V21.7246Z" fill="#5064AA"/>
<path d="M15.9916 21.1211H14.1812V21.7246H15.9916V21.1211Z" fill="#FAB446"/>
<path d="M15.9914 21.7246H13.5776V22.3281H15.9914V21.7246Z" fill="#5064AA"/>
<path d="M12.0693 15.0869H8.44858V15.6904H12.0693V15.0869Z" fill="#FAB446"/>
<path d="M10.5607 13.2754H9.95718V15.0857H10.5607V13.2754Z" fill="#FFB441"/>
<path d="M9.65515 14.1814C9.15599 14.1814 8.75 13.7753 8.75 13.2762C8.75 12.7771 9.15605 12.3711 9.65515 12.3711C10.1543 12.3711 10.5603 12.7771 10.5603 13.2762C10.5604 13.7753 10.1543 14.1814 9.65515 14.1814ZM9.65515 12.9745C9.48869 12.9745 9.35341 13.1097 9.35341 13.2762C9.35341 13.4427 9.48862 13.578 9.65515 13.578C9.82167 13.578 9.95688 13.4428 9.95688 13.2762C9.95688 13.1098 9.82167 12.9745 9.65515 12.9745Z" fill="#F5F5F5"/>
<path d="M10.862 14.1814C10.3629 14.1814 9.95689 13.7753 9.95689 13.2762C9.95689 12.7771 10.3629 12.3711 10.862 12.3711C11.3612 12.3711 11.7672 12.7771 11.7672 13.2762C11.7672 13.7753 11.3611 14.1814 10.862 14.1814ZM10.862 12.9745C10.6956 12.9745 10.5603 13.1097 10.5603 13.2762C10.5603 13.4427 10.6955 13.578 10.862 13.578C11.0285 13.578 11.1638 13.4428 11.1638 13.2762C11.1637 13.1098 11.0285 12.9745 10.862 12.9745Z" fill="#F5F5F5"/>
<path d="M12.0689 14.7849C11.5698 14.7849 11.1638 14.3788 11.1638 13.8798C11.1638 13.3806 11.5698 12.9746 12.0689 12.9746C12.5681 12.9746 12.9741 13.3807 12.9741 13.8798C12.9741 14.3788 12.568 14.7849 12.0689 14.7849ZM12.0689 13.578C11.9025 13.578 11.7672 13.7132 11.7672 13.8798C11.7672 14.0462 11.9024 14.1815 12.0689 14.1815C12.2354 14.1815 12.3707 14.0463 12.3707 13.8798C12.3707 13.7132 12.2354 13.578 12.0689 13.578Z" fill="#F5F5F5"/>
<path d="M8.44824 14.7849C7.94908 14.7849 7.54309 14.3788 7.54309 13.8798C7.54309 13.3806 7.94915 12.9746 8.44824 12.9746C8.9474 12.9746 9.35339 13.3807 9.35339 13.8798C9.35345 14.3788 8.9474 14.7849 8.44824 14.7849ZM8.44824 13.578C8.28178 13.578 8.1465 13.7132 8.1465 13.8798C8.1465 14.0462 8.28171 14.1815 8.44824 14.1815C8.61476 14.1815 8.74998 14.0462 8.74998 13.8797C8.74998 13.7132 8.61476 13.578 8.44824 13.578Z" fill="#F5F5F5"/>
<path d="M12.0691 19.914V20.2157C12.0691 20.3821 11.9338 20.5174 11.7674 20.5174C11.601 20.5174 11.4656 20.3821 11.4656 20.2157V19.914H12.0691ZM12.6725 19.3105H10.8622V20.2157C10.8622 20.7149 11.2682 21.1208 11.7673 21.1208C12.2665 21.1208 12.6725 20.7148 12.6725 20.2157V19.3105H12.6725Z" fill="#FAB446"/>
<path d="M11.7673 18.1034C11.434 18.1034 11.1638 17.8332 11.1638 17.4999V16.8964C11.1638 16.5632 11.434 16.293 11.7673 16.293C12.1005 16.293 12.3708 16.5632 12.3708 16.8964V17.4999C12.3708 17.8332 12.1005 18.1034 11.7673 18.1034Z" fill="#FFA0D2"/>
<path d="M10.2587 19.6111C10.7586 19.6111 11.1639 19.2058 11.1639 18.7059C11.1639 18.206 10.7586 17.8008 10.2587 17.8008C9.75881 17.8008 9.35356 18.206 9.35356 18.7059C9.35356 19.2058 9.75881 19.6111 10.2587 19.6111Z" fill="#5064AA"/>
<path d="M10.5607 12.0693H9.95718V13.8797H10.5607V12.0693Z" fill="#FAB446"/>
<path d="M8.44822 15.0858L7.84474 14.4823L8.19823 14.1288C8.74462 13.5824 9.48578 13.2754 10.2586 13.2754C11.0314 13.2754 11.7725 13.5824 12.3189 14.1288L12.6724 14.4823L12.0689 15.0858H8.44822Z" fill="#C8414B"/>
<path d="M10.2586 14.7841C10.4253 14.7841 10.5604 14.649 10.5604 14.4824C10.5604 14.3158 10.4253 14.1807 10.2586 14.1807C10.092 14.1807 9.95691 14.3158 9.95691 14.4824C9.95691 14.649 10.092 14.7841 10.2586 14.7841Z" fill="#FFD250"/>
<path d="M9.05146 14.7841C9.21811 14.7841 9.3532 14.649 9.3532 14.4824C9.3532 14.3158 9.21811 14.1807 9.05146 14.1807C8.88482 14.1807 8.74973 14.3158 8.74973 14.4824C8.74973 14.649 8.88482 14.7841 9.05146 14.7841Z" fill="#FFD250"/>
<path d="M11.4653 14.7841C11.6319 14.7841 11.767 14.649 11.767 14.4824C11.767 14.3158 11.6319 14.1807 11.4653 14.1807C11.2986 14.1807 11.1635 14.3158 11.1635 14.4824C11.1635 14.649 11.2986 14.7841 11.4653 14.7841Z" fill="#FFD250"/>
<path d="M7.845 17.5H4.82762V18.1035H7.845V17.5Z" fill="#C8414B"/>
<path d="M4.82761 19.9139L6.6379 19.3105V18.707L4.82761 19.3105V19.9139Z" fill="#C8414B"/>
</svg>
