<svg viewBox="0 0 12 12" xmlns="http://www.w3.org/2000/svg">
<path d="M0.207518 5.59839L3.14202 7.06089C3.25552 7.11689 3.38952 7.11289 3.49802 7.04939L6.11002 5.53089L4.52902 6.93189C4.44852 7.00339 4.40252 7.10539 4.40252 7.21289V10.6254C4.40252 10.9854 4.86202 11.1369 5.07752 10.8509L6.34602 9.16439L9.48302 10.9509C9.70302 11.0774 9.98502 10.9504 10.036 10.6989L11.9925 0.948888C12.051 0.655888 11.7595 0.416888 11.4885 0.525888L0.238518 4.91339C-0.063482 5.03139 -0.082982 5.45389 0.207518 5.59839ZM11.1225 1.47389L9.40302 10.0424L6.43052 8.34939C6.26852 8.25689 6.06002 8.29789 5.94502 8.44989L5.15252 9.50339V7.38139L9.42802 3.59339C9.76652 3.29389 9.37752 2.76139 8.99102 2.98839L3.29602 6.29939L1.30002 5.30489L11.1225 1.47389Z"/>
<defs>
<clipPath id="clip0">
<rect width="12" height="12" fill="white"/>
</clipPath>
</defs>
</svg>
