<svg width="35" height="35" viewBox="0 0 35 35" fill="none" xmlns="http://www.w3.org/2000/svg">
<path d="M32.3788 6.03418H2.62124C1.17353 6.03418 0 7.20771 0 8.65542V26.344C0 27.7917 1.17353 28.9653 2.62124 28.9653H32.3788C33.8264 28.9653 35 27.7917 35 26.344V8.65542C35 7.20771 33.8265 6.03418 32.3788 6.03418Z" fill="#41479B"/>
<path d="M34.9637 8.22216C34.7571 6.98082 33.6787 6.03418 32.3788 6.03418H31.6967L20.5172 13.3587V6.03425H14.4828V13.3587L3.30326 6.03425H2.62124C1.32125 6.03425 0.242881 6.98082 0.0362988 8.22223L9.59144 14.4826H0V20.5171H9.59144L0.0362988 26.7773C0.242881 28.0186 1.32125 28.9653 2.62124 28.9653H3.30326L14.4828 21.6408V28.9653H20.5172V21.6408L31.6967 28.9653H32.3788C33.6787 28.9653 34.7571 28.0187 34.9637 26.7773L25.4086 20.5169H35V14.4824H25.4086L34.9637 8.22216Z" fill="#F5F5F5"/>
<path d="M19.3104 6.03418H15.6896V15.6893H0V19.31H15.6896V28.9652H19.3104V19.31H35V15.6893H19.3104V6.03418Z" fill="#FF4B55"/>
<path d="M1.69472 28.7959L14.4494 20.5166H12.2327L0.630432 28.0479C0.914329 28.3792 1.27916 28.6389 1.69472 28.7959Z" fill="#FF4B55"/>
<path d="M23.6789 20.5166H21.4621L33.8158 28.5355C34.1615 28.3085 34.4499 28.0018 34.6557 27.6417L23.6789 20.5166Z" fill="#FF4B55"/>
<path d="M0.276764 7.4837L11.0591 14.4828H13.2758L1.05784 6.55176C0.729782 6.79594 0.461334 7.11518 0.276764 7.4837Z" fill="#FF4B55"/>
<path d="M22.734 14.4829L34.3575 6.9377C34.0705 6.60745 33.7028 6.34933 33.2844 6.19531L20.5173 14.4829H22.734Z" fill="#FF4B55"/>
</svg>
