<svg viewBox="0 0 12 12" xmlns="http://www.w3.org/2000/svg">
<path d="M11.4957 4.23532C11.4958 3.10831 11.0541 2.04593 10.252 1.24384C9.44989 0.441742 8.38751 0 7.26041 0H4.75095C4.75085 0 4.75085 0 4.75085 0C3.62393 0 2.56146 0.441742 1.75946 1.24374C0.957367 2.04593 0.515625 3.10831 0.515625 4.23532V6.20792C0.515625 7.08078 0.78186 7.92032 1.28558 8.63599C1.72998 9.26733 2.32764 9.76053 3.02444 10.0732V11.2062C3.02444 11.7921 3.35248 12 3.63336 12C3.83405 12 4.03473 11.9009 4.2301 11.7057L5.49243 10.4433L7.2605 10.4432C8.38751 10.4432 9.44989 10.0015 10.252 9.19949C11.0541 8.3974 11.4958 7.33493 11.4958 6.20792L11.4957 4.23532ZM7.2605 9.74011L5.34686 9.7402C5.25357 9.7402 5.16422 9.77719 5.0983 9.84311L3.73297 11.2084C3.73123 11.2103 3.7294 11.212 3.72757 11.2137C3.72757 11.2113 3.72757 11.2087 3.72757 11.2062V9.83853C3.72757 9.69269 3.63757 9.56204 3.50134 9.51004C2.13611 8.98911 1.21884 7.66205 1.21884 6.20792V4.23532C1.21884 3.29608 1.58743 2.41022 2.25668 1.74088C2.92593 1.07172 3.81171 0.703125 4.75095 0.703125H7.26041C8.19965 0.703125 9.08551 1.07172 9.75476 1.74097C10.4241 2.41031 10.7927 3.29617 10.7926 4.23532L10.7927 6.20792C10.7926 8.15561 9.2081 9.74011 7.2605 9.74011Z"/>
<path d="M6.94061 5.74973C6.80337 5.6124 6.58081 5.6124 6.44348 5.74973L6.15948 6.03363L5.05902 4.93326L5.34301 4.64935C5.40893 4.58344 5.44601 4.49399 5.44601 4.4007C5.44601 4.3075 5.40893 4.21805 5.34301 4.15213L4.01165 2.82077C3.94574 2.75485 3.85638 2.71777 3.76309 2.71777C3.66989 2.71777 3.58044 2.75485 3.51452 2.82077L2.58252 3.75278C2.07852 4.25678 2.07852 5.077 2.58261 5.58127L5.51147 8.51032C5.755 8.75375 6.07974 8.88779 6.42572 8.88779C6.77179 8.88779 7.09652 8.75375 7.34005 8.51032L8.27206 7.5784C8.33798 7.51239 8.37506 7.42304 8.37506 7.32974C8.37506 7.23654 8.33798 7.1471 8.27206 7.08118L6.94061 5.74973ZM6.84283 8.013C6.73214 8.12369 6.58401 8.18466 6.42572 8.18466C6.26742 8.18466 6.11929 8.12369 6.0086 8.013L3.07983 5.08405C2.84985 4.85407 2.84976 4.4798 3.07974 4.24991L3.76309 3.56647L4.59723 4.4007L4.31323 4.6846C4.24731 4.75052 4.21023 4.83997 4.21023 4.93317C4.21023 5.02646 4.24731 5.11581 4.31323 5.18182L5.91082 6.77942C6.04815 6.91666 6.27072 6.91675 6.40805 6.77942L6.69204 6.49551L7.52618 7.32965L6.84283 8.013Z"/>
<path d="M6.091 1.55566C5.89682 1.55566 5.73944 1.71304 5.73944 1.90723C5.73944 2.10132 5.89682 2.25879 6.091 2.25879C6.89557 2.25879 7.65207 2.57208 8.22098 3.14108C8.78998 3.70999 9.10327 4.4664 9.10327 5.27106C9.10327 5.46515 9.26065 5.62262 9.45483 5.62262C9.64893 5.62262 9.8064 5.46524 9.8064 5.27106C9.8064 4.27863 9.41995 3.34561 8.7182 2.64386C8.01645 1.94211 7.08344 1.55566 6.091 1.55566Z"/>
<path d="M7.59705 5.2706C7.59705 5.46469 7.75452 5.62216 7.94861 5.62216C8.14279 5.62216 8.30017 5.46469 8.30017 5.2706C8.30017 4.05249 7.30911 3.06152 6.091 3.06152C5.89682 3.06152 5.73944 3.2189 5.73944 3.41309C5.73944 3.60727 5.89682 3.76465 6.091 3.76465C6.92148 3.76465 7.59705 4.44022 7.59705 5.2706Z"/>
</svg>
