<svg viewBox="0 0 18 18" xmlns="http://www.w3.org/2000/svg">
<path d="M9.10874 14.625C11.7127 14.625 10.7842 12.9765 10.9852 12.5025C10.9822 12.1485 10.9792 11.808 10.9912 11.601C11.1562 11.6475 11.5455 11.8447 12.3495 12.6262C13.5907 13.8787 13.908 14.625 14.9107 14.625H16.7565C17.3415 14.625 17.646 14.3828 17.7982 14.1795C17.9452 13.983 18.0892 13.638 17.9317 13.101C17.52 11.808 15.1185 9.57525 14.9692 9.33975C14.9917 9.29625 15.0277 9.2385 15.0465 9.2085H15.045C15.519 8.58225 17.328 5.87175 17.5942 4.78725C17.595 4.78575 17.5957 4.7835 17.5957 4.78125C17.7397 4.28625 17.6077 3.96525 17.4712 3.78375C17.2657 3.51225 16.9387 3.375 16.497 3.375H14.6512C14.0332 3.375 13.5645 3.68625 13.3275 4.254C12.9307 5.26275 11.8162 7.33725 10.9807 8.0715C10.9552 7.03125 10.9725 6.237 10.986 5.64675C11.013 4.4955 11.1 3.375 9.90524 3.375H7.00424C6.25574 3.375 5.53949 4.1925 6.31499 5.163C6.99299 6.0135 6.55874 6.4875 6.70499 8.847C6.13499 8.23575 5.12099 6.585 4.40399 4.47525C4.20299 3.9045 3.89849 3.37575 3.04124 3.37575H1.19549C0.446992 3.37575 -7.62939e-06 3.78375 -7.62939e-06 4.467C-7.62939e-06 6.0015 3.39674 14.625 9.10874 14.625ZM3.04124 4.50075C3.20399 4.50075 3.22049 4.50075 3.34124 4.8435C4.07549 7.00575 5.72249 10.2053 6.92549 10.2053C7.82924 10.2053 7.82924 9.279 7.82924 8.93025L7.82849 6.15375C7.77899 5.235 7.44449 4.7775 7.22474 4.5L9.85574 4.503C9.85724 4.51575 9.84074 7.57425 9.86324 8.31525C9.86324 9.3675 10.6987 9.9705 12.003 8.6505C13.3792 7.09725 14.331 4.77525 14.3692 4.68075C14.4255 4.54575 14.4742 4.5 14.6512 4.5H16.497H16.5045C16.5037 4.50225 16.5037 4.5045 16.503 4.50675C16.3342 5.29425 14.6685 7.80375 14.1112 8.583C14.1022 8.595 14.094 8.60775 14.0857 8.6205C13.8405 9.021 13.641 9.4635 14.1195 10.086H14.1202C14.1637 10.1385 14.277 10.2615 14.442 10.4325C14.955 10.962 16.7145 12.7725 16.8705 13.4925C16.767 13.509 16.6545 13.497 14.9107 13.5007C14.5395 13.5007 14.2492 12.9458 13.1415 11.8282C12.1455 10.8593 11.499 10.4633 10.9102 10.4633C9.76724 10.4633 9.85049 11.391 9.86099 12.513C9.86474 13.7295 9.85724 13.3448 9.86549 13.4213C9.79874 13.4475 9.60749 13.5 9.10874 13.5C4.34999 13.5 1.25099 5.94675 1.13174 4.503C1.17299 4.49925 1.74074 4.5015 3.04124 4.50075Z"/>
<defs>
<clipPath id="clip0">
<rect width="18" height="18" fill="white"/>
</clipPath>
</defs>
</svg>
