<svg viewBox="0 0 12 12" xmlns="http://www.w3.org/2000/svg">
<path fill-rule="evenodd" clip-rule="evenodd" d="M9.97945 2.00404C8.92696 0.950317 7.52724 0.369759 6.03605 0.369141C2.96331 0.369141 0.462547 2.86983 0.461311 5.9434C0.460899 6.92592 0.717567 7.88502 1.20543 8.73042L0.414551 11.6191L3.3698 10.8439C4.1841 11.2881 5.10084 11.5222 6.03378 11.5225H6.03612C9.10851 11.5225 11.6095 9.02156 11.6107 5.94786C11.6113 4.45825 11.032 3.0577 9.97945 2.00404ZM6.03605 10.581H6.03413C5.20274 10.5807 4.38734 10.3572 3.67584 9.93514L3.50672 9.83469L1.75303 10.2947L2.22111 8.58492L2.11091 8.40962C1.64708 7.67189 1.40215 6.81921 1.40256 5.94374C1.40353 3.38908 3.48214 1.31067 6.0379 1.31067C7.27551 1.31108 8.4389 1.79366 9.31368 2.66947C10.1885 3.54529 10.6699 4.70943 10.6695 5.94752C10.6684 8.50239 8.58996 10.581 6.03605 10.581ZM8.5776 7.11076C8.43835 7.041 7.75349 6.70413 7.62577 6.65758C7.49819 6.61109 7.40522 6.58795 7.31245 6.72734C7.21955 6.86673 6.95265 7.18053 6.87135 7.27343C6.79005 7.3664 6.70889 7.37807 6.56957 7.30831C6.43025 7.23862 5.98146 7.09147 5.44938 6.61693C5.03533 6.24758 4.7558 5.79144 4.6745 5.65205C4.59334 5.51253 4.67381 5.44441 4.73561 5.36778C4.8864 5.18053 5.03739 4.98422 5.08381 4.89132C5.13029 4.79835 5.10702 4.71698 5.07214 4.64728C5.03739 4.57759 4.75882 3.89198 4.64278 3.61299C4.52962 3.34149 4.41488 3.37816 4.32932 3.3739C4.24816 3.36985 4.15526 3.36903 4.06235 3.36903C3.96952 3.36903 3.8186 3.40384 3.69088 3.54337C3.56323 3.68282 3.20343 4.01976 3.20343 4.70538C3.20343 5.39099 3.70255 6.05333 3.77218 6.1463C3.8418 6.23927 4.75442 7.64621 6.15168 8.2495C6.48402 8.39314 6.74343 8.47877 6.94579 8.54297C7.27949 8.64899 7.58306 8.63402 7.82311 8.59817C8.09077 8.55814 8.64715 8.26117 8.76334 7.93584C8.87938 7.61043 8.87938 7.33159 8.8445 7.27343C8.80975 7.21534 8.71685 7.18053 8.5776 7.11076Z"/>
</svg>
